M48
; DRILL file {KiCad 9.0.2} date 2025-11-22T01:12:36+0100
; FORMAT={-:-/ absolute / inch / decimal}
; #@! TF.CreationDate,2025-11-22T01:12:36+01:00
; #@! TF.GenerationSoftware,Kicad,Pcbnew,9.0.2
; #@! TF.FileFunction,Plated,1,4,PTH
FMAT,2
INCH
; #@! TA.AperFunction,Plated,PTH,ViaDrill
T1C0.0118
; #@! TA.AperFunction,Plated,PTH,ComponentDrill
T2C0.0315
; #@! TA.AperFunction,Plated,PTH,ComponentDrill
T3C0.0350
; #@! TA.AperFunction,Plated,PTH,ComponentDrill
T4C0.0354
; #@! TA.AperFunction,Plated,PTH,ComponentDrill
T5C0.0390
; #@! TA.AperFunction,Plated,PTH,ComponentDrill
T6C0.0394
; #@! TA.AperFunction,Plated,PTH,ComponentDrill
T7C0.0400
; #@! TA.AperFunction,Plated,PTH,ComponentDrill
T8C0.0551
; #@! TA.AperFunction,Plated,PTH,ComponentDrill
T9C0.1083
; #@! TA.AperFunction,Plated,PTH,ComponentDrill
T10C0.1260
%
G90
G05
T1
X3.0079Y-4.1181
X3.0472Y-4.063
X3.0988Y-1.9739
X3.1024Y-4.1024
X3.1164Y-4.266
X3.1247Y-1.9395
X3.1475Y-1.9693
X3.1811Y-4.2677
X3.2424Y-2.0497
X3.2442Y-2.0996
X3.2598Y-3.3386
X3.2992Y-3.7874
X3.3386Y-4.1417
X3.3543Y-2.7091
X3.3543Y-3.685
X3.3543Y-4.0472
X3.4017Y-1.8462
X3.4087Y-3.8839
X3.4173Y-2.5906
X3.4173Y-3.7717
X3.4241Y-2.0378
X3.439Y-2.6279
X3.4409Y-2.7874
X3.4646Y-5.3071
X3.4765Y-4.0914
X3.4768Y-2.4641
X3.4921Y-2.2471
X3.5512Y-2.1024
X3.5748Y-3.6378
X3.5787Y-2.187
X3.5827Y-1.9685
X3.6136Y-4.1705
X3.6378Y-2.189
X3.6457Y-2.1417
X3.6802Y-2.0486
X3.6802Y-2.3228
X3.7087Y-4.1024
X3.7124Y-2.4572
X3.7165Y-2.7323
X3.7323Y-2.7766
X3.7559Y-2.8819
X3.8583Y-4.0472
X3.8711Y-3.8529
X3.8976Y-2.6457
X3.9055Y-4.3071
X3.9134Y-3.0854
X3.9449Y-3.6378
X3.9606Y-1.8346
X3.9685Y-1.9764
X3.9764Y-2.9843
X3.9843Y-4.063
X4.0079Y-2.1654
X4.0099Y-2.3139
X4.0236Y-2.1969
X4.0315Y-4.1417
X4.0496Y-2.2233
X4.0504Y-2.0435
X4.063Y-4.1181
X4.126Y-3.0866
X4.1969Y-3.2205
X4.2205Y-2.874
X4.2213Y-2.6459
X4.2599Y-3.2205
X4.2702Y-3.4418
X4.2756Y-1.9449
X4.2835Y-3.6614
X4.3385Y-2.6814
X4.3386Y-3.6929
X4.3392Y-2.9842
X4.3622Y-4.2488
X4.3701Y-1.9213
X4.3701Y-2.748
X4.3701Y-5.0709
X4.4016Y-3.3697
X4.4016Y-4.063
X4.4388Y-3.5618
X4.4437Y-3.5091
X4.4488Y-3.7323
X4.4724Y-4.378
X4.4803Y-3.6378
X4.4812Y-2.0917
X4.4822Y-5.2992
X4.492Y-3.3423
X4.5102Y-1.8694
X4.5117Y-2.6134
X4.518Y-1.9245
X4.5197Y-2.1732
X4.5354Y-2.2047
X4.5512Y-3.6693
X4.5583Y-2.0852
X4.5591Y-2.8898
X4.5591Y-4.5433
X4.5628Y-2.2577
X4.5827Y-3.9685
X4.5906Y-3.8583
X4.6299Y-2.8425
X4.6299Y-3.1496
X4.6448Y-4.2262
X4.6614Y-3.5091
X4.6614Y-3.5618
X4.6614Y-3.6142
X4.6693Y-3.0787
X4.6693Y-3.4409
X4.6929Y-2.5748
X4.7076Y-3.3454
X4.7165Y-4.5512
X4.7165Y-4.7953
X4.7167Y-1.9786
X4.7323Y-2.7008
X4.7323Y-4.1575
X4.7402Y-4.3858
X4.748Y-4.6142
X4.748Y-5.0236
X4.7717Y-3.5827
X4.8124Y-2.1111
X4.8268Y-3.9843
X4.8268Y-5.1024
X4.8425Y-2.5669
X4.8504Y-2.2047
X4.8739Y-2.2399
X4.8839Y-2.1083
X4.8898Y-2.2835
X4.8898Y-3.7323
X4.8976Y-3.2205
X5.0157Y-2.748
X5.0236Y-2.0
X5.1285Y-4.3676
X5.1545Y-4.5915
X5.1575Y-4.2283
X5.1654Y-3.8031
X5.1732Y-3.8819
X5.1732Y-4.2835
X5.2295Y-2.9134
X5.2342Y-3.6867
X5.3071Y-5.0236
X5.3307Y-3.1969
X5.3465Y-3.2283
X5.3858Y-3.1732
X5.3858Y-4.3465
X5.4016Y-5.063
X5.4016Y-5.2362
X5.4331Y-3.6063
X5.4331Y-4.2283
X5.4646Y-3.9213
X5.4724Y-4.3228
X5.4724Y-4.3701
X5.4882Y-3.063
X5.4882Y-3.5591
X5.4882Y-3.7717
X5.5059Y-5.2421
X5.5197Y-4.0157
X5.5354Y-3.7638
X5.5354Y-4.3701
X5.5669Y-2.8819
X5.5787Y-3.6339
X5.6063Y-3.3937
X5.6169Y-4.8268
X5.6614Y-4.3311
X5.662Y-4.229
X5.6693Y-2.2362
X5.672Y-5.3071
X5.6772Y-3.6614
X5.6772Y-3.8031
X5.6772Y-4.1181
X5.7008Y-3.8819
X5.7214Y-2.7603
X5.7244Y-4.1811
X5.7372Y-3.9858
X5.7377Y-3.9249
X5.7717Y-3.2835
X5.7717Y-3.5669
X5.7953Y-4.2835
X5.8268Y-4.0708
X5.8504Y-3.1969
X5.8583Y-4.622
X5.937Y-3.4961
X5.9843Y-3.4646
X6.0411Y-1.8504
X6.1108Y-1.8583
X6.126Y-4.315
X6.126Y-4.6142
X6.1686Y-1.8547
X6.1811Y-3.4331
X6.189Y-3.9134
X6.2283Y-1.874
X6.2526Y-4.2834
X6.2598Y-3.5669
X6.2835Y-1.8819
X6.3071Y-4.622
X6.3307Y-3.5433
X6.3543Y-1.8661
X6.378Y-3.6614
X6.4094Y-1.8819
X6.4567Y-4.315
X6.4724Y-3.3071
X6.5748Y-4.6142
X6.5984Y-3.6693
X6.6693Y-3.9764
X6.7173Y-4.283
X6.8031Y-4.6142
X6.811Y-2.9843
X6.8898Y-3.7165
X6.9291Y-4.3169
X6.9921Y-4.6614
X7.063Y-4.0
X7.0709Y-3.0079
X7.0787Y-2.9213
X7.1102Y-3.7717
X7.126Y-2.9606
X7.1575Y-3.9921
X7.1654Y-3.7953
X7.1732Y-4.6693
X7.1811Y-4.2835
X7.2047Y-3.8819
X7.2205Y-3.6063
X7.2362Y-3.0709
X7.2835Y-3.126
X7.2913Y-3.4488
X7.3465Y-3.6063
X7.3937Y-4.315
X7.434Y-3.3305
X7.4882Y-3.9843
X7.5354Y-3.5669
X7.5433Y-3.2598
X7.5591Y-3.6299
X7.5906Y-3.2598
X7.5906Y-3.9213
X7.6299Y-3.9921
X7.6378Y-3.2677
X7.6608Y-3.5512
X7.7717Y-4.1575
T2
X7.0866Y-1.9543
X7.0866Y-2.0543
X7.0866Y-2.1543
X7.0866Y-2.2543
X7.0866Y-2.3543
X7.2866Y-1.9543
X7.2866Y-2.0543
X7.2866Y-2.1543
X7.2866Y-2.2543
X7.2866Y-2.3543
X7.5327Y-1.9543
X7.5327Y-2.0543
X7.5327Y-2.1543
X7.5327Y-2.2543
X7.5327Y-2.3543
X7.7327Y-1.9543
X7.7327Y-2.0543
X7.7327Y-2.1543
X7.7327Y-2.2543
X7.7327Y-2.3543
T3
X5.9516Y-4.9427
X6.0016Y-4.8427
X6.0516Y-4.9427
X6.1016Y-4.8427
X6.1516Y-4.9427
X6.2016Y-4.8427
X6.2516Y-4.9427
X6.3016Y-4.8427
X6.7941Y-4.9409
X6.8441Y-4.8409
X6.8941Y-4.9409
X6.9441Y-4.8409
X6.9941Y-4.9409
X7.0441Y-4.8409
X7.0941Y-4.9409
X7.1441Y-4.8409
T4
X4.9134Y-3.0492
X4.9134Y-3.3839
X5.0134Y-3.0492
X5.0134Y-3.3839
T5
X3.2098Y-5.0492
X3.2099Y-4.7205
X3.2161Y-4.3898
X3.3098Y-5.0492
X3.3099Y-4.7205
X3.3161Y-4.3898
X3.5098Y-5.0492
X3.5099Y-4.7205
X3.5161Y-4.3898
X3.7098Y-5.0492
X3.7099Y-4.7205
X3.7161Y-4.3898
T6
X3.1047Y-2.6854
X3.1047Y-2.7854
X3.1047Y-2.8854
X3.1047Y-2.9854
X3.1047Y-3.0854
X3.1047Y-3.1854
X3.1047Y-3.2854
X3.1047Y-3.3854
X3.1047Y-3.4854
X3.1047Y-3.5854
X3.1047Y-3.6854
X3.1047Y-3.7854
X3.1047Y-3.8854
X3.1047Y-3.9854
X3.2047Y-2.6854
X3.2047Y-2.7854
X3.2047Y-2.8854
X3.2047Y-2.9854
X3.2047Y-3.0854
X3.2047Y-3.1854
X3.2047Y-3.2854
X3.2047Y-3.3854
X3.2047Y-3.4854
X3.2047Y-3.5854
X3.2047Y-3.6854
X3.2047Y-3.7854
X3.2047Y-3.8854
X3.2047Y-3.9854
X5.9332Y-2.9257
X6.0332Y-2.9257
X6.1332Y-2.9257
X6.2332Y-2.9257
T7
X5.5709Y-2.6244
X5.5709Y-2.7244
X5.6709Y-2.6244
X5.6709Y-2.7244
X5.7709Y-2.6244
X5.7709Y-2.7244
X5.8709Y-2.6244
X5.8709Y-2.7244
X5.9709Y-2.6244
X5.9709Y-2.7244
X6.0709Y-2.6244
X6.0709Y-2.7244
X6.1709Y-2.6244
X6.1709Y-2.7244
X6.2709Y-2.6244
X6.2709Y-2.7244
X6.3709Y-2.6244
X6.3709Y-2.7244
X6.4709Y-2.6244
X6.4709Y-2.7244
X6.5709Y-2.6244
X6.5709Y-2.7244
X6.6709Y-2.6244
X6.6709Y-2.7244
X6.7709Y-2.6244
X6.7709Y-2.7244
X6.8709Y-2.6244
X6.8709Y-2.7244
X6.9709Y-2.6244
X6.9709Y-2.7244
X7.0709Y-2.6244
X7.0709Y-2.7244
X7.1709Y-2.6244
X7.1709Y-2.7244
X7.2709Y-2.6244
X7.2709Y-2.7244
X7.3709Y-2.6244
X7.3709Y-2.7244
X7.4709Y-2.6244
X7.4709Y-2.7244
X7.611Y-2.8655
X7.611Y-2.9655
X7.711Y-2.8655
X7.711Y-2.9655
T8
X5.2992Y-2.0738
X5.4992Y-2.0738
T9
X5.3791Y-2.6744
X5.3791Y-4.6035
X7.6626Y-2.6744
X7.6626Y-4.6035
T10
X4.2835Y-2.3543
X7.6063Y-5.1024
M30
