%TF.GenerationSoftware,KiCad,Pcbnew,9.0.2*%
%TF.CreationDate,2025-11-22T22:47:38+01:00*%
%TF.ProjectId,playduino_sheep_tester,706c6179-6475-4696-9e6f-5f7368656570,rev?*%
%TF.SameCoordinates,Original*%
%TF.FileFunction,Copper,L1,Top*%
%TF.FilePolarity,Positive*%
%FSLAX46Y46*%
G04 Gerber Fmt 4.6, Leading zero omitted, Abs format (unit mm)*
G04 Created by KiCad (PCBNEW 9.0.2) date 2025-11-22 22:47:38*
%MOMM*%
%LPD*%
G01*
G04 APERTURE LIST*
G04 Aperture macros list*
%AMRoundRect*
0 Rectangle with rounded corners*
0 $1 Rounding radius*
0 $2 $3 $4 $5 $6 $7 $8 $9 X,Y pos of 4 corners*
0 Add a 4 corners polygon primitive as box body*
4,1,4,$2,$3,$4,$5,$6,$7,$8,$9,$2,$3,0*
0 Add four circle primitives for the rounded corners*
1,1,$1+$1,$2,$3*
1,1,$1+$1,$4,$5*
1,1,$1+$1,$6,$7*
1,1,$1+$1,$8,$9*
0 Add four rect primitives between the rounded corners*
20,1,$1+$1,$2,$3,$4,$5,0*
20,1,$1+$1,$4,$5,$6,$7,0*
20,1,$1+$1,$6,$7,$8,$9,0*
20,1,$1+$1,$8,$9,$2,$3,0*%
G04 Aperture macros list end*
%TA.AperFunction,ComponentPad*%
%ADD10C,1.498600*%
%TD*%
%TA.AperFunction,SMDPad,CuDef*%
%ADD11RoundRect,0.200000X-0.200000X-0.275000X0.200000X-0.275000X0.200000X0.275000X-0.200000X0.275000X0*%
%TD*%
%TA.AperFunction,SMDPad,CuDef*%
%ADD12RoundRect,0.200000X0.200000X0.275000X-0.200000X0.275000X-0.200000X-0.275000X0.200000X-0.275000X0*%
%TD*%
%TA.AperFunction,SMDPad,CuDef*%
%ADD13RoundRect,0.200000X-0.275000X0.200000X-0.275000X-0.200000X0.275000X-0.200000X0.275000X0.200000X0*%
%TD*%
%TA.AperFunction,SMDPad,CuDef*%
%ADD14RoundRect,0.225000X0.225000X0.250000X-0.225000X0.250000X-0.225000X-0.250000X0.225000X-0.250000X0*%
%TD*%
%TA.AperFunction,SMDPad,CuDef*%
%ADD15RoundRect,0.243600X0.771400X-0.901400X0.771400X0.901400X-0.771400X0.901400X-0.771400X-0.901400X0*%
%TD*%
%TA.AperFunction,SMDPad,CuDef*%
%ADD16RoundRect,0.091200X0.288800X-0.608800X0.288800X0.608800X-0.288800X0.608800X-0.288800X-0.608800X0*%
%TD*%
%TA.AperFunction,SMDPad,CuDef*%
%ADD17RoundRect,0.190000X0.190000X-0.510000X0.190000X0.510000X-0.190000X0.510000X-0.190000X-0.510000X0*%
%TD*%
%TA.AperFunction,ComponentPad*%
%ADD18RoundRect,0.249999X0.790001X1.550001X-0.790001X1.550001X-0.790001X-1.550001X0.790001X-1.550001X0*%
%TD*%
%TA.AperFunction,ComponentPad*%
%ADD19O,2.080000X3.600000*%
%TD*%
%TA.AperFunction,SMDPad,CuDef*%
%ADD20RoundRect,0.250000X-1.100000X0.325000X-1.100000X-0.325000X1.100000X-0.325000X1.100000X0.325000X0*%
%TD*%
%TA.AperFunction,SMDPad,CuDef*%
%ADD21RoundRect,0.250000X-1.075000X0.312500X-1.075000X-0.312500X1.075000X-0.312500X1.075000X0.312500X0*%
%TD*%
%TA.AperFunction,SMDPad,CuDef*%
%ADD22RoundRect,0.250000X-0.475000X0.250000X-0.475000X-0.250000X0.475000X-0.250000X0.475000X0.250000X0*%
%TD*%
%TA.AperFunction,SMDPad,CuDef*%
%ADD23RoundRect,0.250000X0.425000X1.425000X-0.425000X1.425000X-0.425000X-1.425000X0.425000X-1.425000X0*%
%TD*%
%TA.AperFunction,SMDPad,CuDef*%
%ADD24RoundRect,0.150000X-0.587500X-0.150000X0.587500X-0.150000X0.587500X0.150000X-0.587500X0.150000X0*%
%TD*%
%TA.AperFunction,SMDPad,CuDef*%
%ADD25RoundRect,0.150000X0.825000X0.150000X-0.825000X0.150000X-0.825000X-0.150000X0.825000X-0.150000X0*%
%TD*%
%TA.AperFunction,SMDPad,CuDef*%
%ADD26RoundRect,0.250000X-0.312500X-1.075000X0.312500X-1.075000X0.312500X1.075000X-0.312500X1.075000X0*%
%TD*%
%TA.AperFunction,SMDPad,CuDef*%
%ADD27RoundRect,0.150000X0.150000X-0.587500X0.150000X0.587500X-0.150000X0.587500X-0.150000X-0.587500X0*%
%TD*%
%TA.AperFunction,SMDPad,CuDef*%
%ADD28R,1.800000X0.800000*%
%TD*%
%TA.AperFunction,SMDPad,CuDef*%
%ADD29RoundRect,0.200000X0.275000X-0.200000X0.275000X0.200000X-0.275000X0.200000X-0.275000X-0.200000X0*%
%TD*%
%TA.AperFunction,SMDPad,CuDef*%
%ADD30RoundRect,0.150000X0.587500X0.150000X-0.587500X0.150000X-0.587500X-0.150000X0.587500X-0.150000X0*%
%TD*%
%TA.AperFunction,SMDPad,CuDef*%
%ADD31RoundRect,0.225000X-0.225000X-0.250000X0.225000X-0.250000X0.225000X0.250000X-0.225000X0.250000X0*%
%TD*%
%TA.AperFunction,ComponentPad*%
%ADD32R,1.700000X1.700000*%
%TD*%
%TA.AperFunction,ComponentPad*%
%ADD33C,1.700000*%
%TD*%
%TA.AperFunction,SMDPad,CuDef*%
%ADD34RoundRect,0.250000X-0.850000X-0.350000X0.850000X-0.350000X0.850000X0.350000X-0.850000X0.350000X0*%
%TD*%
%TA.AperFunction,SMDPad,CuDef*%
%ADD35RoundRect,0.249997X-2.950003X-2.650003X2.950003X-2.650003X2.950003X2.650003X-2.950003X2.650003X0*%
%TD*%
%TA.AperFunction,SMDPad,CuDef*%
%ADD36RoundRect,0.150000X-0.150000X0.587500X-0.150000X-0.587500X0.150000X-0.587500X0.150000X0.587500X0*%
%TD*%
%TA.AperFunction,SMDPad,CuDef*%
%ADD37R,0.250000X1.100000*%
%TD*%
%TA.AperFunction,ComponentPad*%
%ADD38R,1.800000X1.800000*%
%TD*%
%TA.AperFunction,ComponentPad*%
%ADD39C,1.800000*%
%TD*%
%TA.AperFunction,SMDPad,CuDef*%
%ADD40RoundRect,0.150000X-0.150000X0.875000X-0.150000X-0.875000X0.150000X-0.875000X0.150000X0.875000X0*%
%TD*%
%TA.AperFunction,SMDPad,CuDef*%
%ADD41RoundRect,0.225000X-0.250000X0.225000X-0.250000X-0.225000X0.250000X-0.225000X0.250000X0.225000X0*%
%TD*%
%TA.AperFunction,SMDPad,CuDef*%
%ADD42RoundRect,0.225000X0.250000X-0.225000X0.250000X0.225000X-0.250000X0.225000X-0.250000X-0.225000X0*%
%TD*%
%TA.AperFunction,SMDPad,CuDef*%
%ADD43R,0.800000X1.800000*%
%TD*%
%TA.AperFunction,SMDPad,CuDef*%
%ADD44RoundRect,0.250000X-0.650000X0.412500X-0.650000X-0.412500X0.650000X-0.412500X0.650000X0.412500X0*%
%TD*%
%TA.AperFunction,SMDPad,CuDef*%
%ADD45R,0.700000X0.700000*%
%TD*%
%TA.AperFunction,ComponentPad*%
%ADD46R,1.398000X1.398000*%
%TD*%
%TA.AperFunction,ComponentPad*%
%ADD47C,1.398000*%
%TD*%
%TA.AperFunction,SMDPad,CuDef*%
%ADD48R,0.900000X0.350000*%
%TD*%
%TA.AperFunction,SMDPad,CuDef*%
%ADD49R,1.000000X0.350000*%
%TD*%
%TA.AperFunction,SMDPad,CuDef*%
%ADD50RoundRect,0.250000X-0.900000X1.000000X-0.900000X-1.000000X0.900000X-1.000000X0.900000X1.000000X0*%
%TD*%
%TA.AperFunction,SMDPad,CuDef*%
%ADD51RoundRect,0.150000X-0.150000X0.825000X-0.150000X-0.825000X0.150000X-0.825000X0.150000X0.825000X0*%
%TD*%
%TA.AperFunction,SMDPad,CuDef*%
%ADD52RoundRect,0.150000X0.150000X-0.825000X0.150000X0.825000X-0.150000X0.825000X-0.150000X-0.825000X0*%
%TD*%
%TA.AperFunction,SMDPad,CuDef*%
%ADD53RoundRect,0.250000X-0.425000X-1.425000X0.425000X-1.425000X0.425000X1.425000X-0.425000X1.425000X0*%
%TD*%
%TA.AperFunction,SMDPad,CuDef*%
%ADD54R,1.350000X1.800000*%
%TD*%
%TA.AperFunction,ComponentPad*%
%ADD55R,1.600000X1.600000*%
%TD*%
%TA.AperFunction,ComponentPad*%
%ADD56C,1.600000*%
%TD*%
%TA.AperFunction,SMDPad,CuDef*%
%ADD57RoundRect,0.150000X0.875000X0.150000X-0.875000X0.150000X-0.875000X-0.150000X0.875000X-0.150000X0*%
%TD*%
%TA.AperFunction,ComponentPad*%
%ADD58R,1.524000X1.524000*%
%TD*%
%TA.AperFunction,ComponentPad*%
%ADD59C,1.524000*%
%TD*%
%TA.AperFunction,ComponentPad*%
%ADD60C,6.200000*%
%TD*%
%TA.AperFunction,ViaPad*%
%ADD61C,0.600000*%
%TD*%
%TA.AperFunction,Conductor*%
%ADD62C,0.200000*%
%TD*%
%TA.AperFunction,Conductor*%
%ADD63C,0.500000*%
%TD*%
%TA.AperFunction,Conductor*%
%ADD64C,1.000000*%
%TD*%
%TA.AperFunction,Conductor*%
%ADD65C,2.000000*%
%TD*%
G04 APERTURE END LIST*
D10*
%TO.P,U10,1,VIN*%
%TO.N,+5V*%
X81530000Y-128250000D03*
%TO.P,U10,2,GND*%
%TO.N,GND*%
X84070000Y-128250000D03*
%TO.P,U10,4,0V*%
%TO.N,Net-(U10-0V)*%
X89150000Y-128250000D03*
%TO.P,U10,6,+VO*%
%TO.N,60V*%
X94230000Y-128250000D03*
%TD*%
%TO.P,U9,1,VIN*%
%TO.N,+5V*%
X81532081Y-119900787D03*
%TO.P,U9,2,GND*%
%TO.N,GND*%
X84072081Y-119900787D03*
%TO.P,U9,4,0V*%
%TO.N,+12V*%
X89152081Y-119900787D03*
%TO.P,U9,6,+VO*%
%TO.N,Net-(U10-0V)*%
X94232081Y-119900787D03*
%TD*%
%TO.P,U8,1,VIN*%
%TO.N,+5V*%
X81690000Y-111501687D03*
%TO.P,U8,2,GND*%
%TO.N,GND*%
X84230000Y-111501687D03*
%TO.P,U8,4,0V*%
X89310000Y-111501687D03*
%TO.P,U8,6,+VO*%
%TO.N,+12V*%
X94390000Y-111501687D03*
%TD*%
D11*
%TO.P,R111,1*%
%TO.N,+3V3*%
X177550000Y-105600000D03*
%TO.P,R111,2*%
%TO.N,Net-(U3-A0)*%
X179200000Y-105600000D03*
%TD*%
D12*
%TO.P,R110,1*%
%TO.N,GND*%
X147191754Y-105212834D03*
%TO.P,R110,2*%
%TO.N,B2_U2*%
X145541754Y-105212834D03*
%TD*%
D13*
%TO.P,R109,1*%
%TO.N,GND*%
X91400000Y-93350000D03*
%TO.P,R109,2*%
%TO.N,B1_U2*%
X91400000Y-95000000D03*
%TD*%
D11*
%TO.P,R108,1*%
%TO.N,GND*%
X100505203Y-98827689D03*
%TO.P,R108,2*%
%TO.N,B0_U2*%
X102155203Y-98827689D03*
%TD*%
%TO.P,R107,1*%
%TO.N,GND*%
X171181238Y-92169450D03*
%TO.P,R107,2*%
%TO.N,B3_U3*%
X172831238Y-92169450D03*
%TD*%
%TO.P,R106,1*%
%TO.N,GND*%
X172775000Y-103000000D03*
%TO.P,R106,2*%
%TO.N,B2_U3*%
X174425000Y-103000000D03*
%TD*%
D12*
%TO.P,R105,1*%
%TO.N,GND*%
X195145534Y-89305835D03*
%TO.P,R105,2*%
%TO.N,B1_U3*%
X193495534Y-89305835D03*
%TD*%
D11*
%TO.P,R104,1*%
%TO.N,GND*%
X126150000Y-107800000D03*
%TO.P,R104,2*%
%TO.N,A4_U2*%
X127800000Y-107800000D03*
%TD*%
%TO.P,R103,1*%
%TO.N,GND*%
X122950000Y-107800000D03*
%TO.P,R103,2*%
%TO.N,A5_U2*%
X124600000Y-107800000D03*
%TD*%
D13*
%TO.P,R102,2*%
%TO.N,B7_U2*%
X123000000Y-103825000D03*
%TO.P,R102,1*%
%TO.N,GND*%
X123000000Y-102175000D03*
%TD*%
D12*
%TO.P,R101,1*%
%TO.N,GND*%
X116266360Y-98726195D03*
%TO.P,R101,2*%
%TO.N,A2_U2*%
X114616360Y-98726195D03*
%TD*%
%TO.P,R47,2*%
%TO.N,Net-(Q9-G)*%
X131125000Y-122600000D03*
%TO.P,R47,1*%
%TO.N,B6_U3*%
X132775000Y-122600000D03*
%TD*%
D11*
%TO.P,R100,1*%
%TO.N,GND*%
X131150000Y-124200000D03*
%TO.P,R100,2*%
%TO.N,B4_U2*%
X132800000Y-124200000D03*
%TD*%
%TO.P,R99,1*%
%TO.N,GND*%
X131105914Y-121072343D03*
%TO.P,R99,2*%
%TO.N,B6_U3*%
X132755914Y-121072343D03*
%TD*%
%TO.P,R98,1*%
%TO.N,B3_U2*%
X147975000Y-107200000D03*
%TO.P,R98,2*%
%TO.N,GND*%
X149625000Y-107200000D03*
%TD*%
%TO.P,R11,2*%
%TO.N,AIN0_U4*%
X90033594Y-66747746D03*
%TO.P,R11,1*%
%TO.N,TP3*%
X88383594Y-66747746D03*
%TD*%
D12*
%TO.P,R10,2*%
%TO.N,GND*%
X88375000Y-65200000D03*
%TO.P,R10,1*%
%TO.N,AIN0_U4*%
X90025000Y-65200000D03*
%TD*%
D14*
%TO.P,C15,2*%
%TO.N,GND*%
X88419357Y-63628351D03*
%TO.P,C15,1*%
%TO.N,AIN0_U4*%
X89969357Y-63628351D03*
%TD*%
D12*
%TO.P,R71,1*%
%TO.N,B1_U3*%
X141025000Y-86200000D03*
%TO.P,R71,2*%
%TO.N,Net-(Q15-G)*%
X139375000Y-86200000D03*
%TD*%
D15*
%TO.P,R8,1,1*%
%TO.N,TP1*%
X78060000Y-58620000D03*
D16*
%TO.P,R8,2,2*%
%TO.N,Net-(U11-IN+)*%
X79965000Y-59065000D03*
D17*
%TO.P,R8,3,3*%
%TO.N,Net-(U11-IN-)*%
X77425000Y-52205000D03*
D15*
%TO.P,R8,4,4*%
%TO.N,GND*%
X79330000Y-52650000D03*
%TD*%
D18*
%TO.P,J1,1,Pin_1*%
%TO.N,Net-(J1-Pin_1)*%
X139680000Y-52675000D03*
D19*
%TO.P,J1,2,Pin_2*%
%TO.N,GND*%
X134600000Y-52675000D03*
%TD*%
D20*
%TO.P,C12,1*%
%TO.N,60V*%
X101330000Y-128050000D03*
%TO.P,C12,2*%
%TO.N,Net-(U10-0V)*%
X101330000Y-131000000D03*
%TD*%
D21*
%TO.P,R4,1*%
%TO.N,+12V*%
X103530000Y-111125000D03*
%TO.P,R4,2*%
%TO.N,GND*%
X103530000Y-114050000D03*
%TD*%
D12*
%TO.P,R69,1*%
%TO.N,Net-(K5-Pad4)*%
X163625000Y-94050000D03*
%TO.P,R69,2*%
%TO.N,+3V3*%
X161975000Y-94050000D03*
%TD*%
D11*
%TO.P,R48,1*%
%TO.N,60V*%
X120350000Y-118400000D03*
%TO.P,R48,2*%
%TO.N,Net-(Q10-G)*%
X122000000Y-118400000D03*
%TD*%
D22*
%TO.P,C8,1*%
%TO.N,+12V*%
X100730000Y-111250000D03*
%TO.P,C8,2*%
%TO.N,GND*%
X100730000Y-113150000D03*
%TD*%
D13*
%TO.P,R84,1*%
%TO.N,Net-(U15-D)*%
X158215000Y-48675000D03*
%TO.P,R84,2*%
%TO.N,Net-(U16-O4)*%
X158215000Y-50325000D03*
%TD*%
D23*
%TO.P,R42,1*%
%TO.N,Net-(R41-Pad2)*%
X102800000Y-87970000D03*
%TO.P,R42,2*%
%TO.N,Net-(Q4-D)*%
X97000000Y-87970000D03*
%TD*%
D24*
%TO.P,Q15,1,G*%
%TO.N,Net-(Q15-G)*%
X139455000Y-87700000D03*
%TO.P,Q15,2,S*%
%TO.N,GND*%
X139455000Y-89600000D03*
%TO.P,Q15,3,D*%
%TO.N,TP_GPIO32*%
X141330000Y-88650000D03*
%TD*%
D25*
%TO.P,U11,1,A1*%
%TO.N,GND*%
X88680000Y-55860000D03*
%TO.P,U11,2,A0*%
X88680000Y-54590000D03*
%TO.P,U11,3,SDA*%
%TO.N,SCL_PI*%
X88680000Y-53320000D03*
%TO.P,U11,4,SCL*%
%TO.N,SDA_PI*%
X88680000Y-52050000D03*
%TO.P,U11,5,VS*%
%TO.N,+3V3*%
X83730000Y-52050000D03*
%TO.P,U11,6,GND*%
%TO.N,GND*%
X83730000Y-53320000D03*
%TO.P,U11,7,IN-*%
%TO.N,Net-(U11-IN-)*%
X83730000Y-54590000D03*
%TO.P,U11,8,IN+*%
%TO.N,Net-(U11-IN+)*%
X83730000Y-55860000D03*
%TD*%
D26*
%TO.P,R96,1*%
%TO.N,Net-(Q10-G)*%
X123937500Y-118400000D03*
%TO.P,R96,2*%
%TO.N,Net-(Q9-D)*%
X126862500Y-118400000D03*
%TD*%
D12*
%TO.P,R62,1*%
%TO.N,B7_U2*%
X121365418Y-103703186D03*
%TO.P,R62,2*%
%TO.N,Net-(Q12-G)*%
X119715418Y-103703186D03*
%TD*%
D13*
%TO.P,R93,1*%
%TO.N,Net-(U14-E)*%
X171545000Y-48327500D03*
%TO.P,R93,2*%
%TO.N,Net-(U17-O5)*%
X171545000Y-49977500D03*
%TD*%
D14*
%TO.P,C18,1*%
%TO.N,AIN3_U4*%
X88993041Y-48400000D03*
%TO.P,C18,2*%
%TO.N,GND*%
X87443041Y-48400000D03*
%TD*%
D27*
%TO.P,Q8,1,G*%
%TO.N,Net-(Q8-G)*%
X135212923Y-131712628D03*
%TO.P,Q8,2,S*%
%TO.N,GND*%
X137112923Y-131712628D03*
%TO.P,Q8,3,D*%
%TO.N,Net-(Q6-G)*%
X136162923Y-129837628D03*
%TD*%
D28*
%TO.P,K8,1*%
%TO.N,+5V*%
X158530000Y-109635000D03*
%TO.P,K8,2*%
%TO.N,unconnected-(K8-Pad2)*%
X158530000Y-112835000D03*
%TO.P,K8,3*%
%TO.N,Net-(J5-Pad3)*%
X158530000Y-115035000D03*
%TO.P,K8,4*%
%TO.N,Net-(J4-Pad3)*%
X158530000Y-117235000D03*
%TO.P,K8,5*%
%TO.N,Net-(J4-Pad4)*%
X165530000Y-117235000D03*
%TO.P,K8,6*%
%TO.N,Net-(J5-Pad4)*%
X165530000Y-115035000D03*
%TO.P,K8,7*%
%TO.N,unconnected-(K8-Pad7)*%
X165530000Y-112835000D03*
%TO.P,K8,8*%
%TO.N,B5_U3_U12*%
X165530000Y-109635000D03*
%TD*%
D29*
%TO.P,R14,1*%
%TO.N,TP5*%
X97877316Y-51391728D03*
%TO.P,R14,2*%
%TO.N,AIN2_U4*%
X97877316Y-49741728D03*
%TD*%
D30*
%TO.P,Q2,1,G*%
%TO.N,Net-(Q2-G)*%
X98345000Y-100609639D03*
%TO.P,Q2,2,S*%
%TO.N,GND*%
X98345000Y-98709639D03*
%TO.P,Q2,3,D*%
%TO.N,Net-(Q2-D)*%
X96470000Y-99659639D03*
%TD*%
D13*
%TO.P,R83,1*%
%TO.N,Net-(U15-C)*%
X156715000Y-52075000D03*
%TO.P,R83,2*%
%TO.N,Net-(U16-O3)*%
X156715000Y-53725000D03*
%TD*%
D12*
%TO.P,R54,1*%
%TO.N,Net-(C28-Pad1)*%
X122739435Y-97295983D03*
%TO.P,R54,2*%
%TO.N,A0_U2*%
X121089435Y-97295983D03*
%TD*%
D13*
%TO.P,R50,1*%
%TO.N,TP11*%
X142969158Y-130606229D03*
%TO.P,R50,2*%
%TO.N,Net-(C26-Pad1)*%
X142969158Y-132256229D03*
%TD*%
D31*
%TO.P,C14,1*%
%TO.N,#ADAPTER_CLOSED*%
X177180000Y-74250000D03*
%TO.P,C14,2*%
%TO.N,GND*%
X178730000Y-74250000D03*
%TD*%
D28*
%TO.P,K1,1*%
%TO.N,+5V*%
X115700000Y-114400000D03*
%TO.P,K1,2*%
%TO.N,Net-(Q6-D)*%
X115700000Y-111200000D03*
%TO.P,K1,3*%
%TO.N,TP6*%
X115700000Y-109000000D03*
%TO.P,K1,4*%
%TO.N,Net-(Q5-D)*%
X115700000Y-106800000D03*
%TO.P,K1,5*%
%TO.N,Net-(Q10-D)*%
X108700000Y-106800000D03*
%TO.P,K1,6*%
%TO.N,TP7*%
X108700000Y-109000000D03*
%TO.P,K1,7*%
%TO.N,unconnected-(K1-Pad7)*%
X108700000Y-111200000D03*
%TO.P,K1,8*%
%TO.N,B5_U2_U12*%
X108700000Y-114400000D03*
%TD*%
D11*
%TO.P,R2,1*%
%TO.N,+3V3*%
X145058789Y-71150491D03*
%TO.P,R2,2*%
%TO.N,SCL_PI*%
X146708789Y-71150491D03*
%TD*%
D13*
%TO.P,R19,1*%
%TO.N,AIN0_U5*%
X98995753Y-64564082D03*
%TO.P,R19,2*%
%TO.N,GND*%
X98995753Y-66214082D03*
%TD*%
%TO.P,R89,1*%
%TO.N,Net-(U14-D)*%
X170045000Y-51827500D03*
%TO.P,R89,2*%
%TO.N,Net-(U17-O4)*%
X170045000Y-53477500D03*
%TD*%
D32*
%TO.P,J2,1,Pin_1*%
%TO.N,TP1*%
X78860000Y-68210000D03*
D33*
%TO.P,J2,2,Pin_2*%
%TO.N,TP2*%
X81400000Y-68210000D03*
%TO.P,J2,3,Pin_3*%
%TO.N,TP3*%
X78860000Y-70750000D03*
%TO.P,J2,4,Pin_4*%
%TO.N,TP5*%
X81400000Y-70750000D03*
%TO.P,J2,5,Pin_5*%
%TO.N,TP4*%
X78860000Y-73290000D03*
%TO.P,J2,6,Pin_6*%
%TO.N,TP10*%
X81400000Y-73290000D03*
%TO.P,J2,7,Pin_7*%
%TO.N,TP_GPIO36*%
X78860000Y-75830000D03*
%TO.P,J2,8,Pin_8*%
%TO.N,TP8*%
X81400000Y-75830000D03*
%TO.P,J2,9,Pin_9*%
%TO.N,TP9*%
X78860000Y-78370000D03*
%TO.P,J2,10,Pin_10*%
%TO.N,TP7*%
X81400000Y-78370000D03*
%TO.P,J2,11,Pin_11*%
%TO.N,TP24*%
X78860000Y-80910000D03*
%TO.P,J2,12,Pin_12*%
%TO.N,TP6*%
X81400000Y-80910000D03*
%TO.P,J2,13,Pin_13*%
%TO.N,TP13*%
X78860000Y-83450000D03*
%TO.P,J2,14,Pin_14*%
%TO.N,TP14*%
X81400000Y-83450000D03*
%TO.P,J2,15,Pin_15*%
%TO.N,TP15*%
X78860000Y-85990000D03*
%TO.P,J2,16,Pin_16*%
%TO.N,TP16*%
X81400000Y-85990000D03*
%TO.P,J2,17,Pin_17*%
%TO.N,TP17*%
X78860000Y-88530000D03*
%TO.P,J2,18,Pin_18*%
%TO.N,TP18*%
X81400000Y-88530000D03*
%TO.P,J2,19,Pin_19*%
%TO.N,TP19*%
X78860000Y-91070000D03*
%TO.P,J2,20,Pin_20*%
%TO.N,TP20*%
X81400000Y-91070000D03*
%TO.P,J2,21,Pin_21*%
%TO.N,TP21*%
X78860000Y-93610000D03*
%TO.P,J2,22,Pin_22*%
%TO.N,TP22*%
X81400000Y-93610000D03*
%TO.P,J2,23,Pin_23*%
%TO.N,TP23*%
X78860000Y-96150000D03*
%TO.P,J2,24,Pin_24*%
%TO.N,TP11*%
X81400000Y-96150000D03*
%TO.P,J2,25,Pin_25*%
%TO.N,TP_GPIO32*%
X78860000Y-98690000D03*
%TO.P,J2,26,Pin_26*%
%TO.N,TP_GPIO16*%
X81400000Y-98690000D03*
%TO.P,J2,27,Pin_27*%
%TO.N,unconnected-(J2-Pin_27-Pad27)*%
X78860000Y-101230000D03*
%TO.P,J2,28,Pin_28*%
%TO.N,TP12*%
X81400000Y-101230000D03*
%TD*%
D29*
%TO.P,R78,1*%
%TO.N,LED_BAD*%
X117762573Y-85742289D03*
%TO.P,R78,2*%
%TO.N,Net-(Q19-G)*%
X117762573Y-84092289D03*
%TD*%
D34*
%TO.P,Q5,1,G*%
%TO.N,Net-(Q5-G)*%
X109400000Y-117792500D03*
D35*
%TO.P,Q5,2,D*%
%TO.N,Net-(Q5-D)*%
X115700000Y-120072500D03*
D34*
%TO.P,Q5,3,S*%
%TO.N,60V*%
X109400000Y-122352500D03*
%TD*%
D11*
%TO.P,R56,1*%
%TO.N,Net-(C29-Pad1)*%
X119743579Y-100460261D03*
%TO.P,R56,2*%
%TO.N,A1_U2*%
X121393579Y-100460261D03*
%TD*%
D30*
%TO.P,Q3,1,G*%
%TO.N,Net-(Q3-G)*%
X89312500Y-94350000D03*
%TO.P,Q3,2,S*%
%TO.N,GND*%
X89312500Y-92450000D03*
%TO.P,Q3,3,D*%
%TO.N,Net-(Q3-D)*%
X87437500Y-93400000D03*
%TD*%
D11*
%TO.P,R95,1*%
%TO.N,+3V3*%
X184975000Y-78000000D03*
%TO.P,R95,2*%
%TO.N,Net-(U1-GPIO26)*%
X186625000Y-78000000D03*
%TD*%
D24*
%TO.P,Q19,1,G*%
%TO.N,Net-(Q19-G)*%
X119826735Y-83987268D03*
%TO.P,Q19,2,S*%
%TO.N,GND*%
X119826735Y-85887268D03*
%TO.P,Q19,3,D*%
%TO.N,Net-(D4-K)*%
X121701735Y-84937268D03*
%TD*%
D36*
%TO.P,Q14,1,G*%
%TO.N,Net-(Q14-G)*%
X82950000Y-106462500D03*
%TO.P,Q14,2,S*%
%TO.N,TP1*%
X81050000Y-106462500D03*
%TO.P,Q14,3,D*%
%TO.N,TP23*%
X82000000Y-108337500D03*
%TD*%
D28*
%TO.P,K3,1*%
%TO.N,+5V*%
X153690857Y-89619229D03*
%TO.P,K3,2*%
%TO.N,unconnected-(K3-Pad2)*%
X153690857Y-86419229D03*
%TO.P,K3,3*%
%TO.N,TP15*%
X153690857Y-84219229D03*
%TO.P,K3,4*%
%TO.N,Net-(J3-Pin_3)*%
X153690857Y-82019229D03*
%TO.P,K3,5*%
%TO.N,Net-(J3-Pin_4)*%
X146690857Y-82019229D03*
%TO.P,K3,6*%
%TO.N,TP14*%
X146690857Y-84219229D03*
%TO.P,K3,7*%
%TO.N,unconnected-(K3-Pad7)*%
X146690857Y-86419229D03*
%TO.P,K3,8*%
%TO.N,A7_U2_U12*%
X146690857Y-89619229D03*
%TD*%
D37*
%TO.P,U4,1,ADDR*%
%TO.N,GND*%
X92577953Y-57521795D03*
%TO.P,U4,2,ALERT/RDY*%
%TO.N,unconnected-(U4-ALERT{slash}RDY-Pad2)*%
X93077953Y-57521795D03*
%TO.P,U4,3,GND*%
%TO.N,GND*%
X93577953Y-57521795D03*
%TO.P,U4,4,AIN0*%
%TO.N,AIN0_U4*%
X94077953Y-57521795D03*
%TO.P,U4,5,AIN1*%
%TO.N,AIN1_U4*%
X94577953Y-57521795D03*
%TO.P,U4,6,AIN2*%
%TO.N,AIN2_U4*%
X94577953Y-53221795D03*
%TO.P,U4,7,AIN3*%
%TO.N,AIN3_U4*%
X94077953Y-53221795D03*
%TO.P,U4,8,VDD*%
%TO.N,+3V3*%
X93577953Y-53221795D03*
%TO.P,U4,9,SDA*%
%TO.N,SDA_PI*%
X93077953Y-53221795D03*
%TO.P,U4,10,SCL*%
%TO.N,SCL_PI*%
X92577953Y-53221795D03*
%TD*%
D12*
%TO.P,R33,1*%
%TO.N,B0_U2*%
X102120000Y-100459639D03*
%TO.P,R33,2*%
%TO.N,Net-(Q2-G)*%
X100470000Y-100459639D03*
%TD*%
D13*
%TO.P,R44,1*%
%TO.N,+12V*%
X135837923Y-125910128D03*
%TO.P,R44,2*%
%TO.N,Net-(Q6-G)*%
X135837923Y-127560128D03*
%TD*%
%TO.P,R64,1*%
%TO.N,A5_U2*%
X84875494Y-106156204D03*
%TO.P,R64,2*%
%TO.N,Net-(Q14-G)*%
X84875494Y-107806204D03*
%TD*%
D30*
%TO.P,Q7,1,G*%
%TO.N,Net-(Q7-G)*%
X130337500Y-113550000D03*
%TO.P,Q7,2,S*%
%TO.N,GND*%
X130337500Y-111650000D03*
%TO.P,Q7,3,D*%
%TO.N,Net-(Q7-D)*%
X128462500Y-112600000D03*
%TD*%
D29*
%TO.P,R13,1*%
%TO.N,AIN1_U4*%
X94326649Y-65200000D03*
%TO.P,R13,2*%
%TO.N,GND*%
X94326649Y-63550000D03*
%TD*%
D11*
%TO.P,R53,1*%
%TO.N,TP20*%
X121073959Y-95722257D03*
%TO.P,R53,2*%
%TO.N,Net-(C28-Pad1)*%
X122723959Y-95722257D03*
%TD*%
D38*
%TO.P,D3,1,K*%
%TO.N,Net-(D3-K)*%
X124800000Y-77450000D03*
D39*
%TO.P,D3,2,A*%
%TO.N,Net-(D3-A)*%
X127340000Y-77450000D03*
%TD*%
D11*
%TO.P,R1,1*%
%TO.N,+3V3*%
X141880000Y-71140000D03*
%TO.P,R1,2*%
%TO.N,SDA_PI*%
X143530000Y-71140000D03*
%TD*%
D40*
%TO.P,U3,1,GPB0*%
%TO.N,B0_U3*%
X195854170Y-93924543D03*
%TO.P,U3,2,GPB1*%
%TO.N,B1_U3*%
X194584170Y-93924543D03*
%TO.P,U3,3,GPB2*%
%TO.N,B2_U3*%
X193314170Y-93924543D03*
%TO.P,U3,4,GPB3*%
%TO.N,B3_U3*%
X192044170Y-93924543D03*
%TO.P,U3,5,GPB4*%
%TO.N,B4_U3*%
X190774170Y-93924543D03*
%TO.P,U3,6,GPB5*%
%TO.N,B5_U3*%
X189504170Y-93924543D03*
%TO.P,U3,7,GPB6*%
%TO.N,B6_U3*%
X188234170Y-93924543D03*
%TO.P,U3,8,GPB7*%
%TO.N,unconnected-(U3-GPB7-Pad8)*%
X186964170Y-93924543D03*
%TO.P,U3,9,VDD*%
%TO.N,+3V3*%
X185694170Y-93924543D03*
%TO.P,U3,10,VSS*%
%TO.N,GND*%
X184424170Y-93924543D03*
%TO.P,U3,11,NC*%
%TO.N,unconnected-(U3-NC-Pad11)*%
X183154170Y-93924543D03*
%TO.P,U3,12,SCK*%
%TO.N,SCL_PI*%
X181884170Y-93924543D03*
%TO.P,U3,13,SDA*%
%TO.N,SDA_PI*%
X180614170Y-93924543D03*
%TO.P,U3,14,NC*%
%TO.N,unconnected-(U3-NC-Pad14)*%
X179344170Y-93924543D03*
%TO.P,U3,15,A0*%
%TO.N,Net-(U3-A0)*%
X179344170Y-103224543D03*
%TO.P,U3,16,A1*%
%TO.N,GND*%
X180614170Y-103224543D03*
%TO.P,U3,17,A2*%
X181884170Y-103224543D03*
%TO.P,U3,18,~{RESET}*%
%TO.N,MCP23017_#RESET*%
X183154170Y-103224543D03*
%TO.P,U3,19,INTB*%
%TO.N,unconnected-(U3-INTB-Pad19)*%
X184424170Y-103224543D03*
%TO.P,U3,20,INTA*%
%TO.N,unconnected-(U3-INTA-Pad20)*%
X185694170Y-103224543D03*
%TO.P,U3,21,GPA0*%
%TO.N,unconnected-(U3-GPA0-Pad21)*%
X186964170Y-103224543D03*
%TO.P,U3,22,GPA1*%
%TO.N,unconnected-(U3-GPA1-Pad22)*%
X188234170Y-103224543D03*
%TO.P,U3,23,GPA2*%
%TO.N,unconnected-(U3-GPA2-Pad23)*%
X189504170Y-103224543D03*
%TO.P,U3,24,GPA3*%
%TO.N,unconnected-(U3-GPA3-Pad24)*%
X190774170Y-103224543D03*
%TO.P,U3,25,GPA4*%
%TO.N,unconnected-(U3-GPA4-Pad25)*%
X192044170Y-103224543D03*
%TO.P,U3,26,GPA5*%
%TO.N,unconnected-(U3-GPA5-Pad26)*%
X193314170Y-103224543D03*
%TO.P,U3,27,GPA6*%
%TO.N,unconnected-(U3-GPA6-Pad27)*%
X194584170Y-103224543D03*
%TO.P,U3,28,GPA7*%
%TO.N,unconnected-(U3-GPA7-Pad28)*%
X195854170Y-103224543D03*
%TD*%
D13*
%TO.P,R28,1*%
%TO.N,AIN1_U6*%
X117600000Y-63000000D03*
%TO.P,R28,2*%
%TO.N,GND*%
X117600000Y-64650000D03*
%TD*%
%TO.P,R60,1*%
%TO.N,TP21*%
X125986450Y-62530388D03*
%TO.P,R60,2*%
%TO.N,AIN0_U7*%
X125986450Y-64180388D03*
%TD*%
D12*
%TO.P,R72,1*%
%TO.N,B2_U3*%
X94066806Y-107668734D03*
%TO.P,R72,2*%
%TO.N,Net-(Q16-G)*%
X92416806Y-107668734D03*
%TD*%
D41*
%TO.P,C33,1*%
%TO.N,+3V3*%
X117449499Y-90734977D03*
%TO.P,C33,2*%
%TO.N,GND*%
X117449499Y-92284977D03*
%TD*%
D31*
%TO.P,C22,1*%
%TO.N,AIN3_U5*%
X106084277Y-47850886D03*
%TO.P,C22,2*%
%TO.N,GND*%
X107634277Y-47850886D03*
%TD*%
D23*
%TO.P,R36,1*%
%TO.N,Net-(R34-Pad2)*%
X93200000Y-78041037D03*
%TO.P,R36,2*%
%TO.N,Net-(R36-Pad2)*%
X87400000Y-78041037D03*
%TD*%
D13*
%TO.P,R81,1*%
%TO.N,Net-(U15-A)*%
X153445000Y-52075000D03*
%TO.P,R81,2*%
%TO.N,Net-(U16-O1)*%
X153445000Y-53725000D03*
%TD*%
D11*
%TO.P,R49,1*%
%TO.N,TP12*%
X139575000Y-123650000D03*
%TO.P,R49,2*%
%TO.N,Net-(C27-Pad1)*%
X141225000Y-123650000D03*
%TD*%
D41*
%TO.P,C19,1*%
%TO.N,AIN0_U5*%
X100600000Y-64600000D03*
%TO.P,C19,2*%
%TO.N,GND*%
X100600000Y-66150000D03*
%TD*%
%TO.P,C24,1*%
%TO.N,AIN1_U6*%
X119183597Y-63040914D03*
%TO.P,C24,2*%
%TO.N,GND*%
X119183597Y-64590914D03*
%TD*%
D14*
%TO.P,C4,1*%
%TO.N,+3V3*%
X102312135Y-51175940D03*
%TO.P,C4,2*%
%TO.N,GND*%
X100762135Y-51175940D03*
%TD*%
D12*
%TO.P,R17,1*%
%TO.N,AIN3_U4*%
X89017041Y-46815375D03*
%TO.P,R17,2*%
%TO.N,GND*%
X87367041Y-46815375D03*
%TD*%
D14*
%TO.P,C31,1*%
%TO.N,AIN0_U7*%
X124424132Y-64248982D03*
%TO.P,C31,2*%
%TO.N,GND*%
X122874132Y-64248982D03*
%TD*%
D13*
%TO.P,R68,1*%
%TO.N,ESP_EN_PI*%
X166000000Y-77775000D03*
%TO.P,R68,2*%
%TO.N,Net-(J3-Pin_1)*%
X166000000Y-79425000D03*
%TD*%
D11*
%TO.P,R65,1*%
%TO.N,ESP_RXD_PI*%
X145575000Y-77600000D03*
%TO.P,R65,2*%
%TO.N,Net-(J3-Pin_4)*%
X147225000Y-77600000D03*
%TD*%
D37*
%TO.P,U6,1,ADDR*%
%TO.N,SDA_PI*%
X114880000Y-58350000D03*
%TO.P,U6,2,ALERT/RDY*%
%TO.N,unconnected-(U6-ALERT{slash}RDY-Pad2)*%
X115380000Y-58350000D03*
%TO.P,U6,3,GND*%
%TO.N,GND*%
X115880000Y-58350000D03*
%TO.P,U6,4,AIN0*%
%TO.N,AIN0_U6*%
X116380000Y-58350000D03*
%TO.P,U6,5,AIN1*%
%TO.N,AIN1_U6*%
X116880000Y-58350000D03*
%TO.P,U6,6,AIN2*%
%TO.N,AIN2_U6*%
X116880000Y-54050000D03*
%TO.P,U6,7,AIN3*%
%TO.N,AIN3_U6*%
X116380000Y-54050000D03*
%TO.P,U6,8,VDD*%
%TO.N,+3V3*%
X115880000Y-54050000D03*
%TO.P,U6,9,SDA*%
%TO.N,SDA_PI*%
X115380000Y-54050000D03*
%TO.P,U6,10,SCL*%
%TO.N,SCL_PI*%
X114880000Y-54050000D03*
%TD*%
D42*
%TO.P,C16,1*%
%TO.N,AIN1_U4*%
X92750644Y-65150644D03*
%TO.P,C16,2*%
%TO.N,GND*%
X92750644Y-63600644D03*
%TD*%
D41*
%TO.P,C13,1*%
%TO.N,+3V3*%
X81530000Y-52040000D03*
%TO.P,C13,2*%
%TO.N,GND*%
X81530000Y-53590000D03*
%TD*%
D30*
%TO.P,Q9,1,G*%
%TO.N,Net-(Q9-G)*%
X130937500Y-119350000D03*
%TO.P,Q9,2,S*%
%TO.N,GND*%
X130937500Y-117450000D03*
%TO.P,Q9,3,D*%
%TO.N,Net-(Q9-D)*%
X129062500Y-118400000D03*
%TD*%
D43*
%TO.P,K5,1*%
%TO.N,+5V*%
X169530000Y-96250000D03*
%TO.P,K5,2*%
%TO.N,unconnected-(K5-Pad2)*%
X166330000Y-96250000D03*
%TO.P,K5,3*%
%TO.N,TP17*%
X164130000Y-96250000D03*
%TO.P,K5,4*%
%TO.N,Net-(K5-Pad4)*%
X161930000Y-96250000D03*
%TO.P,K5,5*%
%TO.N,unconnected-(K5-Pad5)*%
X161930000Y-103250000D03*
%TO.P,K5,6*%
%TO.N,unconnected-(K5-Pad6)*%
X164130000Y-103250000D03*
%TO.P,K5,7*%
%TO.N,unconnected-(K5-Pad7)*%
X166330000Y-103250000D03*
%TO.P,K5,8*%
%TO.N,B0_U3_U12*%
X169530000Y-103250000D03*
%TD*%
D21*
%TO.P,R3,1*%
%TO.N,Net-(U10-0V)*%
X104730000Y-120525000D03*
%TO.P,R3,2*%
%TO.N,+12V*%
X104730000Y-123450000D03*
%TD*%
D44*
%TO.P,F1,1*%
%TO.N,Net-(J1-Pin_1)*%
X139800000Y-57112500D03*
%TO.P,F1,2*%
%TO.N,Net-(D1-A2)*%
X139800000Y-60237500D03*
%TD*%
D45*
%TO.P,D2,1,DO*%
%TO.N,Net-(D2-DO)*%
X113803380Y-88000000D03*
%TO.P,D2,2,GND*%
%TO.N,GND*%
X113803380Y-89100000D03*
%TO.P,D2,3,DI*%
%TO.N,Net-(D2-DI)*%
X115633380Y-89100000D03*
%TO.P,D2,4,VDD*%
%TO.N,Net-(D2-VDD)*%
X115633380Y-88000000D03*
%TD*%
D13*
%TO.P,R26,1*%
%TO.N,AIN0_U6*%
X113041066Y-63943922D03*
%TO.P,R26,2*%
%TO.N,GND*%
X113041066Y-65593922D03*
%TD*%
%TO.P,R92,1*%
%TO.N,Net-(U14-C)*%
X168545000Y-48327500D03*
%TO.P,R92,2*%
%TO.N,Net-(U17-O3)*%
X168545000Y-49977500D03*
%TD*%
D23*
%TO.P,R38,1*%
%TO.N,Net-(R37-Pad2)*%
X93200000Y-88021037D03*
%TO.P,R38,2*%
%TO.N,Net-(Q3-D)*%
X87400000Y-88021037D03*
%TD*%
D13*
%TO.P,R46,1*%
%TO.N,B4_U2*%
X135800000Y-122550000D03*
%TO.P,R46,2*%
%TO.N,Net-(Q8-G)*%
X135800000Y-124200000D03*
%TD*%
%TO.P,R67,1*%
%TO.N,ESP_BOOT_PI*%
X159000000Y-77775000D03*
%TO.P,R67,2*%
%TO.N,Net-(J3-Pin_2)*%
X159000000Y-79425000D03*
%TD*%
D28*
%TO.P,K10,1*%
%TO.N,+5V*%
X182330000Y-109650000D03*
%TO.P,K10,2*%
%TO.N,unconnected-(K10-Pad2)*%
X182330000Y-112850000D03*
%TO.P,K10,3*%
%TO.N,Net-(J5-Pad7)*%
X182330000Y-115050000D03*
%TO.P,K10,4*%
%TO.N,Net-(J4-Pad7)*%
X182330000Y-117250000D03*
%TO.P,K10,5*%
%TO.N,Net-(J4-Pad8)*%
X189330000Y-117250000D03*
%TO.P,K10,6*%
%TO.N,Net-(J5-Pad8)*%
X189330000Y-115050000D03*
%TO.P,K10,7*%
%TO.N,unconnected-(K10-Pad7)*%
X189330000Y-112850000D03*
%TO.P,K10,8*%
%TO.N,B5_U3_U12*%
X189330000Y-109650000D03*
%TD*%
D14*
%TO.P,C5,1*%
%TO.N,+3V3*%
X115375000Y-52200000D03*
%TO.P,C5,2*%
%TO.N,GND*%
X113825000Y-52200000D03*
%TD*%
D30*
%TO.P,Q4,1,G*%
%TO.N,Net-(Q4-G)*%
X98754367Y-94334005D03*
%TO.P,Q4,2,S*%
%TO.N,GND*%
X98754367Y-92434005D03*
%TO.P,Q4,3,D*%
%TO.N,Net-(Q4-D)*%
X96879367Y-93384005D03*
%TD*%
D12*
%TO.P,R51,1*%
%TO.N,Net-(C26-Pad1)*%
X141425000Y-130600000D03*
%TO.P,R51,2*%
%TO.N,B6_U2*%
X139775000Y-130600000D03*
%TD*%
D42*
%TO.P,C27,1*%
%TO.N,Net-(C27-Pad1)*%
X142752105Y-125227270D03*
%TO.P,C27,2*%
%TO.N,GND*%
X142752105Y-123677270D03*
%TD*%
D24*
%TO.P,Q18,1,G*%
%TO.N,Net-(Q18-G)*%
X119725000Y-76427273D03*
%TO.P,Q18,2,S*%
%TO.N,GND*%
X119725000Y-78327273D03*
%TO.P,Q18,3,D*%
%TO.N,Net-(D3-K)*%
X121600000Y-77377273D03*
%TD*%
D13*
%TO.P,R82,1*%
%TO.N,Net-(U15-B)*%
X155215000Y-48825000D03*
%TO.P,R82,2*%
%TO.N,Net-(U16-O2)*%
X155215000Y-50475000D03*
%TD*%
D24*
%TO.P,Q11,1,G*%
%TO.N,Net-(Q11-G)*%
X116651325Y-95250000D03*
%TO.P,Q11,2,S*%
%TO.N,GND*%
X116651325Y-97150000D03*
%TO.P,Q11,3,D*%
%TO.N,TP20*%
X118526325Y-96200000D03*
%TD*%
D42*
%TO.P,C21,1*%
%TO.N,AIN2_U5*%
X113565546Y-50598533D03*
%TO.P,C21,2*%
%TO.N,GND*%
X113565546Y-49048533D03*
%TD*%
D29*
%TO.P,R76,1*%
%TO.N,AIN2_U5*%
X112000000Y-50650000D03*
%TO.P,R76,2*%
%TO.N,TP9*%
X112000000Y-49000000D03*
%TD*%
D22*
%TO.P,C7,1*%
%TO.N,+5V*%
X77830000Y-113150000D03*
%TO.P,C7,2*%
%TO.N,GND*%
X77830000Y-115050000D03*
%TD*%
D34*
%TO.P,Q6,1,G*%
%TO.N,Net-(Q6-G)*%
X122425000Y-126445000D03*
D35*
%TO.P,Q6,2,D*%
%TO.N,Net-(Q6-D)*%
X128725000Y-128725000D03*
D34*
%TO.P,Q6,3,S*%
%TO.N,+12V*%
X122425000Y-131005000D03*
%TD*%
D26*
%TO.P,R97,1*%
%TO.N,Net-(Q5-G)*%
X123337500Y-112600000D03*
%TO.P,R97,2*%
%TO.N,Net-(Q7-D)*%
X126262500Y-112600000D03*
%TD*%
D46*
%TO.P,J4,1,1*%
%TO.N,Net-(J4-Pad1)*%
X172570000Y-125500000D03*
D47*
%TO.P,J4,2,2*%
%TO.N,Net-(J4-Pad2)*%
X173840000Y-122960000D03*
%TO.P,J4,3,3*%
%TO.N,Net-(J4-Pad3)*%
X175110000Y-125500000D03*
%TO.P,J4,4,4*%
%TO.N,Net-(J4-Pad4)*%
X176380000Y-122960000D03*
%TO.P,J4,5,5*%
%TO.N,Net-(J4-Pad5)*%
X177650000Y-125500000D03*
%TO.P,J4,6,6*%
%TO.N,Net-(J4-Pad6)*%
X178920000Y-122960000D03*
%TO.P,J4,7,7*%
%TO.N,Net-(J4-Pad7)*%
X180190000Y-125500000D03*
%TO.P,J4,8,8*%
%TO.N,Net-(J4-Pad8)*%
X181460000Y-122960000D03*
%TD*%
D41*
%TO.P,C25,1*%
%TO.N,AIN2_U6*%
X126409444Y-49344010D03*
%TO.P,C25,2*%
%TO.N,GND*%
X126409444Y-50894010D03*
%TD*%
D12*
%TO.P,R61,1*%
%TO.N,AIN0_U7*%
X124450000Y-62600000D03*
%TO.P,R61,2*%
%TO.N,GND*%
X122800000Y-62600000D03*
%TD*%
D13*
%TO.P,R85,1*%
%TO.N,Net-(U15-E)*%
X159715000Y-52075000D03*
%TO.P,R85,2*%
%TO.N,Net-(U16-O5)*%
X159715000Y-53725000D03*
%TD*%
D48*
%TO.P,U13,1*%
%TO.N,GND*%
X113768380Y-90600000D03*
%TO.P,U13,2*%
%TO.N,SDA_PI*%
X113768380Y-91300000D03*
D49*
%TO.P,U13,3*%
%TO.N,SCL_PI*%
X115618380Y-91300000D03*
D48*
%TO.P,U13,4*%
%TO.N,+3V3*%
X115668380Y-90600000D03*
%TD*%
D29*
%TO.P,R20,1*%
%TO.N,TP8*%
X104033421Y-66006579D03*
%TO.P,R20,2*%
%TO.N,AIN1_U5*%
X104033421Y-64356579D03*
%TD*%
D38*
%TO.P,D4,1,K*%
%TO.N,Net-(D4-K)*%
X124800000Y-85950000D03*
D39*
%TO.P,D4,2,A*%
%TO.N,Net-(D4-A)*%
X127340000Y-85950000D03*
%TD*%
D28*
%TO.P,K4,1*%
%TO.N,+5V*%
X165963125Y-89612587D03*
%TO.P,K4,2*%
%TO.N,unconnected-(K4-Pad2)*%
X165963125Y-86412587D03*
%TO.P,K4,3*%
%TO.N,TP13*%
X165963125Y-84212587D03*
%TO.P,K4,4*%
%TO.N,Net-(J3-Pin_1)*%
X165963125Y-82012587D03*
%TO.P,K4,5*%
%TO.N,Net-(J3-Pin_2)*%
X158963125Y-82012587D03*
%TO.P,K4,6*%
%TO.N,TP16*%
X158963125Y-84212587D03*
%TO.P,K4,7*%
%TO.N,unconnected-(K4-Pad7)*%
X158963125Y-86412587D03*
%TO.P,K4,8*%
%TO.N,A7_U2_U12*%
X158963125Y-89612587D03*
%TD*%
D37*
%TO.P,U7,1,ADDR*%
%TO.N,SCL_PI*%
X123200000Y-58950000D03*
%TO.P,U7,2,ALERT/RDY*%
%TO.N,unconnected-(U7-ALERT{slash}RDY-Pad2)*%
X123700000Y-58950000D03*
%TO.P,U7,3,GND*%
%TO.N,GND*%
X124200000Y-58950000D03*
%TO.P,U7,4,AIN0*%
%TO.N,AIN0_U7*%
X124700000Y-58950000D03*
%TO.P,U7,5,AIN1*%
%TO.N,unconnected-(U7-AIN1-Pad5)*%
X125200000Y-58950000D03*
%TO.P,U7,6,AIN2*%
%TO.N,unconnected-(U7-AIN2-Pad6)*%
X125200000Y-54650000D03*
%TO.P,U7,7,AIN3*%
%TO.N,unconnected-(U7-AIN3-Pad7)*%
X124700000Y-54650000D03*
%TO.P,U7,8,VDD*%
%TO.N,+3V3*%
X124200000Y-54650000D03*
%TO.P,U7,9,SDA*%
%TO.N,SDA_PI*%
X123700000Y-54650000D03*
%TO.P,U7,10,SCL*%
%TO.N,SCL_PI*%
X123200000Y-54650000D03*
%TD*%
D28*
%TO.P,K7,1*%
%TO.N,+5V*%
X146930000Y-109635000D03*
%TO.P,K7,2*%
%TO.N,unconnected-(K7-Pad2)*%
X146930000Y-112835000D03*
%TO.P,K7,3*%
%TO.N,Net-(J5-Pad1)*%
X146930000Y-115035000D03*
%TO.P,K7,4*%
%TO.N,Net-(J4-Pad1)*%
X146930000Y-117235000D03*
%TO.P,K7,5*%
%TO.N,Net-(J4-Pad2)*%
X153930000Y-117235000D03*
%TO.P,K7,6*%
%TO.N,Net-(J5-Pad2)*%
X153930000Y-115035000D03*
%TO.P,K7,7*%
%TO.N,unconnected-(K7-Pad7)*%
X153930000Y-112835000D03*
%TO.P,K7,8*%
%TO.N,B5_U3_U12*%
X153930000Y-109635000D03*
%TD*%
D50*
%TO.P,D1,1,A1*%
%TO.N,GND*%
X135800000Y-57125000D03*
%TO.P,D1,2,A2*%
%TO.N,Net-(D1-A2)*%
X135800000Y-61425000D03*
%TD*%
D22*
%TO.P,C11,1*%
%TO.N,+5V*%
X77630000Y-129850000D03*
%TO.P,C11,2*%
%TO.N,GND*%
X77630000Y-131750000D03*
%TD*%
D11*
%TO.P,R7,1*%
%TO.N,+3V3*%
X173950168Y-75933088D03*
%TO.P,R7,2*%
%TO.N,#ADAPTER_CLOSED*%
X175600168Y-75933088D03*
%TD*%
D28*
%TO.P,K9,1*%
%TO.N,+5V*%
X170530000Y-109650000D03*
%TO.P,K9,2*%
%TO.N,unconnected-(K9-Pad2)*%
X170530000Y-112850000D03*
%TO.P,K9,3*%
%TO.N,Net-(J5-Pad5)*%
X170530000Y-115050000D03*
%TO.P,K9,4*%
%TO.N,Net-(J4-Pad5)*%
X170530000Y-117250000D03*
%TO.P,K9,5*%
%TO.N,Net-(J4-Pad6)*%
X177530000Y-117250000D03*
%TO.P,K9,6*%
%TO.N,Net-(J5-Pad6)*%
X177530000Y-115050000D03*
%TO.P,K9,7*%
%TO.N,unconnected-(K9-Pad7)*%
X177530000Y-112850000D03*
%TO.P,K9,8*%
%TO.N,B5_U3_U12*%
X177530000Y-109650000D03*
%TD*%
D34*
%TO.P,Q10,1,G*%
%TO.N,Net-(Q10-G)*%
X110175000Y-126645000D03*
D35*
%TO.P,Q10,2,D*%
%TO.N,Net-(Q10-D)*%
X116475000Y-128925000D03*
D34*
%TO.P,Q10,3,S*%
%TO.N,60V*%
X110175000Y-131205000D03*
%TD*%
D11*
%TO.P,R32,1*%
%TO.N,B1_U2*%
X87975000Y-96000000D03*
%TO.P,R32,2*%
%TO.N,Net-(Q3-G)*%
X89625000Y-96000000D03*
%TD*%
D51*
%TO.P,U12,1,I1*%
%TO.N,B5_U2*%
X194004170Y-81174543D03*
%TO.P,U12,2,I2*%
%TO.N,A6_U2*%
X192734170Y-81174543D03*
%TO.P,U12,3,I3*%
%TO.N,A7_U2*%
X191464170Y-81174543D03*
%TO.P,U12,4,I4*%
%TO.N,B0_U3*%
X190194170Y-81174543D03*
%TO.P,U12,5,I5*%
%TO.N,B4_U3*%
X188924170Y-81174543D03*
%TO.P,U12,6,I6*%
%TO.N,B5_U3*%
X187654170Y-81174543D03*
%TO.P,U12,7,I7*%
X186384170Y-81174543D03*
%TO.P,U12,8,GND*%
%TO.N,GND*%
X185114170Y-81174543D03*
%TO.P,U12,9,COM*%
%TO.N,+5V*%
X185114170Y-86124543D03*
%TO.P,U12,10,O7*%
%TO.N,B5_U3_U12*%
X186384170Y-86124543D03*
%TO.P,U12,11,O6*%
X187654170Y-86124543D03*
%TO.P,U12,12,O5*%
%TO.N,B4_U3_U12*%
X188924170Y-86124543D03*
%TO.P,U12,13,O4*%
%TO.N,B0_U3_U12*%
X190194170Y-86124543D03*
%TO.P,U12,14,O3*%
%TO.N,A7_U2_U12*%
X191464170Y-86124543D03*
%TO.P,U12,15,O2*%
%TO.N,A6_U2_U12*%
X192734170Y-86124543D03*
%TO.P,U12,16,O1*%
%TO.N,B5_U2_U12*%
X194004170Y-86124543D03*
%TD*%
D21*
%TO.P,R5,1*%
%TO.N,60V*%
X104730000Y-128050000D03*
%TO.P,R5,2*%
%TO.N,Net-(U10-0V)*%
X104730000Y-130975000D03*
%TD*%
D42*
%TO.P,C28,1*%
%TO.N,Net-(C28-Pad1)*%
X124253363Y-97279848D03*
%TO.P,C28,2*%
%TO.N,GND*%
X124253363Y-95729848D03*
%TD*%
D13*
%TO.P,R45,1*%
%TO.N,B3_U2*%
X129400000Y-107575000D03*
%TO.P,R45,2*%
%TO.N,Net-(Q7-G)*%
X129400000Y-109225000D03*
%TD*%
D12*
%TO.P,R79,1*%
%TO.N,Net-(D3-A)*%
X121350732Y-80135043D03*
%TO.P,R79,2*%
%TO.N,+5V*%
X119700732Y-80135043D03*
%TD*%
D37*
%TO.P,U5,1,ADDR*%
%TO.N,+3V3*%
X101880000Y-57521795D03*
%TO.P,U5,2,ALERT/RDY*%
%TO.N,unconnected-(U5-ALERT{slash}RDY-Pad2)*%
X102380000Y-57521795D03*
%TO.P,U5,3,GND*%
%TO.N,GND*%
X102880000Y-57521795D03*
%TO.P,U5,4,AIN0*%
%TO.N,AIN0_U5*%
X103380000Y-57521795D03*
%TO.P,U5,5,AIN1*%
%TO.N,AIN1_U5*%
X103880000Y-57521795D03*
%TO.P,U5,6,AIN2*%
%TO.N,AIN2_U5*%
X103880000Y-53221795D03*
%TO.P,U5,7,AIN3*%
%TO.N,AIN3_U5*%
X103380000Y-53221795D03*
%TO.P,U5,8,VDD*%
%TO.N,+3V3*%
X102880000Y-53221795D03*
%TO.P,U5,9,SDA*%
%TO.N,SDA_PI*%
X102380000Y-53221795D03*
%TO.P,U5,10,SCL*%
%TO.N,SCL_PI*%
X101880000Y-53221795D03*
%TD*%
D13*
%TO.P,R90,1*%
%TO.N,Net-(U14-F)*%
X173045000Y-51827500D03*
%TO.P,R90,2*%
%TO.N,Net-(U17-O6)*%
X173045000Y-53477500D03*
%TD*%
D29*
%TO.P,R15,1*%
%TO.N,AIN2_U4*%
X99530000Y-48174704D03*
%TO.P,R15,2*%
%TO.N,GND*%
X99530000Y-46524704D03*
%TD*%
D12*
%TO.P,R80,1*%
%TO.N,Net-(D4-A)*%
X127050000Y-81800000D03*
%TO.P,R80,2*%
%TO.N,+5V*%
X125400000Y-81800000D03*
%TD*%
D29*
%TO.P,R23,1*%
%TO.N,TP10*%
X104530000Y-49450000D03*
%TO.P,R23,2*%
%TO.N,AIN3_U5*%
X104530000Y-47800000D03*
%TD*%
D52*
%TO.P,U17,1,I1*%
%TO.N,7SEG_A_1*%
X166025000Y-61475000D03*
%TO.P,U17,2,I2*%
%TO.N,7SEG_B_1*%
X167295000Y-61475000D03*
%TO.P,U17,3,I3*%
%TO.N,7SEG_C_1*%
X168565000Y-61475000D03*
%TO.P,U17,4,I4*%
%TO.N,7SEG_D_1*%
X169835000Y-61475000D03*
%TO.P,U17,5,I5*%
%TO.N,7SEG_E_1*%
X171105000Y-61475000D03*
%TO.P,U17,6,I6*%
%TO.N,7SEG_F_1*%
X172375000Y-61475000D03*
%TO.P,U17,7,I7*%
%TO.N,7SEG_G_1*%
X173645000Y-61475000D03*
%TO.P,U17,8,GND*%
%TO.N,GND*%
X174915000Y-61475000D03*
%TO.P,U17,9,COM*%
%TO.N,unconnected-(U17-COM-Pad9)*%
X174915000Y-56525000D03*
%TO.P,U17,10,O7*%
%TO.N,Net-(U17-O7)*%
X173645000Y-56525000D03*
%TO.P,U17,11,O6*%
%TO.N,Net-(U17-O6)*%
X172375000Y-56525000D03*
%TO.P,U17,12,O5*%
%TO.N,Net-(U17-O5)*%
X171105000Y-56525000D03*
%TO.P,U17,13,O4*%
%TO.N,Net-(U17-O4)*%
X169835000Y-56525000D03*
%TO.P,U17,14,O3*%
%TO.N,Net-(U17-O3)*%
X168565000Y-56525000D03*
%TO.P,U17,15,O2*%
%TO.N,Net-(U17-O2)*%
X167295000Y-56525000D03*
%TO.P,U17,16,O1*%
%TO.N,Net-(U17-O1)*%
X166025000Y-56525000D03*
%TD*%
D13*
%TO.P,R59,1*%
%TO.N,AIN3_U6*%
X118200000Y-47750000D03*
%TO.P,R59,2*%
%TO.N,GND*%
X118200000Y-49400000D03*
%TD*%
D29*
%TO.P,R57,1*%
%TO.N,A2_U2*%
X114651325Y-97075000D03*
%TO.P,R57,2*%
%TO.N,Net-(Q11-G)*%
X114651325Y-95425000D03*
%TD*%
D14*
%TO.P,C26,1*%
%TO.N,Net-(C26-Pad1)*%
X141379124Y-132192453D03*
%TO.P,C26,2*%
%TO.N,GND*%
X139829124Y-132192453D03*
%TD*%
D13*
%TO.P,R55,1*%
%TO.N,TP21*%
X118270076Y-100424735D03*
%TO.P,R55,2*%
%TO.N,Net-(C29-Pad1)*%
X118270076Y-102074735D03*
%TD*%
D31*
%TO.P,C20,1*%
%TO.N,AIN1_U5*%
X105621794Y-66006760D03*
%TO.P,C20,2*%
%TO.N,GND*%
X107171794Y-66006760D03*
%TD*%
D13*
%TO.P,R86,1*%
%TO.N,Net-(U15-F)*%
X161215000Y-48825000D03*
%TO.P,R86,2*%
%TO.N,Net-(U16-O6)*%
X161215000Y-50475000D03*
%TD*%
D41*
%TO.P,C32,1*%
%TO.N,Net-(D2-VDD)*%
X117444660Y-87593429D03*
%TO.P,C32,2*%
%TO.N,GND*%
X117444660Y-89143429D03*
%TD*%
D24*
%TO.P,Q17,1,G*%
%TO.N,Net-(Q17-G)*%
X139438181Y-75072805D03*
%TO.P,Q17,2,S*%
%TO.N,GND*%
X139438181Y-76972805D03*
%TO.P,Q17,3,D*%
%TO.N,TP_GPIO36*%
X141313181Y-76022805D03*
%TD*%
D53*
%TO.P,R34,1*%
%TO.N,TP5*%
X87400000Y-73051037D03*
%TO.P,R34,2*%
%TO.N,Net-(R34-Pad2)*%
X93200000Y-73051037D03*
%TD*%
D13*
%TO.P,R29,1*%
%TO.N,TP23*%
X126400000Y-46200000D03*
%TO.P,R29,2*%
%TO.N,AIN2_U6*%
X126400000Y-47850000D03*
%TD*%
D52*
%TO.P,U16,1,I1*%
%TO.N,7SEG_A_0*%
X154555000Y-61275000D03*
%TO.P,U16,2,I2*%
%TO.N,7SEG_B_0*%
X155825000Y-61275000D03*
%TO.P,U16,3,I3*%
%TO.N,7SEG_C_0*%
X157095000Y-61275000D03*
%TO.P,U16,4,I4*%
%TO.N,7SEG_D_0*%
X158365000Y-61275000D03*
%TO.P,U16,5,I5*%
%TO.N,7SEG_E_0*%
X159635000Y-61275000D03*
%TO.P,U16,6,I6*%
%TO.N,7SEG_F_0*%
X160905000Y-61275000D03*
%TO.P,U16,7,I7*%
%TO.N,7SEG_G_0*%
X162175000Y-61275000D03*
%TO.P,U16,8,GND*%
%TO.N,GND*%
X163445000Y-61275000D03*
%TO.P,U16,9,COM*%
%TO.N,unconnected-(U16-COM-Pad9)*%
X163445000Y-56325000D03*
%TO.P,U16,10,O7*%
%TO.N,Net-(U16-O7)*%
X162175000Y-56325000D03*
%TO.P,U16,11,O6*%
%TO.N,Net-(U16-O6)*%
X160905000Y-56325000D03*
%TO.P,U16,12,O5*%
%TO.N,Net-(U16-O5)*%
X159635000Y-56325000D03*
%TO.P,U16,13,O4*%
%TO.N,Net-(U16-O4)*%
X158365000Y-56325000D03*
%TO.P,U16,14,O3*%
%TO.N,Net-(U16-O3)*%
X157095000Y-56325000D03*
%TO.P,U16,15,O2*%
%TO.N,Net-(U16-O2)*%
X155825000Y-56325000D03*
%TO.P,U16,16,O1*%
%TO.N,Net-(U16-O1)*%
X154555000Y-56325000D03*
%TD*%
D13*
%TO.P,R66,1*%
%TO.N,ESP_TXD_PI*%
X153600000Y-77775000D03*
%TO.P,R66,2*%
%TO.N,Net-(J3-Pin_3)*%
X153600000Y-79425000D03*
%TD*%
D30*
%TO.P,Q16,1,G*%
%TO.N,Net-(Q16-G)*%
X90400000Y-107800000D03*
%TO.P,Q16,2,S*%
%TO.N,GND*%
X90400000Y-105900000D03*
%TO.P,Q16,3,D*%
%TO.N,TP_GPIO16*%
X88525000Y-106850000D03*
%TD*%
D43*
%TO.P,K2,1*%
%TO.N,+5V*%
X157130000Y-96250000D03*
%TO.P,K2,2*%
%TO.N,unconnected-(K2-Pad2)*%
X153930000Y-96250000D03*
%TO.P,K2,3*%
%TO.N,unconnected-(K2-Pad3)*%
X151730000Y-96250000D03*
%TO.P,K2,4*%
%TO.N,unconnected-(K2-Pad4)*%
X149530000Y-96250000D03*
%TO.P,K2,5*%
%TO.N,TP4*%
X149530000Y-103250000D03*
%TO.P,K2,6*%
%TO.N,TP18*%
X151730000Y-103250000D03*
%TO.P,K2,7*%
%TO.N,unconnected-(K2-Pad7)*%
X153930000Y-103250000D03*
%TO.P,K2,8*%
%TO.N,A6_U2_U12*%
X157130000Y-103250000D03*
%TD*%
D54*
%TO.P,S1,1*%
%TO.N,GND*%
X182275000Y-75200000D03*
%TO.P,S1,2*%
%TO.N,Net-(U1-GPIO26)*%
X186425000Y-75200000D03*
%TD*%
D13*
%TO.P,R88,1*%
%TO.N,Net-(U14-B)*%
X167045000Y-51827500D03*
%TO.P,R88,2*%
%TO.N,Net-(U17-O2)*%
X167045000Y-53477500D03*
%TD*%
D11*
%TO.P,R75,1*%
%TO.N,WS2812_IN*%
X110175000Y-91200000D03*
%TO.P,R75,2*%
%TO.N,GND*%
X111825000Y-91200000D03*
%TD*%
D46*
%TO.P,J5,1,1*%
%TO.N,Net-(J5-Pad1)*%
X151170000Y-125545000D03*
D47*
%TO.P,J5,2,2*%
%TO.N,Net-(J5-Pad2)*%
X152440000Y-123005000D03*
%TO.P,J5,3,3*%
%TO.N,Net-(J5-Pad3)*%
X153710000Y-125545000D03*
%TO.P,J5,4,4*%
%TO.N,Net-(J5-Pad4)*%
X154980000Y-123005000D03*
%TO.P,J5,5,5*%
%TO.N,Net-(J5-Pad5)*%
X156250000Y-125545000D03*
%TO.P,J5,6,6*%
%TO.N,Net-(J5-Pad6)*%
X157520000Y-123005000D03*
%TO.P,J5,7,7*%
%TO.N,Net-(J5-Pad7)*%
X158790000Y-125545000D03*
%TO.P,J5,8,8*%
%TO.N,Net-(J5-Pad8)*%
X160060000Y-123005000D03*
%TD*%
D11*
%TO.P,R24,1*%
%TO.N,AIN3_U5*%
X106038366Y-49460493D03*
%TO.P,R24,2*%
%TO.N,GND*%
X107688366Y-49460493D03*
%TD*%
D22*
%TO.P,C10,1*%
%TO.N,+5V*%
X77630000Y-121700000D03*
%TO.P,C10,2*%
%TO.N,GND*%
X77630000Y-123600000D03*
%TD*%
D12*
%TO.P,R35,1*%
%TO.N,B2_U2*%
X102391867Y-94134005D03*
%TO.P,R35,2*%
%TO.N,Net-(Q4-G)*%
X100741867Y-94134005D03*
%TD*%
D32*
%TO.P,J3,1,Pin_1*%
%TO.N,Net-(J3-Pin_1)*%
X158322382Y-74312587D03*
D33*
%TO.P,J3,2,Pin_2*%
%TO.N,Net-(J3-Pin_2)*%
X155782382Y-74312587D03*
%TO.P,J3,3,Pin_3*%
%TO.N,Net-(J3-Pin_3)*%
X153242382Y-74312587D03*
%TO.P,J3,4,Pin_4*%
%TO.N,Net-(J3-Pin_4)*%
X150702382Y-74312587D03*
%TD*%
D13*
%TO.P,R63,1*%
%TO.N,A4_U2*%
X101000000Y-106375000D03*
%TO.P,R63,2*%
%TO.N,Net-(Q13-G)*%
X101000000Y-108025000D03*
%TD*%
D42*
%TO.P,C1,1*%
%TO.N,+3V3*%
X144763072Y-101375000D03*
%TO.P,C1,2*%
%TO.N,GND*%
X144763072Y-99825000D03*
%TD*%
D11*
%TO.P,R18,1*%
%TO.N,TP7*%
X98924982Y-62600000D03*
%TO.P,R18,2*%
%TO.N,AIN0_U5*%
X100574982Y-62600000D03*
%TD*%
D13*
%TO.P,R77,1*%
%TO.N,LED_GOOD*%
X117600000Y-74775000D03*
%TO.P,R77,2*%
%TO.N,Net-(Q18-G)*%
X117600000Y-76425000D03*
%TD*%
D11*
%TO.P,R25,1*%
%TO.N,TP19*%
X112975000Y-62400000D03*
%TO.P,R25,2*%
%TO.N,AIN0_U6*%
X114625000Y-62400000D03*
%TD*%
D12*
%TO.P,R52,1*%
%TO.N,Net-(C27-Pad1)*%
X141198139Y-125238053D03*
%TO.P,R52,2*%
%TO.N,A3_U2*%
X139548139Y-125238053D03*
%TD*%
D11*
%TO.P,R21,1*%
%TO.N,AIN1_U5*%
X105575000Y-64400000D03*
%TO.P,R21,2*%
%TO.N,GND*%
X107225000Y-64400000D03*
%TD*%
D53*
%TO.P,R41,1*%
%TO.N,Net-(R40-Pad2)*%
X97000000Y-82980000D03*
%TO.P,R41,2*%
%TO.N,Net-(R41-Pad2)*%
X102800000Y-82980000D03*
%TD*%
D42*
%TO.P,C17,1*%
%TO.N,AIN2_U4*%
X97892309Y-48150000D03*
%TO.P,C17,2*%
%TO.N,GND*%
X97892309Y-46600000D03*
%TD*%
D12*
%TO.P,R9,1*%
%TO.N,TP2*%
X178761573Y-75933088D03*
%TO.P,R9,2*%
%TO.N,#ADAPTER_CLOSED*%
X177111573Y-75933088D03*
%TD*%
D14*
%TO.P,C6,1*%
%TO.N,+3V3*%
X123775000Y-52600000D03*
%TO.P,C6,2*%
%TO.N,GND*%
X122225000Y-52600000D03*
%TD*%
D53*
%TO.P,R39,1*%
%TO.N,TP10*%
X97000000Y-73000000D03*
%TO.P,R39,2*%
%TO.N,Net-(R39-Pad2)*%
X102800000Y-73000000D03*
%TD*%
D31*
%TO.P,C29,1*%
%TO.N,Net-(C29-Pad1)*%
X119776325Y-102005939D03*
%TO.P,C29,2*%
%TO.N,GND*%
X121326325Y-102005939D03*
%TD*%
D29*
%TO.P,R58,1*%
%TO.N,TP20*%
X121404775Y-49481406D03*
%TO.P,R58,2*%
%TO.N,AIN3_U6*%
X121404775Y-47831406D03*
%TD*%
D11*
%TO.P,R43,1*%
%TO.N,60V*%
X119575000Y-112600000D03*
%TO.P,R43,2*%
%TO.N,Net-(Q5-G)*%
X121225000Y-112600000D03*
%TD*%
D20*
%TO.P,C9,1*%
%TO.N,Net-(U10-0V)*%
X101330000Y-120450000D03*
%TO.P,C9,2*%
%TO.N,+12V*%
X101330000Y-123400000D03*
%TD*%
D13*
%TO.P,R91,1*%
%TO.N,Net-(U14-A)*%
X165545000Y-48327500D03*
%TO.P,R91,2*%
%TO.N,Net-(U17-O1)*%
X165545000Y-49977500D03*
%TD*%
D27*
%TO.P,Q13,1,G*%
%TO.N,Net-(Q13-G)*%
X97250000Y-108137500D03*
%TO.P,Q13,2,S*%
%TO.N,TP1*%
X99150000Y-108137500D03*
%TO.P,Q13,3,D*%
%TO.N,TP22*%
X98200000Y-106262500D03*
%TD*%
D53*
%TO.P,R37,1*%
%TO.N,Net-(R36-Pad2)*%
X87400000Y-83031037D03*
%TO.P,R37,2*%
%TO.N,Net-(R37-Pad2)*%
X93200000Y-83031037D03*
%TD*%
D12*
%TO.P,R6,1*%
%TO.N,Net-(Q1-G)*%
X146625000Y-56800000D03*
%TO.P,R6,2*%
%TO.N,GND*%
X144975000Y-56800000D03*
%TD*%
D14*
%TO.P,C2,1*%
%TO.N,+3V3*%
X185775000Y-91600000D03*
%TO.P,C2,2*%
%TO.N,GND*%
X184225000Y-91600000D03*
%TD*%
D55*
%TO.P,U14,1,CA*%
%TO.N,+5V*%
X180000000Y-49640000D03*
D56*
%TO.P,U14,2,F*%
%TO.N,Net-(U14-F)*%
X180000000Y-52180000D03*
%TO.P,U14,3,G*%
%TO.N,Net-(U14-G)*%
X180000000Y-54720000D03*
%TO.P,U14,4,E*%
%TO.N,Net-(U14-E)*%
X180000000Y-57260000D03*
%TO.P,U14,5,D*%
%TO.N,Net-(U14-D)*%
X180000000Y-59800000D03*
%TO.P,U14,6,CA*%
%TO.N,+5V*%
X185080000Y-59800000D03*
%TO.P,U14,7,DP*%
%TO.N,unconnected-(U14-DP-Pad7)*%
X185080000Y-57260000D03*
%TO.P,U14,8,C*%
%TO.N,Net-(U14-C)*%
X185080000Y-54720000D03*
%TO.P,U14,9,B*%
%TO.N,Net-(U14-B)*%
X185080000Y-52180000D03*
%TO.P,U14,10,A*%
%TO.N,Net-(U14-A)*%
X185080000Y-49640000D03*
%TD*%
D12*
%TO.P,R12,1*%
%TO.N,TP4*%
X94369203Y-66690619D03*
%TO.P,R12,2*%
%TO.N,AIN1_U4*%
X92719203Y-66690619D03*
%TD*%
D13*
%TO.P,R87,1*%
%TO.N,Net-(U15-G)*%
X162715000Y-52000000D03*
%TO.P,R87,2*%
%TO.N,Net-(U16-O7)*%
X162715000Y-53650000D03*
%TD*%
D12*
%TO.P,R74,1*%
%TO.N,Net-(D2-DO)*%
X111793954Y-87993954D03*
%TO.P,R74,2*%
%TO.N,WS2812_IN*%
X110143954Y-87993954D03*
%TD*%
D13*
%TO.P,R30,1*%
%TO.N,AIN2_U6*%
X124806366Y-49300278D03*
%TO.P,R30,2*%
%TO.N,GND*%
X124806366Y-50950278D03*
%TD*%
D55*
%TO.P,U15,1,CA*%
%TO.N,+5V*%
X191330000Y-49640000D03*
D56*
%TO.P,U15,2,F*%
%TO.N,Net-(U15-F)*%
X191330000Y-52180000D03*
%TO.P,U15,3,G*%
%TO.N,Net-(U15-G)*%
X191330000Y-54720000D03*
%TO.P,U15,4,E*%
%TO.N,Net-(U15-E)*%
X191330000Y-57260000D03*
%TO.P,U15,5,D*%
%TO.N,Net-(U15-D)*%
X191330000Y-59800000D03*
%TO.P,U15,6,CA*%
%TO.N,+5V*%
X196410000Y-59800000D03*
%TO.P,U15,7,DP*%
%TO.N,unconnected-(U15-DP-Pad7)*%
X196410000Y-57260000D03*
%TO.P,U15,8,C*%
%TO.N,Net-(U15-C)*%
X196410000Y-54720000D03*
%TO.P,U15,9,B*%
%TO.N,Net-(U15-B)*%
X196410000Y-52180000D03*
%TO.P,U15,10,A*%
%TO.N,Net-(U15-A)*%
X196410000Y-49640000D03*
%TD*%
D30*
%TO.P,Q12,1,G*%
%TO.N,Net-(Q12-G)*%
X116404898Y-103360813D03*
%TO.P,Q12,2,S*%
%TO.N,GND*%
X116404898Y-101460813D03*
%TO.P,Q12,3,D*%
%TO.N,TP21*%
X114529898Y-102410813D03*
%TD*%
D53*
%TO.P,R31,1*%
%TO.N,TP4*%
X88270000Y-99793963D03*
%TO.P,R31,2*%
%TO.N,Net-(Q2-D)*%
X94070000Y-99793963D03*
%TD*%
D57*
%TO.P,U2,1,GPB0*%
%TO.N,B0_U2*%
X142230000Y-111280000D03*
%TO.P,U2,2,GPB1*%
%TO.N,B1_U2*%
X142230000Y-110010000D03*
%TO.P,U2,3,GPB2*%
%TO.N,B2_U2*%
X142230000Y-108740000D03*
%TO.P,U2,4,GPB3*%
%TO.N,B3_U2*%
X142230000Y-107470000D03*
%TO.P,U2,5,GPB4*%
%TO.N,B4_U2*%
X142230000Y-106200000D03*
%TO.P,U2,6,GPB5*%
%TO.N,B5_U2*%
X142230000Y-104930000D03*
%TO.P,U2,7,GPB6*%
%TO.N,B6_U2*%
X142230000Y-103660000D03*
%TO.P,U2,8,GPB7*%
%TO.N,B7_U2*%
X142230000Y-102390000D03*
%TO.P,U2,9,VDD*%
%TO.N,+3V3*%
X142230000Y-101120000D03*
%TO.P,U2,10,VSS*%
%TO.N,GND*%
X142230000Y-99850000D03*
%TO.P,U2,11,NC*%
%TO.N,unconnected-(U2-NC-Pad11)*%
X142230000Y-98580000D03*
%TO.P,U2,12,SCK*%
%TO.N,SCL_PI*%
X142230000Y-97310000D03*
%TO.P,U2,13,SDA*%
%TO.N,SDA_PI*%
X142230000Y-96040000D03*
%TO.P,U2,14,NC*%
%TO.N,unconnected-(U2-NC-Pad14)*%
X142230000Y-94770000D03*
%TO.P,U2,15,A0*%
%TO.N,GND*%
X132930000Y-94770000D03*
%TO.P,U2,16,A1*%
X132930000Y-96040000D03*
%TO.P,U2,17,A2*%
X132930000Y-97310000D03*
%TO.P,U2,18,~{RESET}*%
%TO.N,MCP23017_#RESET*%
X132930000Y-98580000D03*
%TO.P,U2,19,INTB*%
%TO.N,unconnected-(U2-INTB-Pad19)*%
X132930000Y-99850000D03*
%TO.P,U2,20,INTA*%
%TO.N,unconnected-(U2-INTA-Pad20)*%
X132930000Y-101120000D03*
%TO.P,U2,21,GPA0*%
%TO.N,A0_U2*%
X132930000Y-102390000D03*
%TO.P,U2,22,GPA1*%
%TO.N,A1_U2*%
X132930000Y-103660000D03*
%TO.P,U2,23,GPA2*%
%TO.N,A2_U2*%
X132930000Y-104930000D03*
%TO.P,U2,24,GPA3*%
%TO.N,A3_U2*%
X132930000Y-106200000D03*
%TO.P,U2,25,GPA4*%
%TO.N,A4_U2*%
X132930000Y-107470000D03*
%TO.P,U2,26,GPA5*%
%TO.N,A5_U2*%
X132930000Y-108740000D03*
%TO.P,U2,27,GPA6*%
%TO.N,A6_U2*%
X132930000Y-110010000D03*
%TO.P,U2,28,GPA7*%
%TO.N,A7_U2*%
X132930000Y-111280000D03*
%TD*%
D14*
%TO.P,C3,1*%
%TO.N,+3V3*%
X92536624Y-51006036D03*
%TO.P,C3,2*%
%TO.N,GND*%
X90986624Y-51006036D03*
%TD*%
D41*
%TO.P,C23,1*%
%TO.N,AIN0_U6*%
X114597596Y-63980284D03*
%TO.P,C23,2*%
%TO.N,GND*%
X114597596Y-65530284D03*
%TD*%
D11*
%TO.P,R16,1*%
%TO.N,TP6*%
X87375000Y-50200000D03*
%TO.P,R16,2*%
%TO.N,AIN3_U4*%
X89025000Y-50200000D03*
%TD*%
D12*
%TO.P,R22,1*%
%TO.N,+3V3*%
X113582958Y-47481855D03*
%TO.P,R22,2*%
%TO.N,TP9*%
X111932958Y-47481855D03*
%TD*%
D25*
%TO.P,Q1,1,S*%
%TO.N,+5V*%
X148275000Y-62505000D03*
%TO.P,Q1,2,S*%
X148275000Y-61235000D03*
%TO.P,Q1,3,S*%
X148275000Y-59965000D03*
%TO.P,Q1,4,G*%
%TO.N,Net-(Q1-G)*%
X148275000Y-58695000D03*
%TO.P,Q1,5,D*%
%TO.N,Net-(D1-A2)*%
X143325000Y-58695000D03*
%TO.P,Q1,6,D*%
X143325000Y-59965000D03*
%TO.P,Q1,7,D*%
X143325000Y-61235000D03*
%TO.P,Q1,8,D*%
X143325000Y-62505000D03*
%TD*%
D58*
%TO.P,U1,1,3V3*%
%TO.N,+3V3*%
X141500000Y-69200000D03*
D59*
%TO.P,U1,2,5V*%
%TO.N,+5V*%
X141500000Y-66660000D03*
%TO.P,U1,3,GPIO2/SDA1*%
%TO.N,SDA_PI*%
X144040000Y-69200000D03*
%TO.P,U1,4,5V*%
%TO.N,+5V*%
X144040000Y-66660000D03*
%TO.P,U1,5,GPIO3/SCL1*%
%TO.N,SCL_PI*%
X146580000Y-69200000D03*
%TO.P,U1,6,GND*%
%TO.N,GND*%
X146580000Y-66660000D03*
%TO.P,U1,7,GPIO4/GPIO_GCKL*%
%TO.N,MCP23017_#RESET*%
X149120000Y-69200000D03*
%TO.P,U1,8,GPIO14/TXD0*%
%TO.N,ESP_RXD_PI*%
X149120000Y-66660000D03*
%TO.P,U1,9,GND*%
%TO.N,GND*%
X151660000Y-69200000D03*
%TO.P,U1,10,GPIO15/RXD0*%
%TO.N,ESP_TXD_PI*%
X151660000Y-66660000D03*
%TO.P,U1,11,GPIO17/GPIO_GEN0*%
%TO.N,7SEG_A_0*%
X154200000Y-69200000D03*
%TO.P,U1,12,GPIO18/GPIO_GEN1*%
%TO.N,7SEG_B_0*%
X154200000Y-66660000D03*
%TO.P,U1,13,GPIO27/GPIO_GEN2*%
%TO.N,7SEG_C_0*%
X156740000Y-69200000D03*
%TO.P,U1,14,GND*%
%TO.N,GND*%
X156740000Y-66660000D03*
%TO.P,U1,15,GPIO22/GPIO_GEN3*%
%TO.N,7SEG_D_0*%
X159280000Y-69200000D03*
%TO.P,U1,16,GPIO23/GPIO_GEN4*%
%TO.N,7SEG_E_0*%
X159280000Y-66660000D03*
%TO.P,U1,17,3V3*%
%TO.N,+3V3*%
X161820000Y-69200000D03*
%TO.P,U1,18,GPIO24/GPIO_GEN5*%
%TO.N,7SEG_F_0*%
X161820000Y-66660000D03*
%TO.P,U1,19,GPIO10/SPI_MOSI*%
%TO.N,7SEG_G_0*%
X164360000Y-69200000D03*
%TO.P,U1,20,GND*%
%TO.N,GND*%
X164360000Y-66660000D03*
%TO.P,U1,21,GPIO9/SPI_MISO*%
%TO.N,7SEG_B_1*%
X166900000Y-69200000D03*
%TO.P,U1,22,GPIO25/GPIO_GEN6*%
%TO.N,7SEG_A_1*%
X166900000Y-66660000D03*
%TO.P,U1,23,GPIO11/SPI_SCLK*%
%TO.N,7SEG_D_1*%
X169440000Y-69200000D03*
%TO.P,U1,24,GPIO8/~{SPI_CE0}*%
%TO.N,7SEG_C_1*%
X169440000Y-66660000D03*
%TO.P,U1,25,GND*%
%TO.N,GND*%
X171980000Y-69200000D03*
%TO.P,U1,26,GPIO7/~{SPI_CE1}*%
%TO.N,7SEG_E_1*%
X171980000Y-66660000D03*
%TO.P,U1,27,ID_SD*%
%TO.N,unconnected-(U1-ID_SD-Pad27)*%
X174520000Y-69200000D03*
%TO.P,U1,28,ID_SC*%
%TO.N,unconnected-(U1-ID_SC-Pad28)*%
X174520000Y-66660000D03*
%TO.P,U1,29,GPIO5*%
%TO.N,ESP_BOOT_PI*%
X177060000Y-69200000D03*
%TO.P,U1,30,GND*%
%TO.N,GND*%
X177060000Y-66660000D03*
%TO.P,U1,31,GPIO6*%
%TO.N,ESP_EN_PI*%
X179600000Y-69200000D03*
%TO.P,U1,32,GPIO12*%
%TO.N,#ADAPTER_CLOSED*%
X179600000Y-66660000D03*
%TO.P,U1,33,GPIO13*%
%TO.N,WS2812_IN*%
X182140000Y-69200000D03*
%TO.P,U1,34,GND*%
%TO.N,GND*%
X182140000Y-66660000D03*
%TO.P,U1,35,GPIO19*%
%TO.N,7SEG_F_1*%
X184680000Y-69200000D03*
%TO.P,U1,36,GPIO16*%
%TO.N,7SEG_G_1*%
X184680000Y-66660000D03*
%TO.P,U1,37,GPIO26*%
%TO.N,Net-(U1-GPIO26)*%
X187220000Y-69200000D03*
%TO.P,U1,38,GPIO20*%
%TO.N,LED_GOOD*%
X187220000Y-66660000D03*
%TO.P,U1,39,GND*%
%TO.N,GND*%
X189760000Y-69200000D03*
%TO.P,U1,40,GPIO21*%
%TO.N,LED_BAD*%
X189760000Y-66660000D03*
%TO.P,U1,41,TR01*%
%TO.N,unconnected-(U1-TR01-Pad41)*%
X195860000Y-75323000D03*
%TO.P,U1,42,TR00*%
%TO.N,unconnected-(U1-TR00-Pad42)*%
X195860000Y-72783000D03*
%TO.P,U1,43,TR03*%
%TO.N,unconnected-(U1-TR03-Pad43)*%
X193320000Y-75323000D03*
%TO.P,U1,44,TR02*%
%TO.N,unconnected-(U1-TR02-Pad44)*%
X193320000Y-72783000D03*
D60*
%TO.P,U1,S1,SHIELD*%
%TO.N,SHIELD_3*%
X136630000Y-67930000D03*
%TO.P,U1,S2,SHIELD*%
%TO.N,SHIELD_2*%
X194630000Y-67930000D03*
%TO.P,U1,S3,SHIELD*%
%TO.N,SHIELD_1*%
X194630000Y-116930000D03*
%TO.P,U1,S4,SHIELD*%
%TO.N,SHIELD*%
X136630000Y-116930000D03*
%TD*%
D28*
%TO.P,K6,1*%
%TO.N,+5V*%
X107100000Y-72000000D03*
%TO.P,K6,2*%
%TO.N,unconnected-(K6-Pad2)*%
X107100000Y-75200000D03*
%TO.P,K6,3*%
%TO.N,Net-(D2-VDD)*%
X107100000Y-77400000D03*
%TO.P,K6,4*%
%TO.N,+5V*%
X107100000Y-79600000D03*
%TO.P,K6,5*%
%TO.N,TP24*%
X114100000Y-79600000D03*
%TO.P,K6,6*%
%TO.N,Net-(D2-DI)*%
X114100000Y-77400000D03*
%TO.P,K6,7*%
%TO.N,unconnected-(K6-Pad7)*%
X114100000Y-75200000D03*
%TO.P,K6,8*%
%TO.N,B4_U3_U12*%
X114100000Y-72000000D03*
%TD*%
D41*
%TO.P,C30,1*%
%TO.N,AIN3_U6*%
X119804775Y-47806406D03*
%TO.P,C30,2*%
%TO.N,GND*%
X119804775Y-49356406D03*
%TD*%
D11*
%TO.P,R73,1*%
%TO.N,B3_U3*%
X135735308Y-75151134D03*
%TO.P,R73,2*%
%TO.N,Net-(Q17-G)*%
X137385308Y-75151134D03*
%TD*%
D12*
%TO.P,R70,1*%
%TO.N,GND*%
X167538313Y-94050000D03*
%TO.P,R70,2*%
%TO.N,Net-(K5-Pad4)*%
X165888313Y-94050000D03*
%TD*%
D23*
%TO.P,R40,1*%
%TO.N,Net-(R39-Pad2)*%
X102800000Y-77990000D03*
%TO.P,R40,2*%
%TO.N,Net-(R40-Pad2)*%
X97000000Y-77990000D03*
%TD*%
D12*
%TO.P,R27,1*%
%TO.N,TP22*%
X119204223Y-61474257D03*
%TO.P,R27,2*%
%TO.N,AIN1_U6*%
X117554223Y-61474257D03*
%TD*%
D13*
%TO.P,R94,1*%
%TO.N,Net-(U14-G)*%
X174295000Y-48327500D03*
%TO.P,R94,2*%
%TO.N,Net-(U17-O7)*%
X174295000Y-49977500D03*
%TD*%
D61*
%TO.N,B7_U2*%
X120615326Y-103398871D03*
X140200000Y-103227141D03*
%TO.N,A3_U2*%
X140200000Y-107800000D03*
X134600000Y-108000000D03*
%TO.N,+3V3*%
X177534394Y-106671602D03*
%TO.N,B3_U3*%
X173800000Y-92200000D03*
%TO.N,GND*%
X171181987Y-93103661D03*
%TO.N,B2_U3*%
X174400000Y-103999000D03*
%TO.N,GND*%
X171800000Y-103000000D03*
X195217606Y-88466136D03*
X121800000Y-107800000D03*
%TO.N,A5_U2*%
X124600000Y-108800000D03*
%TO.N,B1_U2*%
X91400000Y-95800000D03*
%TO.N,B6_U3*%
X188264520Y-95515292D03*
X137990993Y-95066006D03*
%TO.N,GND*%
X130200000Y-121000000D03*
X150800000Y-107200000D03*
X130150000Y-124200000D03*
%TO.N,B0_U2*%
X145400000Y-106200000D03*
%TO.N,B3_U2*%
X147000000Y-107200000D03*
%TO.N,GND*%
X88310072Y-62587345D03*
%TO.N,TP3*%
X87349671Y-66747746D03*
%TO.N,TP9*%
X86800000Y-65800000D03*
%TO.N,+3V3*%
X101852397Y-58772457D03*
X173000000Y-75800000D03*
X118400000Y-90470000D03*
X145725299Y-101240461D03*
X93477953Y-52034706D03*
X145322662Y-70110665D03*
X186600000Y-91600000D03*
X183800000Y-78000000D03*
X102880000Y-51905379D03*
X115780000Y-52965052D03*
X124049944Y-53551314D03*
X114557958Y-47481855D03*
X162000000Y-93000000D03*
X82357006Y-52062414D03*
%TO.N,+5V*%
X136800000Y-80600000D03*
X119800000Y-115600000D03*
X115800000Y-73400000D03*
X170619688Y-108789186D03*
X147200631Y-108802061D03*
X136800000Y-110400000D03*
X182400000Y-108800000D03*
X132829000Y-74000000D03*
X108201000Y-81800000D03*
X185200000Y-87600000D03*
X158816389Y-108798280D03*
X107200000Y-73000000D03*
X124400000Y-81800000D03*
X115800000Y-115400000D03*
%TO.N,GND*%
X118600000Y-78200000D03*
X139400000Y-90400000D03*
X142670000Y-122600000D03*
X100600000Y-46600000D03*
X113821703Y-53130440D03*
X112745930Y-90470000D03*
X98326072Y-97863874D03*
X130263235Y-110936765D03*
X130924373Y-116623857D03*
X139400000Y-77800000D03*
X144000000Y-56800000D03*
X181800000Y-101400000D03*
X94295794Y-62412476D03*
X86402945Y-46893532D03*
X88699038Y-57075326D03*
X145737026Y-99692546D03*
X91785702Y-105931636D03*
X108600000Y-49400000D03*
X78708901Y-50136822D03*
X124200000Y-94800000D03*
X127600000Y-50800000D03*
X139849124Y-133150000D03*
X119572712Y-84972712D03*
X118400000Y-91800000D03*
X179800000Y-74200000D03*
X79945447Y-50021411D03*
X167600000Y-93200000D03*
X102860692Y-56472455D03*
X181000000Y-75200000D03*
X100200000Y-92400000D03*
X124200000Y-58000000D03*
X118400000Y-89130000D03*
X123000000Y-65200000D03*
X185000000Y-79400000D03*
X122600000Y-101200000D03*
X114597596Y-66380284D03*
X122234765Y-53622524D03*
X183400000Y-91600000D03*
X107221794Y-67206760D03*
X115894037Y-57344965D03*
X91000000Y-50000000D03*
X112869608Y-89130000D03*
X119200000Y-65400000D03*
X82403799Y-53329866D03*
X93477953Y-59000000D03*
X116600000Y-98000000D03*
X100800000Y-50200000D03*
X114757958Y-48881855D03*
X90800000Y-92400000D03*
X79368392Y-49262997D03*
X99000000Y-67200000D03*
X132949880Y-93643427D03*
X137200000Y-133000000D03*
X116400000Y-100800000D03*
X119804775Y-50256406D03*
%TO.N,+12V*%
X137200000Y-128600000D03*
X122600000Y-129600000D03*
%TO.N,60V*%
X120400000Y-111400000D03*
X120600000Y-117200000D03*
%TO.N,SDA_PI*%
X180600000Y-95800000D03*
X115200000Y-56000000D03*
X123797727Y-56893095D03*
X92400000Y-55600000D03*
X140600000Y-95600000D03*
X102200000Y-55800000D03*
X113800000Y-92400000D03*
X90899570Y-55549644D03*
X141700000Y-92300000D03*
%TO.N,SCL_PI*%
X115600000Y-93200000D03*
X144200000Y-96600000D03*
X144200000Y-93000000D03*
X182000000Y-96400000D03*
X114800000Y-55200000D03*
X123200000Y-56000000D03*
X92600000Y-54400000D03*
X90200000Y-53400000D03*
X101800000Y-55000000D03*
%TO.N,MCP23017_#RESET*%
X183000000Y-98600000D03*
X144800000Y-98600000D03*
X131400000Y-98600000D03*
%TO.N,TP1*%
X79156250Y-108356250D03*
X76400000Y-104600000D03*
X99200000Y-109400000D03*
%TO.N,TP2*%
X179600000Y-76400000D03*
X110215278Y-75799064D03*
X110197357Y-68106929D03*
%TO.N,TP4*%
X88303933Y-103921604D03*
X78800000Y-104200000D03*
X148000000Y-103399000D03*
X94400000Y-69400000D03*
%TO.N,TP5*%
X94800000Y-70525741D03*
X87400000Y-70800000D03*
%TO.N,TP6*%
X106601000Y-81800000D03*
%TO.N,TP7*%
X104800000Y-78400000D03*
X99400000Y-78370000D03*
%TO.N,TP8*%
X101000000Y-75800000D03*
%TO.N,TP10*%
X95400000Y-73200000D03*
%TO.N,TP19*%
X108800000Y-93000000D03*
%TO.N,TP22*%
X98000000Y-102800000D03*
X120200000Y-68600000D03*
X85200000Y-102800000D03*
X85200000Y-68810000D03*
X85200000Y-93600000D03*
%TO.N,TP23*%
X77400000Y-103200000D03*
X80800000Y-108400000D03*
X131200000Y-96600000D03*
%TO.N,B0_U2*%
X102400000Y-105200000D03*
%TO.N,Net-(Q6-D)*%
X113600000Y-111200000D03*
X113849000Y-134600000D03*
%TO.N,Net-(Q5-D)*%
X117977841Y-107345869D03*
X119800000Y-121800000D03*
%TO.N,B5_U2_U12*%
X120200000Y-105600000D03*
X197400000Y-105600000D03*
%TO.N,Net-(Q10-D)*%
X111000000Y-128800000D03*
X110800000Y-107919213D03*
%TO.N,TP18*%
X150800000Y-88800000D03*
%TO.N,A6_U2_U12*%
X157200000Y-99400000D03*
X192800000Y-99600000D03*
%TO.N,TP15*%
X152000000Y-88000000D03*
%TO.N,TP14*%
X146600000Y-83400000D03*
%TO.N,A7_U2_U12*%
X159000000Y-90600000D03*
X191400000Y-90600000D03*
X146600000Y-90600000D03*
%TO.N,TP13*%
X164400000Y-84000000D03*
%TO.N,TP16*%
X157000000Y-87200000D03*
%TO.N,Net-(Q6-G)*%
X120600000Y-127600000D03*
X134800000Y-127600000D03*
%TO.N,TP20*%
X121200000Y-91000000D03*
%TO.N,TP21*%
X113000000Y-94800000D03*
X127400000Y-69800000D03*
X111000000Y-69800000D03*
%TO.N,TP12*%
X140200000Y-102000000D03*
%TO.N,TP11*%
X83800000Y-96200000D03*
X144070000Y-134800000D03*
X88000000Y-134800000D03*
%TO.N,B5_U2*%
X148600000Y-81200000D03*
X194000000Y-83000000D03*
%TO.N,A4_U2*%
X111800000Y-103200000D03*
X101200000Y-103200000D03*
%TO.N,A7_U2*%
X191600000Y-82800000D03*
X135800000Y-82000000D03*
%TO.N,B4_U2*%
X140800000Y-110610000D03*
X139000000Y-111000000D03*
%TO.N,B2_U2*%
X103200000Y-104600000D03*
X144200000Y-104600000D03*
%TO.N,A6_U2*%
X135400000Y-81200000D03*
X192800000Y-82800000D03*
%TO.N,A5_U2*%
X84800000Y-105200000D03*
X131400000Y-108800000D03*
%TO.N,B1_U2*%
X143799000Y-110010000D03*
X139400000Y-95800000D03*
X139000000Y-109800000D03*
X86800000Y-95800000D03*
%TO.N,B3_U2*%
X143815422Y-107416720D03*
X131000000Y-107400000D03*
%TO.N,Net-(J4-Pad2)*%
X155600000Y-117200000D03*
%TO.N,Net-(J4-Pad6)*%
X177600000Y-118400000D03*
%TO.N,Net-(J4-Pad1)*%
X148800000Y-117400000D03*
%TO.N,Net-(J4-Pad7)*%
X182200000Y-118600000D03*
%TO.N,Net-(J4-Pad3)*%
X160200000Y-117400000D03*
%TO.N,Net-(J4-Pad5)*%
X172800000Y-117200000D03*
%TO.N,Net-(J4-Pad4)*%
X167000000Y-117200000D03*
%TO.N,B0_U3_U12*%
X190200000Y-101200000D03*
X169400000Y-101000000D03*
%TO.N,TP17*%
X160800000Y-90000000D03*
%TO.N,B4_U3_U12*%
X111800000Y-85589461D03*
X188824269Y-84594453D03*
%TO.N,Net-(D2-VDD)*%
X118600000Y-87400000D03*
X108461881Y-87422183D03*
%TO.N,TP24*%
X114096709Y-84895064D03*
X82800000Y-84800000D03*
%TO.N,B5_U3_U12*%
X176000000Y-109650000D03*
X187800000Y-109600000D03*
X155600000Y-109600000D03*
X164000000Y-109600000D03*
%TO.N,TP_GPIO32*%
X138800000Y-99600000D03*
%TO.N,TP_GPIO16*%
X86580967Y-98650400D03*
%TO.N,TP_GPIO36*%
X141400000Y-73200000D03*
%TO.N,WS2812_IN*%
X175000000Y-94400000D03*
X110200000Y-93800000D03*
%TO.N,B3_U3*%
X192000000Y-92200000D03*
X138000000Y-91600000D03*
%TO.N,B1_U3*%
X142400000Y-86200000D03*
X194218406Y-90131320D03*
%TO.N,B2_U3*%
X94200000Y-104200000D03*
X193800000Y-101400000D03*
%TO.N,TP9*%
X111000000Y-48800000D03*
X86973020Y-51759792D03*
%TO.N,LED_GOOD*%
X117600000Y-72200000D03*
%TO.N,LED_BAD*%
X117600000Y-80000000D03*
%TO.N,Net-(U15-A)*%
X153445000Y-47000000D03*
%TO.N,Net-(U15-B)*%
X155215000Y-47200000D03*
%TO.N,Net-(U15-C)*%
X156681998Y-47108814D03*
%TO.N,Net-(U15-D)*%
X158200000Y-47600000D03*
%TO.N,Net-(U15-E)*%
X159600000Y-47800000D03*
%TO.N,Net-(U15-F)*%
X161400000Y-47399000D03*
%TO.N,Net-(U15-G)*%
X162800000Y-47800000D03*
%TD*%
D62*
%TO.N,B7_U2*%
X121365418Y-103703186D02*
X122878186Y-103703186D01*
X122878186Y-103703186D02*
X123000000Y-103825000D01*
X120615326Y-103398871D02*
X121061103Y-103398871D01*
X121061103Y-103398871D02*
X121365418Y-103703186D01*
X142230000Y-102390000D02*
X141037141Y-102390000D01*
X141037141Y-102390000D02*
X140200000Y-103227141D01*
X140200000Y-103399000D02*
X140200000Y-103227141D01*
%TO.N,A3_U2*%
X140001000Y-110749057D02*
X140001000Y-112199000D01*
X140001000Y-112199000D02*
X140000000Y-112200000D01*
%TO.N,B4_U2*%
X140800000Y-110610000D02*
X140800000Y-106600000D01*
X140800000Y-106600000D02*
X141200000Y-106200000D01*
X141200000Y-106200000D02*
X142230000Y-106200000D01*
%TO.N,A3_U2*%
X140200000Y-110550057D02*
X140001000Y-110749057D01*
X140200000Y-107800000D02*
X140200000Y-110550057D01*
X134200000Y-106200000D02*
X134400000Y-106400000D01*
X132930000Y-106200000D02*
X134200000Y-106200000D01*
X134400000Y-106400000D02*
X134600000Y-106600000D01*
X134600000Y-106600000D02*
X134600000Y-108000000D01*
%TO.N,+3V3*%
X177550000Y-106655996D02*
X177534394Y-106671602D01*
X177550000Y-105600000D02*
X177550000Y-106655996D01*
%TO.N,Net-(U3-A0)*%
X179344170Y-103224543D02*
X179344170Y-105455830D01*
X179344170Y-105455830D02*
X179200000Y-105600000D01*
%TO.N,B1_U3*%
X194218406Y-90131320D02*
X194149670Y-90131320D01*
X194149670Y-90131320D02*
X193375000Y-89356650D01*
X193375000Y-89356650D02*
X193375000Y-89287914D01*
X194584170Y-90497084D02*
X194584170Y-93924543D01*
X194218406Y-90131320D02*
X194584170Y-90497084D01*
%TO.N,B3_U3*%
X173769450Y-92169450D02*
X173800000Y-92200000D01*
X172831238Y-92169450D02*
X173769450Y-92169450D01*
%TO.N,GND*%
X171181238Y-93102912D02*
X171181987Y-93103661D01*
X171181238Y-92169450D02*
X171181238Y-93102912D01*
%TO.N,B2_U3*%
X174425000Y-103000000D02*
X174425000Y-103974000D01*
X174425000Y-103974000D02*
X174400000Y-103999000D01*
%TO.N,GND*%
X172775000Y-103000000D02*
X171800000Y-103000000D01*
X195025000Y-88775000D02*
X195025000Y-89287914D01*
X195217606Y-88466136D02*
X195217606Y-88582394D01*
X195217606Y-88582394D02*
X195025000Y-88775000D01*
%TO.N,B0_U3*%
X195854170Y-88254170D02*
X195400000Y-87800000D01*
X194062659Y-87800000D02*
X193400000Y-87137341D01*
X193400000Y-84800000D02*
X192600000Y-84000000D01*
X195400000Y-87800000D02*
X194062659Y-87800000D01*
X193400000Y-87137341D02*
X193400000Y-84800000D01*
X195854170Y-93924543D02*
X195854170Y-88254170D01*
X192600000Y-84000000D02*
X191351409Y-84000000D01*
X190194170Y-82842761D02*
X190194170Y-81174543D01*
X191351409Y-84000000D02*
X190194170Y-82842761D01*
%TO.N,GND*%
X126150000Y-107800000D02*
X125350000Y-107000000D01*
X123750000Y-107000000D02*
X122950000Y-107800000D01*
X125350000Y-107000000D02*
X123750000Y-107000000D01*
%TO.N,A4_U2*%
X131048690Y-106425875D02*
X127800000Y-106425875D01*
X127800000Y-107800000D02*
X127800000Y-106425875D01*
%TO.N,GND*%
X122950000Y-107800000D02*
X121800000Y-107800000D01*
%TO.N,A5_U2*%
X124600000Y-107800000D02*
X124600000Y-108800000D01*
%TO.N,GND*%
X147191754Y-105212834D02*
X148612834Y-105212834D01*
X148612834Y-105212834D02*
X149625000Y-106225000D01*
X149625000Y-106225000D02*
X149625000Y-107200000D01*
%TO.N,B2_U2*%
X144600000Y-105000000D02*
X144600000Y-105200000D01*
X145541754Y-105212834D02*
X144612834Y-105212834D01*
X144612834Y-105212834D02*
X144600000Y-105200000D01*
%TO.N,A2_U2*%
X132930000Y-104930000D02*
X126330000Y-104930000D01*
X126330000Y-104930000D02*
X124327186Y-102927186D01*
X124327186Y-102927186D02*
X121022462Y-102927186D01*
X121022462Y-102927186D02*
X120575325Y-102480049D01*
X120575325Y-102480049D02*
X120575325Y-100102943D01*
X114981439Y-99684261D02*
X114616360Y-99319182D01*
X120575325Y-100102943D02*
X120156643Y-99684261D01*
X120156643Y-99684261D02*
X114981439Y-99684261D01*
X114616360Y-99319182D02*
X114616360Y-98726195D01*
%TO.N,GND*%
X123000000Y-102175000D02*
X123000000Y-101600000D01*
X123000000Y-101600000D02*
X122600000Y-101200000D01*
X116266360Y-98726195D02*
X116266360Y-98333640D01*
X116266360Y-98333640D02*
X116600000Y-98000000D01*
%TO.N,A2_U2*%
X114651325Y-97075000D02*
X114651325Y-98691230D01*
X114651325Y-98691230D02*
X114616360Y-98726195D01*
%TO.N,B1_U2*%
X91400000Y-95000000D02*
X91400000Y-95800000D01*
%TO.N,GND*%
X91400000Y-93350000D02*
X91400000Y-93000000D01*
X91400000Y-93000000D02*
X90800000Y-92400000D01*
X100505203Y-98827689D02*
X98463050Y-98827689D01*
X98463050Y-98827689D02*
X98345000Y-98709639D01*
%TO.N,B0_U2*%
X102155203Y-98827689D02*
X102155203Y-100424436D01*
X102155203Y-100424436D02*
X102120000Y-100459639D01*
%TO.N,Net-(Q7-G)*%
X130337500Y-113550000D02*
X131450103Y-112437397D01*
X131450103Y-112437397D02*
X131450103Y-111192588D01*
X131450103Y-111192588D02*
X129482515Y-109225000D01*
X129482515Y-109225000D02*
X129400000Y-109225000D01*
%TO.N,A6_U2*%
X132930000Y-110010000D02*
X134590000Y-110010000D01*
X134590000Y-110010000D02*
X135200000Y-109400000D01*
X135200000Y-109400000D02*
X135200000Y-81400000D01*
X135200000Y-81400000D02*
X135400000Y-81200000D01*
%TO.N,B6_U3*%
X188264520Y-93954893D02*
X188234170Y-93924543D01*
X138000000Y-110400000D02*
X138000000Y-95075013D01*
X138000000Y-95075013D02*
X137990993Y-95066006D01*
X188264520Y-95515292D02*
X188264520Y-93954893D01*
%TO.N,B2_U3*%
X193314170Y-93924543D02*
X193314170Y-95914170D01*
X193314170Y-95914170D02*
X193800000Y-96400000D01*
X193800000Y-96400000D02*
X193800000Y-101400000D01*
%TO.N,Net-(Q9-G)*%
X131125000Y-122600000D02*
X131929985Y-121795015D01*
X131929985Y-121795015D02*
X131929985Y-119905840D01*
X131929985Y-119905840D02*
X131374145Y-119350000D01*
X131374145Y-119350000D02*
X130937500Y-119350000D01*
%TO.N,B4_U2*%
X132800000Y-124200000D02*
X134070326Y-124200000D01*
X134070326Y-124200000D02*
X135720326Y-122550000D01*
X135720326Y-122550000D02*
X135800000Y-122550000D01*
%TO.N,GND*%
X130272343Y-121072343D02*
X130200000Y-121000000D01*
X131105914Y-121072343D02*
X130272343Y-121072343D01*
%TO.N,B6_U3*%
X132755914Y-121530914D02*
X132755914Y-115644086D01*
X132755914Y-115644086D02*
X138000000Y-110400000D01*
X132755914Y-121072343D02*
X132755914Y-122580914D01*
X132755914Y-122580914D02*
X132775000Y-122600000D01*
%TO.N,GND*%
X149625000Y-107200000D02*
X150800000Y-107200000D01*
X131150000Y-124200000D02*
X130150000Y-124200000D01*
%TO.N,AIN1_U5*%
X105575000Y-64400000D02*
X104076842Y-64400000D01*
X104076842Y-64400000D02*
X104033421Y-64356579D01*
X105575000Y-64400000D02*
X105531579Y-64356579D01*
D63*
%TO.N,TP1*%
X79156250Y-108356250D02*
X81050000Y-106462500D01*
X79156250Y-108356250D02*
X76400000Y-105600000D01*
X76400000Y-105600000D02*
X76400000Y-104600000D01*
D62*
%TO.N,AIN0_U6*%
X116380000Y-58350000D02*
X116380000Y-61397880D01*
X116380000Y-61397880D02*
X115377880Y-62400000D01*
X115377880Y-62400000D02*
X114625000Y-62400000D01*
%TO.N,AIN1_U5*%
X104033421Y-64356579D02*
X104033421Y-61608421D01*
X104033421Y-61608421D02*
X103880000Y-61455000D01*
%TO.N,TP19*%
X108800000Y-93000000D02*
X109317131Y-92482869D01*
X109317131Y-86682869D02*
X110000000Y-86000000D01*
X109062881Y-76062881D02*
X109062881Y-67737119D01*
X110000000Y-86000000D02*
X110000000Y-77000000D01*
X109317131Y-92482869D02*
X109317131Y-86682869D01*
X110000000Y-77000000D02*
X109062881Y-76062881D01*
X112217312Y-62400000D02*
X112975000Y-62400000D01*
X109062881Y-67737119D02*
X111800000Y-65000000D01*
X111800000Y-65000000D02*
X111800000Y-62817312D01*
X111800000Y-62817312D02*
X112217312Y-62400000D01*
%TO.N,GND*%
X107221794Y-66439918D02*
X107221794Y-67206760D01*
%TO.N,AIN1_U5*%
X105621794Y-66006760D02*
X105621794Y-64446794D01*
X105621794Y-64446794D02*
X105575000Y-64400000D01*
%TO.N,GND*%
X107225000Y-64400000D02*
X107225000Y-65953554D01*
X107225000Y-65953554D02*
X107171794Y-66006760D01*
D63*
%TO.N,TP8*%
X101000000Y-75800000D02*
X101000000Y-70000000D01*
X104033421Y-66966579D02*
X104033421Y-66006579D01*
X101000000Y-70000000D02*
X104033421Y-66966579D01*
D62*
%TO.N,GND*%
X88375000Y-63672708D02*
X88419357Y-63628351D01*
X88375000Y-65200000D02*
X88375000Y-63672708D01*
X88419357Y-63628351D02*
X88419357Y-62696630D01*
%TO.N,AIN0_U4*%
X90025000Y-66739152D02*
X90033594Y-66747746D01*
X90037345Y-65212345D02*
X90025000Y-65200000D01*
X90025000Y-65200000D02*
X90025000Y-63683994D01*
X90025000Y-65200000D02*
X90025000Y-66739152D01*
X90025000Y-63683994D02*
X89969357Y-63628351D01*
%TO.N,TP3*%
X88383594Y-66747746D02*
X87349671Y-66747746D01*
%TO.N,GND*%
X88419357Y-62696630D02*
X88310072Y-62587345D01*
%TO.N,+3V3*%
X93577953Y-52047365D02*
X92536624Y-51006036D01*
X173950168Y-75933088D02*
X173133088Y-75933088D01*
X117314522Y-90600000D02*
X117449499Y-90734977D01*
X184975000Y-78000000D02*
X183800000Y-78000000D01*
X145058789Y-70374538D02*
X145322662Y-70110665D01*
X141880000Y-69580000D02*
X141500000Y-69200000D01*
D63*
X185694170Y-93924543D02*
X185694170Y-91680830D01*
D62*
X93577953Y-53221795D02*
X93577953Y-52047365D01*
X124049944Y-53551314D02*
X124014364Y-53515734D01*
X115880000Y-52858838D02*
X115375384Y-52354222D01*
D63*
X81540000Y-52050000D02*
X81530000Y-52040000D01*
D62*
X101880000Y-57521795D02*
X101880000Y-58744854D01*
D63*
X145678471Y-101287289D02*
X145725299Y-101240461D01*
D62*
X118135023Y-90734977D02*
X118400000Y-90470000D01*
X173133088Y-75933088D02*
X173000000Y-75800000D01*
X102880000Y-51905379D02*
X102880000Y-51800000D01*
X123793397Y-53237360D02*
X123793397Y-52618397D01*
D63*
X185775000Y-91600000D02*
X186600000Y-91600000D01*
D62*
X115880000Y-54050000D02*
X115880000Y-52858838D01*
X115668380Y-90600000D02*
X117314522Y-90600000D01*
X102880000Y-51800000D02*
X102880000Y-51743805D01*
D63*
X144763072Y-101287289D02*
X145678471Y-101287289D01*
D62*
X124014364Y-53458327D02*
X123793397Y-53237360D01*
X113582958Y-47481855D02*
X114557958Y-47481855D01*
X115880000Y-53177841D02*
X115880000Y-54050000D01*
D63*
X142230000Y-101120000D02*
X144370000Y-101120000D01*
D62*
X101880000Y-58744854D02*
X101852397Y-58772457D01*
X115780000Y-53077841D02*
X115880000Y-53177841D01*
X123793397Y-52618397D02*
X123775000Y-52600000D01*
X93577953Y-52047365D02*
X93565294Y-52034706D01*
X124200000Y-53701370D02*
X124200000Y-54650000D01*
X141880000Y-71140000D02*
X141880000Y-69580000D01*
X115780000Y-52965052D02*
X115780000Y-53077841D01*
X117449499Y-90734977D02*
X118135023Y-90734977D01*
X93565294Y-52034706D02*
X93477953Y-52034706D01*
X124014364Y-53515734D02*
X124014364Y-53458327D01*
X161975000Y-93025000D02*
X162000000Y-93000000D01*
X145058789Y-71150491D02*
X145058789Y-70374538D01*
X102880000Y-51743805D02*
X102312135Y-51175940D01*
D63*
X83730000Y-52050000D02*
X81540000Y-52050000D01*
D62*
X124049944Y-53551314D02*
X124200000Y-53701370D01*
D63*
X185694170Y-91680830D02*
X185775000Y-91600000D01*
D62*
X161975000Y-94050000D02*
X161975000Y-93025000D01*
X102880000Y-53221795D02*
X102880000Y-51800000D01*
D64*
%TO.N,+5V*%
X136800000Y-80600000D02*
X136800000Y-79600000D01*
X143000000Y-65160000D02*
X144040000Y-65160000D01*
D63*
X187480000Y-62200000D02*
X194010000Y-62200000D01*
X182330000Y-109650000D02*
X182330000Y-108870000D01*
D62*
X116200000Y-73800000D02*
X115800000Y-73400000D01*
D63*
X169530000Y-96250000D02*
X169530000Y-91730000D01*
D62*
X119700732Y-80135043D02*
X118765689Y-79200000D01*
D64*
X79478313Y-111501687D02*
X77830000Y-113150000D01*
D62*
X107100000Y-72900000D02*
X107200000Y-73000000D01*
D64*
X141500000Y-66660000D02*
X143000000Y-65160000D01*
X81690000Y-111501687D02*
X79478313Y-111501687D01*
D63*
X170619688Y-108789186D02*
X170619688Y-98419688D01*
D62*
X107100000Y-72000000D02*
X107100000Y-72900000D01*
D63*
X170530000Y-109650000D02*
X170600000Y-109580000D01*
X182330000Y-108870000D02*
X182400000Y-108800000D01*
D62*
X107181313Y-80399000D02*
X108002000Y-81219687D01*
D63*
X158530000Y-109635000D02*
X158800000Y-109365000D01*
X185080000Y-59800000D02*
X187480000Y-62200000D01*
D64*
X148275000Y-62505000D02*
X146695000Y-62505000D01*
D62*
X107100000Y-80399000D02*
X107181313Y-80399000D01*
X107100000Y-79600000D02*
X107100000Y-80399000D01*
D63*
X155419229Y-89619229D02*
X157130000Y-91330000D01*
D64*
X132829000Y-75629000D02*
X132829000Y-74000000D01*
D63*
X170619688Y-98419688D02*
X169530000Y-97330000D01*
D64*
X79230000Y-128250000D02*
X77630000Y-129850000D01*
D63*
X157130000Y-91330000D02*
X157130000Y-96250000D01*
D62*
X118765689Y-79200000D02*
X116800000Y-79200000D01*
D63*
X185114170Y-86124543D02*
X185114170Y-87514170D01*
D64*
X148275000Y-59965000D02*
X148275000Y-62505000D01*
X79429213Y-119900787D02*
X77630000Y-121700000D01*
D63*
X158816389Y-99416389D02*
X157130000Y-97730000D01*
X147200631Y-108802061D02*
X147200000Y-108802692D01*
X170600000Y-109580000D02*
X170600000Y-108808874D01*
X170600000Y-108808874D02*
X170619688Y-108789186D01*
D62*
X108002000Y-81601000D02*
X108201000Y-81800000D01*
D63*
X147200000Y-109365000D02*
X146930000Y-109635000D01*
D64*
X138640000Y-63800000D02*
X141500000Y-66660000D01*
D63*
X158800000Y-109365000D02*
X158800000Y-108814669D01*
X193800000Y-50800000D02*
X193800000Y-57200000D01*
X169530000Y-97330000D02*
X169530000Y-96250000D01*
D64*
X146695000Y-62505000D02*
X144040000Y-65160000D01*
D63*
X153690857Y-89619229D02*
X155419229Y-89619229D01*
D64*
X136800000Y-110400000D02*
X136800000Y-80600000D01*
X81530000Y-128250000D02*
X79230000Y-128250000D01*
X136800000Y-79600000D02*
X132829000Y-75629000D01*
D62*
X116200000Y-78600000D02*
X116200000Y-73800000D01*
D63*
X192640000Y-49640000D02*
X193800000Y-50800000D01*
X185114170Y-87514170D02*
X185200000Y-87600000D01*
X157130000Y-97730000D02*
X157130000Y-96250000D01*
X115700000Y-115300000D02*
X115800000Y-115400000D01*
X158800000Y-108814669D02*
X158816389Y-108798280D01*
X167412587Y-89612587D02*
X165963125Y-89612587D01*
X193810000Y-57200000D02*
X196410000Y-59800000D01*
D64*
X132829000Y-65971000D02*
X135000000Y-63800000D01*
X135000000Y-63800000D02*
X138640000Y-63800000D01*
D62*
X108002000Y-81219687D02*
X108002000Y-81601000D01*
D63*
X194010000Y-62200000D02*
X196410000Y-59800000D01*
D62*
X116800000Y-79200000D02*
X116200000Y-78600000D01*
D63*
X115700000Y-114400000D02*
X115700000Y-115300000D01*
X169530000Y-91730000D02*
X167412587Y-89612587D01*
X158816389Y-108798280D02*
X158816389Y-99416389D01*
D64*
X144040000Y-65160000D02*
X144040000Y-66660000D01*
D63*
X147200000Y-108802692D02*
X147200000Y-109365000D01*
X191330000Y-49640000D02*
X192640000Y-49640000D01*
D62*
X125400000Y-81800000D02*
X124400000Y-81800000D01*
D63*
X193800000Y-57200000D02*
X193810000Y-57200000D01*
D64*
X81532081Y-119900787D02*
X79429213Y-119900787D01*
X132829000Y-74000000D02*
X132829000Y-65971000D01*
D62*
%TO.N,GND*%
X113768380Y-90600000D02*
X112875930Y-90600000D01*
D63*
X90750000Y-92450000D02*
X90800000Y-92400000D01*
D62*
X185114170Y-79514170D02*
X185000000Y-79400000D01*
D63*
X100165995Y-92434005D02*
X100200000Y-92400000D01*
X98754367Y-92434005D02*
X100165995Y-92434005D01*
D62*
X90986624Y-51006036D02*
X90986624Y-50013376D01*
X117600000Y-64650000D02*
X119124511Y-64650000D01*
D63*
X98345000Y-98709639D02*
X98345000Y-97882802D01*
D62*
X118727273Y-78327273D02*
X118600000Y-78200000D01*
X100524704Y-46524704D02*
X100600000Y-46600000D01*
X100600000Y-66150000D02*
X99059835Y-66150000D01*
X122874132Y-64248982D02*
X122874132Y-65074132D01*
X116404898Y-100804898D02*
X116400000Y-100800000D01*
X92750644Y-63600644D02*
X94276005Y-63600644D01*
X130337500Y-111650000D02*
X130337500Y-111011030D01*
X137112923Y-132912923D02*
X137200000Y-133000000D01*
X132930000Y-96040000D02*
X132930000Y-97310000D01*
X93577953Y-57521795D02*
X93577953Y-58900000D01*
X122225000Y-53612759D02*
X122234765Y-53622524D01*
D63*
X89312500Y-92450000D02*
X90750000Y-92450000D01*
X184424170Y-93924543D02*
X184424170Y-91799170D01*
D62*
X113565546Y-49048533D02*
X114591280Y-49048533D01*
X107634277Y-47850886D02*
X107634277Y-49406404D01*
X119826735Y-85226735D02*
X119572712Y-84972712D01*
X113768380Y-89135000D02*
X113803380Y-89100000D01*
X132930000Y-93663307D02*
X132949880Y-93643427D01*
D63*
X144975000Y-56800000D02*
X144000000Y-56800000D01*
D65*
X79330000Y-49870000D02*
X79400000Y-49800000D01*
D62*
X99530000Y-46524704D02*
X100524704Y-46524704D01*
X113041066Y-65593922D02*
X114533958Y-65593922D01*
X137112923Y-131712628D02*
X137112923Y-132912923D01*
D64*
X80372868Y-123600000D02*
X77630000Y-123600000D01*
D62*
X99000000Y-67200000D02*
X99000000Y-66218329D01*
X117444660Y-89143429D02*
X118386571Y-89143429D01*
X112425000Y-90600000D02*
X111825000Y-91200000D01*
D63*
X82403799Y-53329866D02*
X83720134Y-53329866D01*
D62*
X122800000Y-62600000D02*
X122800000Y-64174850D01*
X100762135Y-50237865D02*
X100800000Y-50200000D01*
X90986624Y-50013376D02*
X91000000Y-50000000D01*
X174915000Y-61475000D02*
X174915000Y-63315000D01*
X86402945Y-46893532D02*
X86506468Y-46893532D01*
X87443041Y-47163170D02*
X87443041Y-48671795D01*
D64*
X84070000Y-128250000D02*
X80570000Y-131750000D01*
X77830000Y-115050000D02*
X80681687Y-115050000D01*
D62*
X94295794Y-63519145D02*
X94326649Y-63550000D01*
X93577953Y-58900000D02*
X93477953Y-59000000D01*
X181884170Y-103224543D02*
X181884170Y-101484170D01*
X112875930Y-90600000D02*
X112745930Y-90470000D01*
X118386571Y-89143429D02*
X118400000Y-89130000D01*
X119826735Y-85887268D02*
X119826735Y-85226735D01*
D63*
X98345000Y-97882802D02*
X98326072Y-97863874D01*
D62*
X130937500Y-117450000D02*
X130937500Y-116636984D01*
X174915000Y-63315000D02*
X177060000Y-65460000D01*
X114597596Y-65530284D02*
X114597596Y-66380284D01*
X113825000Y-53127143D02*
X113821703Y-53130440D01*
X181000000Y-101400000D02*
X181800000Y-101400000D01*
D64*
X84072081Y-119900787D02*
X80372868Y-123600000D01*
D62*
X124200000Y-58950000D02*
X124200000Y-58000000D01*
D63*
X91754066Y-105900000D02*
X91785702Y-105931636D01*
D62*
X121326325Y-102005939D02*
X121794061Y-102005939D01*
X114591280Y-49048533D02*
X114757958Y-48881855D01*
X112899608Y-89100000D02*
X112869608Y-89130000D01*
X132930000Y-94770000D02*
X132930000Y-93663307D01*
X113803380Y-89100000D02*
X112899608Y-89100000D01*
X115880000Y-58350000D02*
X115880000Y-57359002D01*
X126353176Y-50950278D02*
X126409444Y-50894010D01*
X142752105Y-122682105D02*
X142670000Y-122600000D01*
D65*
X79330000Y-52650000D02*
X79330000Y-49870000D01*
D62*
X99000000Y-66218329D02*
X98995753Y-66214082D01*
X139438181Y-76972805D02*
X139438181Y-77761819D01*
X139455000Y-89600000D02*
X139455000Y-90345000D01*
X167538313Y-93261687D02*
X167600000Y-93200000D01*
D63*
X144763072Y-99737289D02*
X145692283Y-99737289D01*
D64*
X90958313Y-113150000D02*
X89310000Y-111501687D01*
D62*
X163445000Y-61275000D02*
X163445000Y-63645000D01*
X93279158Y-59000000D02*
X93477953Y-59000000D01*
D64*
X134600000Y-52675000D02*
X134600000Y-55925000D01*
D62*
X115880000Y-57359002D02*
X115894037Y-57344965D01*
X107688366Y-49460493D02*
X108539507Y-49460493D01*
X122225000Y-52600000D02*
X122225000Y-53612759D01*
X121794061Y-102005939D02*
X122600000Y-101200000D01*
D63*
X82607599Y-53320000D02*
X83730000Y-53320000D01*
D62*
X130937500Y-116636984D02*
X130924373Y-116623857D01*
X88680000Y-55860000D02*
X88680000Y-57056288D01*
D64*
X103530000Y-114050000D02*
X101630000Y-114050000D01*
D62*
X180614170Y-103224543D02*
X180614170Y-101785830D01*
X108539507Y-49460493D02*
X108600000Y-49400000D01*
X99059835Y-66150000D02*
X98995753Y-66214082D01*
X119804775Y-50256406D02*
X119804775Y-49356406D01*
X119725000Y-78327273D02*
X118727273Y-78327273D01*
X116651325Y-97948675D02*
X116600000Y-98000000D01*
X178730000Y-74250000D02*
X179750000Y-74250000D01*
X114533958Y-65593922D02*
X114597596Y-65530284D01*
X164360000Y-64560000D02*
X164360000Y-66660000D01*
X122874132Y-65074132D02*
X123000000Y-65200000D01*
X119124511Y-64650000D02*
X119183597Y-64590914D01*
X113825000Y-52200000D02*
X113825000Y-53127143D01*
X116404898Y-101460813D02*
X116404898Y-100804898D01*
X116651325Y-97150000D02*
X116651325Y-97948675D01*
X167538313Y-94050000D02*
X167538313Y-93261687D01*
X126409444Y-50894010D02*
X127505990Y-50894010D01*
D64*
X100730000Y-113150000D02*
X90958313Y-113150000D01*
D62*
X100762135Y-51175940D02*
X100762135Y-50237865D01*
D63*
X184424170Y-91799170D02*
X184225000Y-91600000D01*
D62*
X139829124Y-132192453D02*
X139829124Y-133130000D01*
X177060000Y-65460000D02*
X177060000Y-66660000D01*
D63*
X142230000Y-99850000D02*
X144650000Y-99850000D01*
D62*
X102880000Y-57521795D02*
X102880000Y-56491763D01*
X179750000Y-74250000D02*
X179800000Y-74200000D01*
D63*
X81530000Y-53590000D02*
X82186194Y-53590000D01*
D62*
X88680000Y-57056288D02*
X88699038Y-57075326D01*
D63*
X82598416Y-53329183D02*
X82607599Y-53320000D01*
D62*
X119761181Y-49400000D02*
X119804775Y-49356406D01*
X119183597Y-65383597D02*
X119200000Y-65400000D01*
X185114170Y-81174543D02*
X185114170Y-79514170D01*
X124253363Y-95729848D02*
X124253363Y-94853363D01*
X182275000Y-75200000D02*
X181000000Y-75200000D01*
D63*
X145692283Y-99737289D02*
X145737026Y-99692546D01*
D62*
X113768380Y-90600000D02*
X112425000Y-90600000D01*
X127505990Y-50894010D02*
X127600000Y-50800000D01*
X92577953Y-57521795D02*
X92577953Y-58298795D01*
X139438181Y-77761819D02*
X139400000Y-77800000D01*
X163445000Y-63645000D02*
X164360000Y-64560000D01*
D63*
X82186194Y-53590000D02*
X82447011Y-53329183D01*
D62*
X88680000Y-54590000D02*
X88680000Y-55860000D01*
X130337500Y-111011030D02*
X130263235Y-110936765D01*
X99454704Y-46600000D02*
X99530000Y-46524704D01*
X124806366Y-50950278D02*
X126353176Y-50950278D01*
X94295794Y-62412476D02*
X94295794Y-63519145D01*
D63*
X90400000Y-105900000D02*
X91754066Y-105900000D01*
D62*
X87158160Y-46878289D02*
X87443041Y-47163170D01*
D64*
X80681687Y-115050000D02*
X84230000Y-111501687D01*
X134600000Y-55925000D02*
X135800000Y-57125000D01*
X101630000Y-114050000D02*
X100730000Y-113150000D01*
D62*
X118200000Y-49400000D02*
X119761181Y-49400000D01*
X92577953Y-58298795D02*
X93279158Y-59000000D01*
X86521711Y-46878289D02*
X87158160Y-46878289D01*
X117915023Y-92284977D02*
X118400000Y-91800000D01*
X107634277Y-49406404D02*
X107688366Y-49460493D01*
X142752105Y-123677270D02*
X142752105Y-122682105D01*
X132930000Y-94770000D02*
X132930000Y-96040000D01*
X122800000Y-64174850D02*
X122874132Y-64248982D01*
X139829124Y-133130000D02*
X139849124Y-133150000D01*
X117449499Y-92284977D02*
X117915023Y-92284977D01*
X119183597Y-64590914D02*
X119183597Y-65383597D01*
X180614170Y-101785830D02*
X181000000Y-101400000D01*
X94276005Y-63600644D02*
X94326649Y-63550000D01*
D63*
X83720134Y-53329866D02*
X83730000Y-53320000D01*
D62*
X124253363Y-94853363D02*
X124200000Y-94800000D01*
X97892309Y-46600000D02*
X99454704Y-46600000D01*
X139455000Y-90345000D02*
X139400000Y-90400000D01*
X102880000Y-56491763D02*
X102860692Y-56472455D01*
D64*
X80570000Y-131750000D02*
X77630000Y-131750000D01*
D63*
X82447011Y-53329183D02*
X82598416Y-53329183D01*
X184225000Y-91600000D02*
X183400000Y-91600000D01*
D62*
X86506468Y-46893532D02*
X86521711Y-46878289D01*
X181884170Y-101484170D02*
X181800000Y-101400000D01*
%TO.N,Net-(U1-GPIO26)*%
X186425000Y-75775000D02*
X186625000Y-75975000D01*
X186425000Y-75200000D02*
X186425000Y-75775000D01*
X186625000Y-75975000D02*
X186625000Y-78000000D01*
X187220000Y-70580000D02*
X187220000Y-69200000D01*
X186425000Y-71375000D02*
X187220000Y-70580000D01*
X186425000Y-75200000D02*
X186425000Y-71375000D01*
%TO.N,+12V*%
X135837923Y-125910128D02*
X137200000Y-127272205D01*
D64*
X86400000Y-122652868D02*
X89152081Y-119900787D01*
X92651294Y-123400000D02*
X89152081Y-119900787D01*
X86400000Y-131000000D02*
X86400000Y-122652868D01*
D62*
X137200000Y-127272205D02*
X137200000Y-128600000D01*
D64*
X100478313Y-111501687D02*
X100730000Y-111250000D01*
X94390000Y-111501687D02*
X100478313Y-111501687D01*
X122425000Y-131005000D02*
X120230000Y-133200000D01*
X120230000Y-133200000D02*
X88600000Y-133200000D01*
X101330000Y-123400000D02*
X92651294Y-123400000D01*
D62*
X122600000Y-130830000D02*
X122425000Y-131005000D01*
D64*
X101380000Y-123450000D02*
X101330000Y-123400000D01*
D62*
X122600000Y-129600000D02*
X122600000Y-130830000D01*
D64*
X103530000Y-111125000D02*
X100855000Y-111125000D01*
X88600000Y-133200000D02*
X86400000Y-131000000D01*
X100855000Y-111125000D02*
X100730000Y-111250000D01*
X104730000Y-123450000D02*
X101380000Y-123450000D01*
%TO.N,Net-(U10-0V)*%
X94781294Y-120450000D02*
X94232081Y-119900787D01*
X101330000Y-131000000D02*
X91900000Y-131000000D01*
X91900000Y-131000000D02*
X89150000Y-128250000D01*
X104730000Y-130975000D02*
X101355000Y-130975000D01*
X104730000Y-120525000D02*
X101405000Y-120525000D01*
X101355000Y-130975000D02*
X101330000Y-131000000D01*
X101330000Y-120450000D02*
X94781294Y-120450000D01*
X101405000Y-120525000D02*
X101330000Y-120450000D01*
%TO.N,60V*%
X106576113Y-128050000D02*
X104730000Y-128050000D01*
D62*
X121001000Y-122297470D02*
X119624970Y-123673500D01*
X120350000Y-120651530D02*
X121001000Y-121302530D01*
X119575000Y-112600000D02*
X119575000Y-112225000D01*
X109952500Y-122352500D02*
X109400000Y-122352500D01*
X120600000Y-117200000D02*
X120600000Y-118150000D01*
D64*
X94430000Y-128050000D02*
X94230000Y-128250000D01*
X104730000Y-128050000D02*
X101330000Y-128050000D01*
X109400000Y-122352500D02*
X107574000Y-124178500D01*
X107020000Y-128050000D02*
X104730000Y-128050000D01*
X107574000Y-127052113D02*
X106576113Y-128050000D01*
D62*
X119624970Y-123673500D02*
X111273500Y-123673500D01*
X119575000Y-112225000D02*
X120400000Y-111400000D01*
X120600000Y-118150000D02*
X120350000Y-118400000D01*
X121001000Y-121302530D02*
X121001000Y-122297470D01*
X111273500Y-123673500D02*
X109952500Y-122352500D01*
X120350000Y-118400000D02*
X120350000Y-120651530D01*
D64*
X110175000Y-131205000D02*
X107020000Y-128050000D01*
X101330000Y-128050000D02*
X94430000Y-128050000D01*
X107574000Y-124178500D02*
X107574000Y-127052113D01*
%TO.N,Net-(J1-Pin_1)*%
X139680000Y-56992500D02*
X139800000Y-57112500D01*
X139680000Y-52675000D02*
X139680000Y-56992500D01*
%TO.N,Net-(D1-A2)*%
X136987500Y-60237500D02*
X135800000Y-61425000D01*
X139800000Y-60237500D02*
X136987500Y-60237500D01*
X143325000Y-58695000D02*
X143325000Y-62505000D01*
X143052500Y-60237500D02*
X143325000Y-59965000D01*
X139800000Y-60237500D02*
X143052500Y-60237500D01*
D62*
%TO.N,#ADAPTER_CLOSED*%
X177180000Y-74250000D02*
X177180000Y-73820000D01*
X177111573Y-75933088D02*
X177111573Y-74318427D01*
X177180000Y-73820000D02*
X180800000Y-70200000D01*
X177111573Y-74318427D02*
X177180000Y-74250000D01*
X180800000Y-67860000D02*
X179600000Y-66660000D01*
X177111573Y-75933088D02*
X175600168Y-75933088D01*
X180800000Y-70200000D02*
X180800000Y-67860000D01*
%TO.N,SDA_PI*%
X114880000Y-58350000D02*
X114880000Y-56320000D01*
X93077953Y-54028010D02*
X93077953Y-53221795D01*
X123800000Y-56890822D02*
X123800000Y-55400000D01*
X92400000Y-55600000D02*
X93200000Y-54800000D01*
X180614170Y-95785830D02*
X180600000Y-95800000D01*
X144040000Y-69200000D02*
X144040000Y-69760000D01*
X90883533Y-52883533D02*
X90050000Y-52050000D01*
X143530000Y-71140000D02*
X143530000Y-90470000D01*
X90899570Y-55549644D02*
X90883533Y-55533607D01*
X140600000Y-93400000D02*
X140600000Y-95600000D01*
X144040000Y-69760000D02*
X143530000Y-70270000D01*
X93200000Y-54800000D02*
X93200000Y-54150057D01*
X123700000Y-55300000D02*
X123700000Y-54650000D01*
X180614170Y-93924543D02*
X180614170Y-95785830D01*
X114880000Y-56320000D02*
X115200000Y-56000000D01*
X90050000Y-52050000D02*
X88680000Y-52050000D01*
X115380000Y-54050000D02*
X115401000Y-54071000D01*
X93200000Y-54150057D02*
X93077953Y-54028010D01*
X140600000Y-95600000D02*
X141040000Y-96040000D01*
X123797727Y-56893095D02*
X123800000Y-56890822D01*
X102401000Y-55599000D02*
X102200000Y-55800000D01*
X141040000Y-96040000D02*
X142230000Y-96040000D01*
X102401000Y-53242795D02*
X102401000Y-55599000D01*
X123800000Y-55400000D02*
X123700000Y-55300000D01*
X143530000Y-90470000D02*
X141700000Y-92300000D01*
X115401000Y-54071000D02*
X115401000Y-55799000D01*
X90883533Y-55533607D02*
X90883533Y-52883533D01*
X141700000Y-92300000D02*
X140600000Y-93400000D01*
X115401000Y-55799000D02*
X115200000Y-56000000D01*
X102380000Y-53221795D02*
X102401000Y-53242795D01*
X113768380Y-92368380D02*
X113800000Y-92400000D01*
X113768380Y-91300000D02*
X113768380Y-92368380D01*
X143530000Y-70270000D02*
X143530000Y-71140000D01*
%TO.N,SCL_PI*%
X115618380Y-91300000D02*
X115618380Y-93181620D01*
X115618380Y-93181620D02*
X115600000Y-93200000D01*
X114880000Y-54050000D02*
X114880000Y-55120000D01*
X92600000Y-53243842D02*
X92577953Y-53221795D01*
X144200000Y-96600000D02*
X143490000Y-97310000D01*
X181884170Y-96284170D02*
X182000000Y-96400000D01*
X144200000Y-76000000D02*
X144200000Y-93000000D01*
X146580000Y-71021702D02*
X146708789Y-71150491D01*
X146708789Y-73491211D02*
X144200000Y-76000000D01*
X143490000Y-97310000D02*
X142230000Y-97310000D01*
X123196727Y-58946727D02*
X123196727Y-56003273D01*
X146580000Y-69200000D02*
X146580000Y-71021702D01*
X114880000Y-55120000D02*
X114800000Y-55200000D01*
X123200000Y-54650000D02*
X123200000Y-56000000D01*
X101880000Y-53221795D02*
X101880000Y-54920000D01*
X123196727Y-56003273D02*
X123200000Y-56000000D01*
X92600000Y-54400000D02*
X92600000Y-53243842D01*
X90120000Y-53320000D02*
X90200000Y-53400000D01*
X88680000Y-53320000D02*
X90120000Y-53320000D01*
X181884170Y-93924543D02*
X181884170Y-96284170D01*
X101880000Y-54920000D02*
X101800000Y-55000000D01*
X123200000Y-58950000D02*
X123196727Y-58946727D01*
X146708789Y-71150491D02*
X146708789Y-73491211D01*
X144200000Y-93000000D02*
X144200000Y-96600000D01*
%TO.N,ESP_BOOT_PI*%
X164200000Y-71800000D02*
X174460000Y-71800000D01*
X159000000Y-77000000D02*
X164200000Y-71800000D01*
X159000000Y-77775000D02*
X159000000Y-77000000D01*
X174460000Y-71800000D02*
X177060000Y-69200000D01*
%TO.N,MCP23017_#RESET*%
X149120000Y-74280000D02*
X146289857Y-77110143D01*
X183000000Y-99200000D02*
X183154170Y-99354170D01*
X146289857Y-77110143D02*
X146289857Y-79524757D01*
X146289857Y-79524757D02*
X145000000Y-80814614D01*
X131400000Y-98600000D02*
X132910000Y-98600000D01*
X132910000Y-98600000D02*
X132930000Y-98580000D01*
X183154170Y-99354170D02*
X183154170Y-103224543D01*
X183000000Y-98600000D02*
X183000000Y-99200000D01*
X145000000Y-80814614D02*
X145000000Y-98400000D01*
X145000000Y-98400000D02*
X144800000Y-98600000D01*
X149120000Y-69200000D02*
X149120000Y-74280000D01*
%TO.N,ESP_EN_PI*%
X179600000Y-69200000D02*
X176200000Y-72600000D01*
X169200000Y-72600000D02*
X166000000Y-75800000D01*
X166000000Y-75800000D02*
X166000000Y-77775000D01*
X176200000Y-72600000D02*
X169200000Y-72600000D01*
%TO.N,ESP_RXD_PI*%
X147814980Y-74385020D02*
X145575000Y-76625000D01*
X145575000Y-76625000D02*
X145575000Y-77600000D01*
X149120000Y-66660000D02*
X147814980Y-67965020D01*
X147814980Y-67965020D02*
X147814980Y-74385020D01*
%TO.N,ESP_TXD_PI*%
X153600000Y-77775000D02*
X151853382Y-76028382D01*
X150400000Y-67920000D02*
X150400000Y-71200000D01*
X151660000Y-66660000D02*
X150400000Y-67920000D01*
X151853382Y-72653382D02*
X150400000Y-71200000D01*
X151853382Y-76028382D02*
X151853382Y-72653382D01*
%TO.N,AIN0_U4*%
X94077953Y-57521795D02*
X94077953Y-59522047D01*
X94077953Y-59522047D02*
X93200000Y-60400000D01*
%TO.N,AIN1_U4*%
X91526649Y-64600000D02*
X92077293Y-65150644D01*
X92719203Y-65182085D02*
X92750644Y-65150644D01*
X94577953Y-60148696D02*
X91526649Y-63200000D01*
X94326649Y-65200000D02*
X92800000Y-65200000D01*
X94577953Y-57521795D02*
X94577953Y-60148696D01*
X92719203Y-66690619D02*
X92719203Y-65182085D01*
X92077293Y-65150644D02*
X92750644Y-65150644D01*
X92800000Y-65200000D02*
X92750644Y-65150644D01*
X91526649Y-63200000D02*
X91526649Y-64600000D01*
%TO.N,AIN2_U4*%
X97877316Y-49741728D02*
X95658272Y-49741728D01*
X97892309Y-48150000D02*
X97892309Y-49726735D01*
X97892309Y-49726735D02*
X97877316Y-49741728D01*
X94577953Y-50822047D02*
X94577953Y-53221795D01*
X95658272Y-49741728D02*
X94577953Y-50822047D01*
X99530000Y-48174704D02*
X97917013Y-48174704D01*
X97917013Y-48174704D02*
X97892309Y-48150000D01*
%TO.N,AIN3_U4*%
X88993041Y-50168041D02*
X89025000Y-50200000D01*
X89017041Y-48647795D02*
X88993041Y-48671795D01*
X89017041Y-47087170D02*
X89017041Y-48647795D01*
X88993041Y-48671795D02*
X89269891Y-48394945D01*
X89269891Y-48394945D02*
X91794945Y-48394945D01*
X88993041Y-48671795D02*
X88993041Y-50168041D01*
X91794945Y-48394945D02*
X94077953Y-50677953D01*
X94077953Y-50677953D02*
X94077953Y-53221795D01*
%TO.N,AIN0_U5*%
X103380000Y-57521795D02*
X103380000Y-59794982D01*
X100600000Y-64600000D02*
X99031671Y-64600000D01*
X99031671Y-64600000D02*
X98995753Y-64564082D01*
X100574982Y-64574982D02*
X100600000Y-64600000D01*
X100574982Y-62600000D02*
X100574982Y-64574982D01*
X103380000Y-59794982D02*
X100574982Y-62600000D01*
%TO.N,AIN1_U5*%
X103880000Y-57521795D02*
X103880000Y-61455000D01*
%TO.N,AIN2_U5*%
X112000000Y-50650000D02*
X113514079Y-50650000D01*
X108378205Y-53221795D02*
X103880000Y-53221795D01*
X110950000Y-50650000D02*
X108378205Y-53221795D01*
X112000000Y-50650000D02*
X110950000Y-50650000D01*
X113514079Y-50650000D02*
X113565546Y-50598533D01*
%TO.N,AIN3_U5*%
X106038366Y-50561634D02*
X105400000Y-51200000D01*
X106084277Y-49414582D02*
X106038366Y-49460493D01*
X104530000Y-47800000D02*
X106033391Y-47800000D01*
X104586256Y-51200000D02*
X103380000Y-52406256D01*
X106033391Y-47800000D02*
X106084277Y-47850886D01*
X106084277Y-47850886D02*
X106084277Y-49414582D01*
X106038366Y-49460493D02*
X106038366Y-50561634D01*
X105400000Y-51200000D02*
X104586256Y-51200000D01*
X103380000Y-52406256D02*
X103380000Y-53221795D01*
%TO.N,AIN0_U6*%
X113077428Y-63980284D02*
X113041066Y-63943922D01*
X114625000Y-62400000D02*
X114625000Y-63952880D01*
X114625000Y-63952880D02*
X114597596Y-63980284D01*
X114597596Y-63980284D02*
X113077428Y-63980284D01*
%TO.N,AIN1_U6*%
X117640914Y-63040914D02*
X117600000Y-63000000D01*
X116880000Y-58350000D02*
X116880000Y-59880000D01*
X119204223Y-63020288D02*
X119183597Y-63040914D01*
X117600000Y-61520034D02*
X117554223Y-61474257D01*
X116880000Y-59880000D02*
X117554223Y-60554223D01*
X117600000Y-63000000D02*
X117600000Y-61520034D01*
X119183597Y-63040914D02*
X117640914Y-63040914D01*
X117554223Y-60554223D02*
X117554223Y-61474257D01*
%TO.N,AIN2_U6*%
X126409444Y-49344010D02*
X124850098Y-49344010D01*
X126400000Y-47850000D02*
X126400000Y-49334566D01*
X123594917Y-49300278D02*
X124806366Y-49300278D01*
X117810936Y-48600000D02*
X116880000Y-49530936D01*
X124850098Y-49344010D02*
X124806366Y-49300278D01*
X123594917Y-49300278D02*
X122894639Y-48600000D01*
X116880000Y-49530936D02*
X116880000Y-54050000D01*
X122894639Y-48600000D02*
X117810936Y-48600000D01*
X126400000Y-49334566D02*
X126409444Y-49344010D01*
%TO.N,Net-(Q2-G)*%
X100320000Y-100609639D02*
X100470000Y-100459639D01*
X98345000Y-100609639D02*
X100320000Y-100609639D01*
D63*
%TO.N,Net-(Q1-G)*%
X148275000Y-58695000D02*
X148275000Y-58450000D01*
X148275000Y-58450000D02*
X146625000Y-56800000D01*
%TO.N,Net-(Q2-D)*%
X94204324Y-99659639D02*
X94070000Y-99793963D01*
X96470000Y-99659639D02*
X94204324Y-99659639D01*
D65*
%TO.N,TP1*%
X78118927Y-58678927D02*
X78060000Y-58620000D01*
X78860000Y-68210000D02*
X78647854Y-68210000D01*
D63*
X99150000Y-109350000D02*
X99200000Y-109400000D01*
D65*
X78118927Y-67681073D02*
X78118927Y-58678927D01*
X78647854Y-68210000D02*
X78118927Y-67681073D01*
D63*
X99150000Y-108137500D02*
X99150000Y-109350000D01*
D62*
%TO.N,TP2*%
X110197357Y-68217357D02*
X110200000Y-68220000D01*
X179228485Y-76400000D02*
X178761573Y-75933088D01*
X110200000Y-68220000D02*
X110200000Y-75783786D01*
X110200000Y-75783786D02*
X110215278Y-75799064D01*
X179600000Y-76400000D02*
X179228485Y-76400000D01*
X110197357Y-68106929D02*
X110197357Y-68217357D01*
%TO.N,TP4*%
X94400000Y-68800000D02*
X94369203Y-68769203D01*
D63*
X78800000Y-104200000D02*
X77337925Y-104200000D01*
X76600000Y-74400000D02*
X77710000Y-73290000D01*
X88303933Y-99827896D02*
X88270000Y-99793963D01*
X76600000Y-103462075D02*
X76600000Y-74400000D01*
X77337925Y-104200000D02*
X76600000Y-103462075D01*
D62*
X149530000Y-103250000D02*
X148149000Y-103250000D01*
X94400000Y-69400000D02*
X94400000Y-68800000D01*
D63*
X88303933Y-103921604D02*
X88303933Y-99827896D01*
D62*
X94369203Y-68769203D02*
X94369203Y-66690619D01*
X148149000Y-103250000D02*
X148000000Y-103399000D01*
D63*
X77710000Y-73290000D02*
X78860000Y-73290000D01*
D62*
%TO.N,TP5*%
X97877316Y-51391728D02*
X97877316Y-53122684D01*
D64*
X87400000Y-70800000D02*
X87400000Y-73051037D01*
D62*
X95200000Y-55800000D02*
X95200000Y-69751716D01*
X94800000Y-70151716D02*
X94800000Y-70525741D01*
X95200000Y-69751716D02*
X94800000Y-70151716D01*
X97877316Y-53122684D02*
X95200000Y-55800000D01*
%TO.N,TP6*%
X85772020Y-51262321D02*
X85772020Y-63827980D01*
D64*
X108600000Y-104800000D02*
X107600000Y-104800000D01*
X107600000Y-104800000D02*
X106601000Y-103801000D01*
D62*
X84000000Y-65600000D02*
X84000000Y-80400000D01*
X84000000Y-80400000D02*
X83490000Y-80910000D01*
X87375000Y-50200000D02*
X86834341Y-50200000D01*
D64*
X115700000Y-109000000D02*
X113800000Y-109000000D01*
D62*
X86834341Y-50200000D02*
X85772020Y-51262321D01*
D64*
X111346999Y-104800000D02*
X108600000Y-104800000D01*
X106601000Y-103801000D02*
X106601000Y-102600000D01*
D62*
X85772020Y-63827980D02*
X84000000Y-65600000D01*
D64*
X106601000Y-102600000D02*
X106601000Y-81800000D01*
X112601000Y-107801000D02*
X112601000Y-106054001D01*
X112601000Y-106054001D02*
X111346999Y-104800000D01*
X113800000Y-109000000D02*
X112601000Y-107801000D01*
D62*
X83490000Y-80910000D02*
X81400000Y-80910000D01*
%TO.N,Net-(U11-IN-)*%
X78286847Y-54590000D02*
X77425000Y-53728153D01*
X83730000Y-54590000D02*
X78286847Y-54590000D01*
X77425000Y-53728153D02*
X77425000Y-52205000D01*
%TO.N,Net-(U11-IN+)*%
X80634842Y-55860000D02*
X79965000Y-56529842D01*
X79965000Y-56529842D02*
X79965000Y-59065000D01*
X83730000Y-55860000D02*
X80634842Y-55860000D01*
D64*
%TO.N,TP7*%
X104800000Y-78400000D02*
X104800000Y-107000000D01*
X104800000Y-107000000D02*
X106800000Y-109000000D01*
D62*
X98924982Y-62600000D02*
X98524982Y-62600000D01*
X99400000Y-70000000D02*
X99400000Y-78370000D01*
D64*
X106800000Y-109000000D02*
X108700000Y-109000000D01*
D62*
X98524982Y-62600000D02*
X97400000Y-63724982D01*
X97400000Y-68000000D02*
X99400000Y-70000000D01*
X97400000Y-63724982D02*
X97400000Y-68000000D01*
%TO.N,TP10*%
X96200000Y-56600000D02*
X96200000Y-69000000D01*
X104530000Y-49450000D02*
X99550000Y-49450000D01*
X99000000Y-50000000D02*
X99000000Y-53800000D01*
X99550000Y-49450000D02*
X99000000Y-50000000D01*
X97000000Y-69800000D02*
X97000000Y-73000000D01*
D64*
X95400000Y-73200000D02*
X96800000Y-73200000D01*
X96800000Y-73200000D02*
X97000000Y-73000000D01*
D62*
X96200000Y-69000000D02*
X97000000Y-69800000D01*
X99000000Y-53800000D02*
X96200000Y-56600000D01*
%TO.N,TP22*%
X119204223Y-61474257D02*
X120200000Y-62470034D01*
X85200000Y-68810000D02*
X85200000Y-93600000D01*
X120200000Y-62470034D02*
X120200000Y-68600000D01*
D63*
X98200000Y-106262500D02*
X98200000Y-103000000D01*
X98200000Y-103000000D02*
X98000000Y-102800000D01*
X85200000Y-93600000D02*
X85200000Y-102800000D01*
%TO.N,TP23*%
X77400000Y-97610000D02*
X78860000Y-96150000D01*
X82000000Y-108337500D02*
X80862500Y-108337500D01*
D62*
X131200000Y-96600000D02*
X131600000Y-96200000D01*
X131600000Y-47800000D02*
X130000000Y-46200000D01*
D63*
X80862500Y-108337500D02*
X80800000Y-108400000D01*
D62*
X130000000Y-46200000D02*
X126400000Y-46200000D01*
X131600000Y-96200000D02*
X131600000Y-47800000D01*
D63*
X82000000Y-108337500D02*
X82000000Y-108607938D01*
X77400000Y-103200000D02*
X77400000Y-97610000D01*
D62*
%TO.N,B0_U2*%
X102120000Y-104920000D02*
X102120000Y-100459639D01*
X102400000Y-105200000D02*
X102120000Y-104920000D01*
D63*
%TO.N,Net-(Q3-D)*%
X87437500Y-93400000D02*
X87437500Y-88058537D01*
X87437500Y-88058537D02*
X87400000Y-88021037D01*
D62*
%TO.N,Net-(Q3-G)*%
X89625000Y-94662500D02*
X89312500Y-94350000D01*
X89625000Y-96000000D02*
X89625000Y-94662500D01*
%TO.N,Net-(Q4-G)*%
X98754367Y-94334005D02*
X100541867Y-94334005D01*
X100541867Y-94334005D02*
X100741867Y-94134005D01*
D63*
%TO.N,Net-(Q4-D)*%
X96879367Y-93384005D02*
X96879367Y-88090633D01*
X96879367Y-88090633D02*
X97000000Y-87970000D01*
D64*
%TO.N,Net-(R34-Pad2)*%
X93200000Y-73051037D02*
X93200000Y-78041037D01*
%TO.N,Net-(R36-Pad2)*%
X87400000Y-78041037D02*
X87400000Y-83031037D01*
%TO.N,Net-(R37-Pad2)*%
X93200000Y-83031037D02*
X93200000Y-88021037D01*
%TO.N,Net-(R39-Pad2)*%
X102800000Y-77990000D02*
X102800000Y-73000000D01*
%TO.N,Net-(R40-Pad2)*%
X97000000Y-82980000D02*
X97000000Y-77990000D01*
%TO.N,Net-(R41-Pad2)*%
X102800000Y-82980000D02*
X102800000Y-87970000D01*
D62*
%TO.N,Net-(C26-Pad1)*%
X141425000Y-130600000D02*
X141425000Y-132146577D01*
X142905382Y-132192453D02*
X142969158Y-132256229D01*
X141379124Y-132192453D02*
X142905382Y-132192453D01*
X141425000Y-132146577D02*
X141379124Y-132192453D01*
%TO.N,Net-(C27-Pad1)*%
X142741322Y-125238053D02*
X142752105Y-125227270D01*
X141225000Y-123650000D02*
X141225000Y-125211192D01*
X141225000Y-125211192D02*
X141198139Y-125238053D01*
X141198139Y-125238053D02*
X142741322Y-125238053D01*
%TO.N,Net-(C28-Pad1)*%
X122755570Y-97279848D02*
X122739435Y-97295983D01*
X124253363Y-97279848D02*
X122755570Y-97279848D01*
X122739435Y-97295983D02*
X122739435Y-95737733D01*
X122739435Y-95737733D02*
X122723959Y-95722257D01*
%TO.N,Net-(C29-Pad1)*%
X119743579Y-100460261D02*
X119743579Y-101973193D01*
X119743579Y-101973193D02*
X119776325Y-102005939D01*
X118338872Y-102005939D02*
X118270076Y-102074735D01*
X119776325Y-102005939D02*
X118338872Y-102005939D01*
%TO.N,AIN3_U6*%
X117373205Y-47750000D02*
X116380000Y-48743205D01*
X119829775Y-47831406D02*
X119804775Y-47806406D01*
X118200000Y-47750000D02*
X117373205Y-47750000D01*
X116380000Y-48743205D02*
X116380000Y-54050000D01*
X118256406Y-47806406D02*
X118200000Y-47750000D01*
X121404775Y-47831406D02*
X119829775Y-47831406D01*
X119804775Y-47806406D02*
X118256406Y-47806406D01*
%TO.N,AIN0_U7*%
X124450000Y-59950000D02*
X124450000Y-62600000D01*
X124424132Y-64248982D02*
X125917856Y-64248982D01*
X124450000Y-62600000D02*
X124450000Y-64223114D01*
X124700000Y-62350000D02*
X124450000Y-62600000D01*
X124450000Y-64223114D02*
X124424132Y-64248982D01*
X125917856Y-64248982D02*
X125986450Y-64180388D01*
X124700000Y-59700000D02*
X124450000Y-59950000D01*
X124700000Y-58950000D02*
X124700000Y-59700000D01*
%TO.N,Net-(J3-Pin_2)*%
X157556234Y-79425000D02*
X159000000Y-79425000D01*
X159000000Y-81975712D02*
X158963125Y-82012587D01*
X155782382Y-74312587D02*
X156501968Y-75032173D01*
X156501968Y-78370734D02*
X157556234Y-79425000D01*
X156501968Y-75032173D02*
X156501968Y-78370734D01*
X159000000Y-79425000D02*
X159000000Y-81975712D01*
%TO.N,Net-(J3-Pin_4)*%
X147225000Y-77600000D02*
X147225000Y-79156714D01*
X150200000Y-77600000D02*
X147225000Y-77600000D01*
X150702382Y-74312587D02*
X150702382Y-77097618D01*
X146690857Y-79690857D02*
X146690857Y-82019229D01*
X150702382Y-77097618D02*
X150200000Y-77600000D01*
X147225000Y-79156714D02*
X146690857Y-79690857D01*
%TO.N,Net-(J3-Pin_1)*%
X166000000Y-79425000D02*
X165051000Y-78476000D01*
X157800000Y-78000000D02*
X157800000Y-74834969D01*
X165051000Y-78476000D02*
X158276000Y-78476000D01*
X157800000Y-74834969D02*
X158322382Y-74312587D01*
X165963125Y-79461875D02*
X166000000Y-79425000D01*
X165963125Y-82012587D02*
X165963125Y-79461875D01*
X158276000Y-78476000D02*
X157800000Y-78000000D01*
%TO.N,Net-(J3-Pin_3)*%
X153690857Y-82019229D02*
X153690857Y-79515857D01*
X153242382Y-74312587D02*
X155200000Y-76270205D01*
X155200000Y-77825000D02*
X153600000Y-79425000D01*
X155200000Y-76270205D02*
X155200000Y-77825000D01*
X153690857Y-79515857D02*
X153600000Y-79425000D01*
D64*
%TO.N,Net-(Q6-D)*%
X114049000Y-134400000D02*
X123050000Y-134400000D01*
X123050000Y-134400000D02*
X128725000Y-128725000D01*
X113849000Y-134600000D02*
X114049000Y-134400000D01*
X115700000Y-111200000D02*
X113600000Y-111200000D01*
%TO.N,Net-(Q5-D)*%
X119800000Y-121800000D02*
X117427500Y-121800000D01*
X117977841Y-107345869D02*
X117431972Y-106800000D01*
X117431972Y-106800000D02*
X115700000Y-106800000D01*
X117427500Y-121800000D02*
X115700000Y-120072500D01*
D62*
%TO.N,B5_U2_U12*%
X118000000Y-112000000D02*
X117200000Y-112800000D01*
X110300000Y-112800000D02*
X108700000Y-114400000D01*
X197400000Y-105600000D02*
X197400000Y-87600000D01*
X195924543Y-86124543D02*
X194004170Y-86124543D01*
X117200000Y-112800000D02*
X110300000Y-112800000D01*
X197400000Y-87600000D02*
X195924543Y-86124543D01*
X118000000Y-109465932D02*
X120200000Y-107265932D01*
X118000000Y-109465932D02*
X118000000Y-112000000D01*
X120200000Y-107265932D02*
X120200000Y-105600000D01*
D64*
%TO.N,Net-(Q10-D)*%
X108700000Y-106800000D02*
X109680787Y-106800000D01*
X111000000Y-128800000D02*
X116350000Y-128800000D01*
X116350000Y-128800000D02*
X116475000Y-128925000D01*
X109680787Y-106800000D02*
X110800000Y-107919213D01*
D62*
%TO.N,TP18*%
X151730000Y-102780680D02*
X151730000Y-103250000D01*
X150800000Y-101850680D02*
X151730000Y-102780680D01*
X150800000Y-88800000D02*
X150800000Y-101850680D01*
%TO.N,A6_U2_U12*%
X192713170Y-99513170D02*
X192800000Y-99600000D01*
X157200000Y-99400000D02*
X157130000Y-99470000D01*
X192734170Y-86124543D02*
X192713170Y-86145543D01*
X157130000Y-99470000D02*
X157130000Y-103250000D01*
X192713170Y-86145543D02*
X192713170Y-99513170D01*
%TO.N,TP15*%
X152980771Y-84219229D02*
X153690857Y-84219229D01*
X152000000Y-88000000D02*
X152000000Y-84532370D01*
X152978867Y-84217325D02*
X152980771Y-84219229D01*
X152315045Y-84217325D02*
X152978867Y-84217325D01*
X152000000Y-84532370D02*
X152315045Y-84217325D01*
%TO.N,TP14*%
X146600000Y-83400000D02*
X146690857Y-83490857D01*
X146690857Y-83490857D02*
X146690857Y-84219229D01*
%TO.N,A7_U2_U12*%
X191464170Y-86124543D02*
X191464170Y-90535830D01*
X146600000Y-90600000D02*
X146600000Y-89710086D01*
X146600000Y-89710086D02*
X146690857Y-89619229D01*
X191464170Y-90535830D02*
X191400000Y-90600000D01*
X158963125Y-89612587D02*
X158963125Y-90563125D01*
X158963125Y-90563125D02*
X159000000Y-90600000D01*
%TO.N,TP13*%
X165750538Y-84000000D02*
X165963125Y-84212587D01*
X164400000Y-84000000D02*
X165750538Y-84000000D01*
%TO.N,TP16*%
X157613714Y-84213714D02*
X157612587Y-84212587D01*
X157000000Y-84827427D02*
X157613714Y-84213714D01*
X157000000Y-87200000D02*
X157000000Y-84827427D01*
X157612587Y-84212587D02*
X158963125Y-84212587D01*
%TO.N,Net-(Q5-G)*%
X110721000Y-116471500D02*
X109400000Y-117792500D01*
X109942342Y-117798013D02*
X109936829Y-117792500D01*
X117512872Y-116471500D02*
X110721000Y-116471500D01*
X121225000Y-112600000D02*
X121225000Y-112759372D01*
X121225000Y-112600000D02*
X123337500Y-112600000D01*
X121225000Y-112759372D02*
X117512872Y-116471500D01*
X109936829Y-117792500D02*
X109400000Y-117792500D01*
%TO.N,Net-(Q6-G)*%
X134800000Y-127600000D02*
X135798051Y-127600000D01*
X121955000Y-126445000D02*
X122425000Y-126445000D01*
X120600000Y-127600000D02*
X120800000Y-127600000D01*
X136162923Y-129837628D02*
X136162923Y-127885128D01*
X120800000Y-127600000D02*
X121955000Y-126445000D01*
X135798051Y-127600000D02*
X135837923Y-127560128D01*
X136162923Y-127885128D02*
X135837923Y-127560128D01*
%TO.N,Net-(Q8-G)*%
X134200000Y-125800000D02*
X134200000Y-130699705D01*
X135800000Y-124200000D02*
X134200000Y-125800000D01*
X134200000Y-130699705D02*
X135212923Y-131712628D01*
%TO.N,Net-(Q10-G)*%
X112076000Y-125324000D02*
X110755000Y-126645000D01*
X110755000Y-126645000D02*
X110175000Y-126645000D01*
X110240561Y-126710561D02*
X110590107Y-126710561D01*
X122000000Y-118400000D02*
X123937500Y-118400000D01*
X122000000Y-122431255D02*
X119107255Y-125324000D01*
X110175000Y-126645000D02*
X110240561Y-126710561D01*
X122000000Y-118400000D02*
X122000000Y-122431255D01*
X119107255Y-125324000D02*
X112076000Y-125324000D01*
%TO.N,Net-(Q11-G)*%
X114651325Y-95204665D02*
X116476325Y-95204665D01*
%TO.N,TP20*%
X121200000Y-85881065D02*
X121200000Y-91000000D01*
X121404775Y-49481406D02*
X121404775Y-76193030D01*
X121073959Y-95722257D02*
X121073959Y-91126041D01*
X120605203Y-84654332D02*
X120605203Y-85286268D01*
X118526325Y-95979665D02*
X120816551Y-95979665D01*
X120937668Y-79359043D02*
X120401732Y-79894979D01*
X120865235Y-84394300D02*
X120605203Y-84654332D01*
X120401732Y-83182797D02*
X120865235Y-83646300D01*
X120561500Y-77036305D02*
X120561500Y-77784305D01*
X120865235Y-83646300D02*
X120865235Y-84394300D01*
X120401732Y-79894979D02*
X120401732Y-83182797D01*
X120816551Y-95979665D02*
X121073959Y-95722257D01*
X120605203Y-85286268D02*
X121200000Y-85881065D01*
X120937668Y-78160473D02*
X120937668Y-79359043D01*
X121404775Y-76193030D02*
X120561500Y-77036305D01*
X120561500Y-77784305D02*
X120937668Y-78160473D01*
X121073959Y-91126041D02*
X121200000Y-91000000D01*
%TO.N,TP21*%
X114529898Y-101470102D02*
X114529898Y-102410813D01*
X111000000Y-69800000D02*
X110967954Y-69832046D01*
X126930388Y-62530388D02*
X127400000Y-63000000D01*
X117930602Y-100085261D02*
X115914739Y-100085261D01*
X115914739Y-100085261D02*
X114529898Y-101470102D01*
X110967954Y-69832046D02*
X110967954Y-87380890D01*
X118270076Y-100424735D02*
X117930602Y-100085261D01*
X112200000Y-94800000D02*
X113000000Y-94800000D01*
X111092954Y-93692954D02*
X112200000Y-94800000D01*
X111092954Y-87505890D02*
X111092954Y-93692954D01*
X113000000Y-94800000D02*
X113000000Y-99940204D01*
X127400000Y-63000000D02*
X127400000Y-69800000D01*
X125986450Y-62530388D02*
X126930388Y-62530388D01*
X110967954Y-87380890D02*
X111092954Y-87505890D01*
X113000000Y-99940204D02*
X114529898Y-101470102D01*
%TO.N,Net-(Q12-G)*%
X119539593Y-103360813D02*
X119723160Y-103544380D01*
X116404898Y-103360813D02*
X119539593Y-103360813D01*
%TO.N,Net-(Q13-G)*%
X98809032Y-107099000D02*
X100074000Y-107099000D01*
X97250000Y-108137500D02*
X97770532Y-108137500D01*
X97770532Y-108137500D02*
X98809032Y-107099000D01*
X100074000Y-107099000D02*
X101000000Y-108025000D01*
%TO.N,Net-(Q14-G)*%
X84783764Y-107961692D02*
X84449192Y-107961692D01*
X84449192Y-107961692D02*
X82950000Y-106462500D01*
%TO.N,TP12*%
X141200000Y-114000000D02*
X141200000Y-120488756D01*
X139600000Y-102600000D02*
X139600000Y-112400000D01*
X139575000Y-122113756D02*
X139575000Y-123650000D01*
X140200000Y-102000000D02*
X139600000Y-102600000D01*
X141200000Y-120488756D02*
X139575000Y-122113756D01*
X139600000Y-112400000D02*
X141200000Y-114000000D01*
X139620000Y-123650000D02*
X139575000Y-123650000D01*
%TO.N,TP11*%
X144070000Y-130970876D02*
X144070000Y-134800000D01*
X88000000Y-134800000D02*
X87800000Y-134800000D01*
X85599000Y-132599000D02*
X85599000Y-122321083D01*
X85599000Y-122321083D02*
X86400000Y-121520082D01*
X86400000Y-105800000D02*
X83800000Y-103200000D01*
X142969158Y-130606229D02*
X143705353Y-130606229D01*
X144070000Y-130970876D02*
X143705353Y-130606229D01*
X87800000Y-134800000D02*
X85599000Y-132599000D01*
X86400000Y-121520082D02*
X86400000Y-105800000D01*
X83800000Y-103200000D02*
X83800000Y-96200000D01*
%TO.N,B5_U2*%
X140800000Y-103423032D02*
X141223032Y-103000000D01*
X141205001Y-104930000D02*
X140800000Y-104524999D01*
X194004170Y-81174543D02*
X194004170Y-82995830D01*
X141223032Y-103000000D02*
X146800000Y-103000000D01*
X142230000Y-104930000D02*
X141205001Y-104930000D01*
X194004170Y-82995830D02*
X194000000Y-83000000D01*
X147600000Y-102200000D02*
X148600000Y-101200000D01*
X140800000Y-104524999D02*
X140800000Y-103423032D01*
X146800000Y-103000000D02*
X147600000Y-102200000D01*
X148600000Y-101200000D02*
X148600000Y-81200000D01*
%TO.N,A4_U2*%
X123480586Y-104792851D02*
X119564838Y-104792851D01*
X101000000Y-103400000D02*
X101000000Y-106375000D01*
X113392851Y-104792851D02*
X111800000Y-103200000D01*
X101200000Y-103200000D02*
X101000000Y-103400000D01*
X127800000Y-106425875D02*
X125113610Y-106425875D01*
X125113610Y-106425875D02*
X123480586Y-104792851D01*
X132092815Y-107470000D02*
X131048690Y-106425875D01*
X132930000Y-107470000D02*
X132092815Y-107470000D01*
X119564838Y-104792851D02*
X113392851Y-104792851D01*
%TO.N,A1_U2*%
X123460261Y-100460261D02*
X121393579Y-100460261D01*
X132930000Y-103660000D02*
X126660000Y-103660000D01*
X126660000Y-103660000D02*
X123460261Y-100460261D01*
%TO.N,A7_U2*%
X134120000Y-111280000D02*
X132930000Y-111280000D01*
X135800000Y-109600000D02*
X134120000Y-111280000D01*
X191464170Y-82664170D02*
X191600000Y-82800000D01*
X135800000Y-82000000D02*
X135800000Y-109600000D01*
X191464170Y-81174543D02*
X191464170Y-82664170D01*
%TO.N,B4_U2*%
X138250000Y-122550000D02*
X140600000Y-120200000D01*
X140600000Y-120200000D02*
X140600000Y-113967100D01*
X139000000Y-112367100D02*
X139000000Y-111000000D01*
X139416450Y-112783550D02*
X139000000Y-112367100D01*
X135800000Y-122550000D02*
X138250000Y-122550000D01*
X140600000Y-113967100D02*
X139416450Y-112783550D01*
%TO.N,B2_U2*%
X144600000Y-107492851D02*
X143352851Y-108740000D01*
X103200000Y-94942138D02*
X103200000Y-104600000D01*
X144600000Y-105200000D02*
X144600000Y-107492851D01*
X144200000Y-104600000D02*
X144600000Y-105000000D01*
X143352851Y-108740000D02*
X142230000Y-108740000D01*
X102391867Y-94134005D02*
X103200000Y-94942138D01*
%TO.N,A6_U2*%
X192800000Y-81240373D02*
X192734170Y-81174543D01*
X192800000Y-82800000D02*
X192800000Y-81240373D01*
%TO.N,A5_U2*%
X84800000Y-105200000D02*
X84800000Y-106080710D01*
X132930000Y-108740000D02*
X131460000Y-108740000D01*
X131460000Y-108740000D02*
X131400000Y-108800000D01*
X84800000Y-106080710D02*
X84875494Y-106156204D01*
%TO.N,A0_U2*%
X126790000Y-102390000D02*
X123000000Y-98600000D01*
X123000000Y-98600000D02*
X121800000Y-98600000D01*
X121800000Y-98600000D02*
X121089435Y-97889435D01*
X132930000Y-102390000D02*
X126790000Y-102390000D01*
X121089435Y-97889435D02*
X121089435Y-97295983D01*
%TO.N,B1_U2*%
X87000000Y-96000000D02*
X86800000Y-95800000D01*
X139400000Y-102232900D02*
X139000000Y-102632900D01*
X143799000Y-110010000D02*
X142230000Y-110010000D01*
X139400000Y-95800000D02*
X139400000Y-102232900D01*
X139000000Y-102632900D02*
X139000000Y-109800000D01*
X87975000Y-96000000D02*
X87000000Y-96000000D01*
%TO.N,B3_U2*%
X129575000Y-107400000D02*
X129400000Y-107575000D01*
X143762142Y-107470000D02*
X142230000Y-107470000D01*
X143815422Y-107416720D02*
X143762142Y-107470000D01*
X131000000Y-107400000D02*
X129575000Y-107400000D01*
%TO.N,A3_U2*%
X140710086Y-126400000D02*
X139548139Y-125238053D01*
X143800000Y-125800000D02*
X143200000Y-126400000D01*
X143200000Y-126400000D02*
X140710086Y-126400000D01*
X140000000Y-112200000D02*
X143800000Y-116000000D01*
X143800000Y-116000000D02*
X143800000Y-125800000D01*
%TO.N,Net-(J4-Pad2)*%
X153965000Y-117200000D02*
X153930000Y-117235000D01*
X155600000Y-117200000D02*
X153965000Y-117200000D01*
%TO.N,Net-(J4-Pad8)*%
X189330000Y-119870000D02*
X186240000Y-122960000D01*
X186240000Y-122960000D02*
X181460000Y-122960000D01*
X189330000Y-117250000D02*
X189330000Y-119870000D01*
%TO.N,Net-(J4-Pad6)*%
X177600000Y-117320000D02*
X177530000Y-117250000D01*
X177600000Y-118400000D02*
X177600000Y-117320000D01*
%TO.N,Net-(J4-Pad1)*%
X148800000Y-117400000D02*
X147095000Y-117400000D01*
X147095000Y-117400000D02*
X146930000Y-117235000D01*
%TO.N,Net-(J4-Pad7)*%
X182200000Y-118600000D02*
X182200000Y-117380000D01*
X182200000Y-117380000D02*
X182330000Y-117250000D01*
%TO.N,Net-(J4-Pad3)*%
X160035000Y-117235000D02*
X160200000Y-117400000D01*
X158530000Y-117235000D02*
X160035000Y-117235000D01*
%TO.N,Net-(J4-Pad5)*%
X172800000Y-117200000D02*
X172750000Y-117250000D01*
X172750000Y-117250000D02*
X170530000Y-117250000D01*
%TO.N,Net-(J4-Pad4)*%
X165565000Y-117200000D02*
X165530000Y-117235000D01*
X167000000Y-117200000D02*
X165565000Y-117200000D01*
%TO.N,Net-(J5-Pad7)*%
X158790000Y-125545000D02*
X158790000Y-122610000D01*
X178800000Y-116200000D02*
X179950000Y-115050000D01*
X159600000Y-121800000D02*
X168000000Y-121800000D01*
X168000000Y-121800000D02*
X170200000Y-119600000D01*
X179950000Y-115050000D02*
X182330000Y-115050000D01*
X176000000Y-116200000D02*
X178800000Y-116200000D01*
X158790000Y-122610000D02*
X159600000Y-121800000D01*
X170200000Y-119600000D02*
X172600000Y-119600000D01*
X172600000Y-119600000D02*
X176000000Y-116200000D01*
%TO.N,Net-(J5-Pad1)*%
X151170000Y-125545000D02*
X149945000Y-125545000D01*
X144600000Y-116200000D02*
X145765000Y-115035000D01*
X144600000Y-120200000D02*
X144600000Y-116200000D01*
X149945000Y-125545000D02*
X144600000Y-120200000D01*
X145765000Y-115035000D02*
X146930000Y-115035000D01*
%TO.N,Net-(J5-Pad4)*%
X160200000Y-119000000D02*
X158000000Y-119000000D01*
X154980000Y-122020000D02*
X154980000Y-123005000D01*
X158000000Y-119000000D02*
X154980000Y-122020000D01*
X165530000Y-115035000D02*
X164165000Y-115035000D01*
X164165000Y-115035000D02*
X160200000Y-119000000D01*
%TO.N,Net-(J5-Pad2)*%
X151600000Y-116400000D02*
X151600000Y-122165000D01*
X152965000Y-115035000D02*
X151600000Y-116400000D01*
X153930000Y-115035000D02*
X152965000Y-115035000D01*
X151600000Y-122165000D02*
X152440000Y-123005000D01*
%TO.N,Net-(J5-Pad5)*%
X160200000Y-120600000D02*
X164600000Y-116200000D01*
X168000000Y-116200000D02*
X169150000Y-115050000D01*
X158200000Y-120600000D02*
X160200000Y-120600000D01*
X169150000Y-115050000D02*
X170530000Y-115050000D01*
X156250000Y-125545000D02*
X156250000Y-122550000D01*
X164600000Y-116200000D02*
X168000000Y-116200000D01*
X156250000Y-122550000D02*
X158200000Y-120600000D01*
%TO.N,Net-(J5-Pad6)*%
X157520000Y-123005000D02*
X159125000Y-121400000D01*
X169200000Y-116200000D02*
X174200000Y-116200000D01*
X159125000Y-121400000D02*
X164000000Y-121400000D01*
X175350000Y-115050000D02*
X177530000Y-115050000D01*
X174200000Y-116200000D02*
X175350000Y-115050000D01*
X164000000Y-121400000D02*
X169200000Y-116200000D01*
%TO.N,Net-(J5-Pad3)*%
X158001936Y-115035000D02*
X158530000Y-115035000D01*
X153710000Y-121090000D02*
X156400000Y-118400000D01*
X156400000Y-116636936D02*
X158001936Y-115035000D01*
X153710000Y-125545000D02*
X153710000Y-121090000D01*
X156400000Y-118400000D02*
X156400000Y-116636936D01*
%TO.N,Net-(J5-Pad8)*%
X171000000Y-120800000D02*
X181600000Y-120800000D01*
X160060000Y-123005000D02*
X160465000Y-122600000D01*
X169200000Y-122600000D02*
X171000000Y-120800000D01*
X181600000Y-120800000D02*
X187350000Y-115050000D01*
X187350000Y-115050000D02*
X189330000Y-115050000D01*
X160465000Y-122600000D02*
X169200000Y-122600000D01*
%TO.N,Net-(K5-Pad4)*%
X163825000Y-94050000D02*
X163657655Y-94050000D01*
X161930000Y-95777655D02*
X161930000Y-96250000D01*
X165888313Y-94050000D02*
X163825000Y-94050000D01*
X163657655Y-94050000D02*
X161930000Y-95777655D01*
%TO.N,B0_U3_U12*%
X169530000Y-101130000D02*
X169530000Y-103250000D01*
X169400000Y-101000000D02*
X169530000Y-101130000D01*
X190194170Y-86124543D02*
X190173170Y-86145543D01*
X190173170Y-86145543D02*
X190173170Y-101173170D01*
X190173170Y-101173170D02*
X190200000Y-101200000D01*
%TO.N,TP17*%
X163200000Y-97800000D02*
X164130000Y-96870000D01*
X160800000Y-90000000D02*
X160800000Y-97400000D01*
X160800000Y-97400000D02*
X161200000Y-97800000D01*
X161200000Y-97800000D02*
X163200000Y-97800000D01*
X164130000Y-96870000D02*
X164130000Y-96250000D01*
%TO.N,B4_U3_U12*%
X112200000Y-72400000D02*
X112600000Y-72000000D01*
X111800000Y-85589461D02*
X112200000Y-85189461D01*
X188924170Y-84694354D02*
X188924170Y-86124543D01*
X112200000Y-85189461D02*
X112200000Y-72400000D01*
X188824269Y-84594453D02*
X188924170Y-84694354D01*
X112600000Y-72000000D02*
X114100000Y-72000000D01*
%TO.N,Net-(D2-VDD)*%
X108248134Y-77400000D02*
X107100000Y-77400000D01*
X108461881Y-85704073D02*
X109000000Y-85165954D01*
X117038089Y-88000000D02*
X117444660Y-87593429D01*
X109000000Y-78151866D02*
X108248134Y-77400000D01*
X108461881Y-87422183D02*
X108461881Y-85704073D01*
X117638089Y-87400000D02*
X117444660Y-87593429D01*
X118600000Y-87400000D02*
X117638089Y-87400000D01*
X115633380Y-88000000D02*
X117038089Y-88000000D01*
X109000000Y-85165954D02*
X109000000Y-78151866D01*
%TO.N,Net-(D2-DO)*%
X113803380Y-88000000D02*
X111800000Y-88000000D01*
X111800000Y-88000000D02*
X111793954Y-87993954D01*
%TO.N,Net-(D2-DI)*%
X115400000Y-87000000D02*
X114982380Y-87417620D01*
X114982380Y-87417620D02*
X114982380Y-88556186D01*
X115526194Y-89100000D02*
X115633380Y-89100000D01*
X115400000Y-77800000D02*
X115400000Y-87000000D01*
X114100000Y-77400000D02*
X115000000Y-77400000D01*
X114982380Y-88556186D02*
X115526194Y-89100000D01*
X115000000Y-77400000D02*
X115400000Y-77800000D01*
%TO.N,TP24*%
X80884240Y-84800000D02*
X82800000Y-84800000D01*
X80011000Y-83926760D02*
X80884240Y-84800000D01*
X114100000Y-84300000D02*
X114100000Y-79600000D01*
X114096709Y-84303291D02*
X114100000Y-84300000D01*
X114096709Y-84895064D02*
X114096709Y-84303291D01*
X78860000Y-80910000D02*
X80011000Y-82061000D01*
X80011000Y-82061000D02*
X80011000Y-83926760D01*
%TO.N,B5_U3_U12*%
X189280000Y-109600000D02*
X189330000Y-109650000D01*
X164000000Y-109600000D02*
X165495000Y-109600000D01*
X176000000Y-109650000D02*
X176000000Y-91600000D01*
X185400000Y-88600000D02*
X186384170Y-87615830D01*
X176000000Y-109650000D02*
X177530000Y-109650000D01*
X179000000Y-88600000D02*
X185400000Y-88600000D01*
X187800000Y-109600000D02*
X189280000Y-109600000D01*
X176000000Y-91600000D02*
X179000000Y-88600000D01*
X186384170Y-87615830D02*
X186384170Y-86124543D01*
X187654170Y-86124543D02*
X186384170Y-86124543D01*
X153965000Y-109600000D02*
X153930000Y-109635000D01*
X155600000Y-109600000D02*
X153965000Y-109600000D01*
X165495000Y-109600000D02*
X165530000Y-109635000D01*
%TO.N,Net-(Q15-G)*%
X139375000Y-86200000D02*
X139375000Y-87620000D01*
X139375000Y-87620000D02*
X139455000Y-87700000D01*
%TO.N,TP_GPIO32*%
X141330000Y-90070000D02*
X141330000Y-88650000D01*
X138800000Y-99600000D02*
X138800000Y-92600000D01*
X138800000Y-92600000D02*
X141330000Y-90070000D01*
%TO.N,Net-(Q16-G)*%
X90400000Y-107800000D02*
X92285540Y-107800000D01*
D63*
%TO.N,TP_GPIO16*%
X86600000Y-98669433D02*
X86600000Y-104925000D01*
X86600000Y-104925000D02*
X88525000Y-106850000D01*
X86580967Y-98650400D02*
X86600000Y-98669433D01*
D62*
%TO.N,TP_GPIO36*%
X141400000Y-73200000D02*
X141313181Y-73286819D01*
X141313181Y-73286819D02*
X141313181Y-76022805D01*
%TO.N,Net-(Q17-G)*%
X137463637Y-75072805D02*
X137385308Y-75151134D01*
X139438181Y-75072805D02*
X137463637Y-75072805D01*
%TO.N,WS2812_IN*%
X180399000Y-74899000D02*
X180399000Y-85601000D01*
X110175000Y-88800000D02*
X110175000Y-91200000D01*
X110200000Y-93800000D02*
X110175000Y-93775000D01*
X110175000Y-93775000D02*
X110175000Y-91200000D01*
X182140000Y-73158000D02*
X180399000Y-74899000D01*
X182140000Y-69200000D02*
X182140000Y-73158000D01*
X175000000Y-91000000D02*
X175000000Y-94400000D01*
X110143954Y-88768954D02*
X110143954Y-87993954D01*
X110143954Y-88768954D02*
X110175000Y-88800000D01*
X180399000Y-85601000D02*
X175000000Y-91000000D01*
%TO.N,B3_U3*%
X192044170Y-92244170D02*
X192000000Y-92200000D01*
X138000000Y-91600000D02*
X138000000Y-77415826D01*
X138000000Y-77415826D02*
X135735308Y-75151134D01*
X192044170Y-93924543D02*
X192044170Y-92244170D01*
%TO.N,B1_U3*%
X141025000Y-86200000D02*
X142400000Y-86200000D01*
%TO.N,B4_U3*%
X190795170Y-93903543D02*
X190774170Y-93924543D01*
X188924170Y-82691270D02*
X190795170Y-84562270D01*
X190795170Y-84562270D02*
X190795170Y-93903543D01*
X188924170Y-81174543D02*
X188924170Y-82691270D01*
%TO.N,B2_U3*%
X94200000Y-104200000D02*
X94066806Y-104333194D01*
X94066806Y-104333194D02*
X94066806Y-107668734D01*
%TO.N,B5_U3*%
X189593170Y-84513411D02*
X189593170Y-93835543D01*
X189593170Y-93835543D02*
X189504170Y-93924543D01*
X186384170Y-81174543D02*
X187654170Y-81174543D01*
X187654170Y-82574411D02*
X189593170Y-84513411D01*
X187654170Y-81174543D02*
X187654170Y-82574411D01*
%TO.N,TP9*%
X111932958Y-47481855D02*
X111932958Y-48932958D01*
X111932958Y-48932958D02*
X112000000Y-49000000D01*
X111800000Y-48800000D02*
X112000000Y-49000000D01*
X111000000Y-48800000D02*
X111800000Y-48800000D01*
%TO.N,Net-(D3-A)*%
X127340000Y-77450000D02*
X127340000Y-79260000D01*
X126464957Y-80135043D02*
X121350732Y-80135043D01*
X127340000Y-79260000D02*
X126464957Y-80135043D01*
%TO.N,Net-(D3-K)*%
X124727273Y-77377273D02*
X124800000Y-77450000D01*
X121600000Y-77377273D02*
X124727273Y-77377273D01*
%TO.N,Net-(D4-A)*%
X127050000Y-81800000D02*
X127050000Y-85660000D01*
X127050000Y-85660000D02*
X127340000Y-85950000D01*
%TO.N,Net-(D4-K)*%
X121701735Y-84937268D02*
X123787268Y-84937268D01*
X123787268Y-84937268D02*
X124800000Y-85950000D01*
%TO.N,Net-(Q18-G)*%
X119725000Y-76427273D02*
X117602273Y-76427273D01*
X117722727Y-76427273D02*
X117600000Y-76550000D01*
X117602273Y-76427273D02*
X117600000Y-76425000D01*
%TO.N,Net-(Q19-G)*%
X117867594Y-83987268D02*
X117762573Y-84092289D01*
X119826735Y-83987268D02*
X117867594Y-83987268D01*
%TO.N,LED_GOOD*%
X117600000Y-74775000D02*
X117600000Y-72200000D01*
%TO.N,LED_BAD*%
X117600000Y-80000000D02*
X116200000Y-81400000D01*
X116200000Y-81400000D02*
X116200000Y-84179716D01*
X116200000Y-84179716D02*
X117762573Y-85742289D01*
%TO.N,Net-(U15-A)*%
X153445000Y-47000000D02*
X153445000Y-52075000D01*
%TO.N,Net-(U16-O1)*%
X154555000Y-56325000D02*
X154555000Y-54835000D01*
X154555000Y-54835000D02*
X153445000Y-53725000D01*
%TO.N,Net-(U15-B)*%
X155215000Y-47200000D02*
X155215000Y-48825000D01*
%TO.N,Net-(U16-O2)*%
X155215000Y-54153712D02*
X155215000Y-50475000D01*
X155825000Y-56325000D02*
X155825000Y-54763712D01*
X155825000Y-54763712D02*
X155215000Y-54153712D01*
%TO.N,Net-(U15-C)*%
X156681998Y-47108814D02*
X156715000Y-47141816D01*
X156715000Y-47141816D02*
X156715000Y-52075000D01*
%TO.N,Net-(U16-O3)*%
X157095000Y-55054227D02*
X156709730Y-54668957D01*
X157095000Y-56325000D02*
X157095000Y-55054227D01*
X156715000Y-54663687D02*
X156715000Y-53725000D01*
X156709730Y-54668957D02*
X156715000Y-54663687D01*
%TO.N,Net-(U16-O4)*%
X158215000Y-54417501D02*
X158215000Y-50325000D01*
X158365000Y-56325000D02*
X158365000Y-54567501D01*
X158365000Y-54567501D02*
X158215000Y-54417501D01*
%TO.N,Net-(U15-D)*%
X158200000Y-48660000D02*
X158215000Y-48675000D01*
X158200000Y-47600000D02*
X158200000Y-48660000D01*
%TO.N,Net-(U15-E)*%
X159715000Y-47915000D02*
X159715000Y-52075000D01*
X159600000Y-47800000D02*
X159715000Y-47915000D01*
%TO.N,Net-(U16-O5)*%
X159635000Y-56325000D02*
X159635000Y-53805000D01*
X159635000Y-53805000D02*
X159715000Y-53725000D01*
%TO.N,Net-(U15-F)*%
X161215000Y-47584000D02*
X161400000Y-47399000D01*
X161215000Y-48825000D02*
X161215000Y-47584000D01*
%TO.N,Net-(U16-O6)*%
X160905000Y-54458948D02*
X161215000Y-54148948D01*
X161215000Y-54148948D02*
X161215000Y-50475000D01*
X160905000Y-56325000D02*
X160905000Y-54458948D01*
%TO.N,Net-(U15-G)*%
X162800000Y-47800000D02*
X162715000Y-47885000D01*
X162715000Y-47885000D02*
X162715000Y-52000000D01*
%TO.N,Net-(U16-O7)*%
X162715764Y-54529208D02*
X162715000Y-54528444D01*
X162175000Y-56325000D02*
X162175000Y-55069972D01*
X162715000Y-54528444D02*
X162715000Y-53650000D01*
X162175000Y-55069972D02*
X162715764Y-54529208D01*
%TO.N,Net-(U14-B)*%
X183004000Y-50104000D02*
X183004000Y-48135600D01*
X181231121Y-46362721D02*
X168729260Y-46362721D01*
X167045000Y-48046981D02*
X167045000Y-51827500D01*
X168729260Y-46362721D02*
X167045000Y-48046981D01*
X183004000Y-48135600D02*
X181231121Y-46362721D01*
X185080000Y-52180000D02*
X183004000Y-50104000D01*
%TO.N,Net-(U17-O2)*%
X167295000Y-54886589D02*
X167045000Y-54636589D01*
X167295000Y-56525000D02*
X167295000Y-54886589D01*
X167045000Y-54636589D02*
X167045000Y-53477500D01*
%TO.N,Net-(U17-O4)*%
X170045000Y-54724071D02*
X170045000Y-53477500D01*
X169835000Y-54934071D02*
X170045000Y-54724071D01*
X169835000Y-56525000D02*
X169835000Y-54934071D01*
%TO.N,Net-(U14-D)*%
X170531245Y-47164721D02*
X170042998Y-47652968D01*
X180898921Y-47164721D02*
X170531245Y-47164721D01*
X170045000Y-47654970D02*
X170045000Y-51827500D01*
X182202000Y-48467800D02*
X180898921Y-47164721D01*
X180000000Y-59800000D02*
X182202000Y-57598000D01*
X170042998Y-47652968D02*
X170045000Y-47654970D01*
X182202000Y-57598000D02*
X182202000Y-48467800D01*
%TO.N,Net-(U17-O6)*%
X172375000Y-56525000D02*
X172375000Y-55152907D01*
X173045000Y-54482907D02*
X173045000Y-53477500D01*
X172375000Y-55152907D02*
X173045000Y-54482907D01*
%TO.N,Net-(U14-F)*%
X177096500Y-49276500D02*
X173806936Y-49276500D01*
X173519000Y-49564436D02*
X173519000Y-49571000D01*
X173519000Y-49571000D02*
X173045000Y-50045000D01*
X173806936Y-49276500D02*
X173519000Y-49564436D01*
X173045000Y-50045000D02*
X173045000Y-51827500D01*
X180000000Y-52180000D02*
X177096500Y-49276500D01*
%TO.N,Net-(U17-O1)*%
X165545000Y-54697142D02*
X165545000Y-49977500D01*
X166025000Y-55177142D02*
X165545000Y-54697142D01*
X166025000Y-56525000D02*
X166025000Y-55177142D01*
%TO.N,Net-(U14-A)*%
X167910779Y-45961721D02*
X165545000Y-48327500D01*
X181401721Y-45961721D02*
X167910779Y-45961721D01*
X185080000Y-49640000D02*
X181401721Y-45961721D01*
%TO.N,Net-(U17-O3)*%
X168565000Y-56525000D02*
X168565000Y-49997500D01*
X168565000Y-49997500D02*
X168545000Y-49977500D01*
%TO.N,Net-(U14-C)*%
X182603000Y-48301700D02*
X181065021Y-46763721D01*
X182603000Y-52243000D02*
X182603000Y-48301700D01*
X181065021Y-46763721D02*
X170108779Y-46763721D01*
X185080000Y-54720000D02*
X182603000Y-52243000D01*
X170108779Y-46763721D02*
X168545000Y-48327500D01*
%TO.N,Net-(U17-O5)*%
X171545000Y-54357393D02*
X171545000Y-49977500D01*
X171549613Y-54362006D02*
X171545000Y-54357393D01*
X171105000Y-54806619D02*
X171549613Y-54362006D01*
X171105000Y-56525000D02*
X171105000Y-54806619D01*
%TO.N,Net-(U14-E)*%
X180000000Y-57260000D02*
X181801000Y-55459000D01*
X181801000Y-48633900D02*
X180759037Y-47591937D01*
X181801000Y-55459000D02*
X181801000Y-48633900D01*
X172280563Y-47591937D02*
X171545000Y-48327500D01*
X180759037Y-47591937D02*
X172280563Y-47591937D01*
%TO.N,Net-(U17-O7)*%
X174295000Y-54514790D02*
X174295000Y-49977500D01*
X173645000Y-55164790D02*
X174295000Y-54514790D01*
X173645000Y-56525000D02*
X173645000Y-55164790D01*
%TO.N,Net-(U14-G)*%
X181400000Y-48800000D02*
X180600000Y-48000000D01*
X174306719Y-48327500D02*
X174295000Y-48327500D01*
X181400000Y-53320000D02*
X181400000Y-48800000D01*
X174672483Y-48000000D02*
X174325851Y-48346632D01*
X180600000Y-48000000D02*
X174672483Y-48000000D01*
X180000000Y-54720000D02*
X181400000Y-53320000D01*
X174325851Y-48346632D02*
X174306719Y-48327500D01*
%TO.N,7SEG_G_0*%
X162175000Y-63702135D02*
X162175000Y-61275000D01*
X164360000Y-69200000D02*
X163110925Y-67950925D01*
X163110925Y-64638060D02*
X162175000Y-63702135D01*
X163110925Y-67950925D02*
X163110925Y-64638060D01*
%TO.N,7SEG_E_0*%
X159635000Y-66305000D02*
X159280000Y-66660000D01*
X159635000Y-61275000D02*
X159635000Y-66305000D01*
%TO.N,7SEG_E_1*%
X171980000Y-66660000D02*
X171105000Y-65785000D01*
X171105000Y-65785000D02*
X171105000Y-61475000D01*
%TO.N,7SEG_B_0*%
X154200000Y-66660000D02*
X154200000Y-64600000D01*
X155825000Y-60575000D02*
X155825000Y-61275000D01*
X155825000Y-62975000D02*
X155825000Y-61275000D01*
X154200000Y-64600000D02*
X155825000Y-62975000D01*
%TO.N,7SEG_D_0*%
X158365000Y-61275000D02*
X158217000Y-61423000D01*
X158217000Y-68137000D02*
X159280000Y-69200000D01*
X158217000Y-61423000D02*
X158217000Y-68137000D01*
%TO.N,7SEG_D_1*%
X169835000Y-63152899D02*
X169841000Y-63158899D01*
X170503000Y-68137000D02*
X169440000Y-69200000D01*
X169835000Y-61475000D02*
X169835000Y-63152899D01*
X170503000Y-64000000D02*
X170503000Y-68137000D01*
X169841000Y-63158899D02*
X169841000Y-63338000D01*
X169841000Y-63338000D02*
X170503000Y-64000000D01*
%TO.N,7SEG_C_1*%
X169440000Y-64440000D02*
X169440000Y-66660000D01*
X168565000Y-62524868D02*
X168601000Y-62560868D01*
X168601000Y-62560868D02*
X168601000Y-63601000D01*
X168601000Y-63601000D02*
X169440000Y-64440000D01*
X168565000Y-61475000D02*
X168565000Y-62524868D01*
%TO.N,7SEG_B_1*%
X167295000Y-64095000D02*
X168200000Y-65000000D01*
X168200000Y-65000000D02*
X168200000Y-67900000D01*
X168200000Y-67900000D02*
X166900000Y-69200000D01*
X167295000Y-61475000D02*
X167295000Y-64095000D01*
%TO.N,7SEG_F_0*%
X160905000Y-61275000D02*
X160905000Y-65745000D01*
X160905000Y-65745000D02*
X161820000Y-66660000D01*
%TO.N,7SEG_A_1*%
X166025000Y-61475000D02*
X166025000Y-65785000D01*
X166025000Y-65785000D02*
X166900000Y-66660000D01*
%TO.N,7SEG_A_0*%
X153137000Y-62693000D02*
X153137000Y-68137000D01*
X153137000Y-68137000D02*
X154200000Y-69200000D01*
X154555000Y-61275000D02*
X153137000Y-62693000D01*
%TO.N,7SEG_G_1*%
X184680000Y-63680000D02*
X184680000Y-66660000D01*
X173645000Y-60355000D02*
X174400000Y-59600000D01*
X176600000Y-59600000D02*
X179400000Y-62400000D01*
X174400000Y-59600000D02*
X176600000Y-59600000D01*
X173645000Y-61475000D02*
X173645000Y-60355000D01*
X183400000Y-62400000D02*
X184680000Y-63680000D01*
X179400000Y-62400000D02*
X183400000Y-62400000D01*
%TO.N,7SEG_F_1*%
X172375000Y-60025000D02*
X173400000Y-59000000D01*
X185743000Y-64143000D02*
X185743000Y-68137000D01*
X176567100Y-59000000D02*
X179483550Y-61916450D01*
X173400000Y-59000000D02*
X176567100Y-59000000D01*
X185743000Y-68137000D02*
X184680000Y-69200000D01*
X179483550Y-61916450D02*
X183516450Y-61916450D01*
X172375000Y-61475000D02*
X172375000Y-60025000D01*
X183516450Y-61916450D02*
X185743000Y-64143000D01*
%TO.N,7SEG_C_0*%
X155400000Y-65600000D02*
X155400000Y-67860000D01*
X155400000Y-67860000D02*
X156740000Y-69200000D01*
X157095000Y-61275000D02*
X157095000Y-63905000D01*
X157095000Y-63905000D02*
X155400000Y-65600000D01*
%TO.N,Net-(Q7-D)*%
X126262500Y-112600000D02*
X128462500Y-112600000D01*
%TO.N,Net-(Q9-D)*%
X126862500Y-118400000D02*
X129062500Y-118400000D01*
%TO.N,TP9*%
X86800000Y-65800000D02*
X86897690Y-65800000D01*
X86897690Y-65800000D02*
X87000096Y-65697594D01*
X87000000Y-65200000D02*
X87000000Y-51786772D01*
X87000096Y-65697594D02*
X87000096Y-65200096D01*
X87000096Y-65200096D02*
X87000000Y-65200000D01*
X87000000Y-51786772D02*
X86973020Y-51759792D01*
%TO.N,AIN0_U4*%
X89969357Y-61928060D02*
X89969357Y-63628351D01*
X93200000Y-60400000D02*
X91497417Y-60400000D01*
X91497417Y-60400000D02*
X89969357Y-61928060D01*
%TO.N,B3_U2*%
X147975000Y-107200000D02*
X147000000Y-107200000D01*
%TO.N,B0_U2*%
X145400000Y-106200000D02*
X145000000Y-106600000D01*
X145000000Y-107659951D02*
X144399000Y-108260951D01*
X145000000Y-106600000D02*
X145000000Y-107659951D01*
X144399000Y-108260951D02*
X144399000Y-110601000D01*
X144399000Y-110601000D02*
X143720000Y-111280000D01*
X143720000Y-111280000D02*
X142230000Y-111280000D01*
%TO.N,B6_U2*%
X139800000Y-130600000D02*
X144200000Y-126200000D01*
X144200000Y-126200000D02*
X144200000Y-114600000D01*
X144200000Y-114600000D02*
X144800000Y-114000000D01*
X139775000Y-130600000D02*
X139800000Y-130600000D01*
X144800000Y-114000000D02*
X144800000Y-109000000D01*
X144800000Y-109000000D02*
X146400000Y-107400000D01*
X146400000Y-104550057D02*
X145509943Y-103660000D01*
X146400000Y-107400000D02*
X146400000Y-104550057D01*
X145509943Y-103660000D02*
X142230000Y-103660000D01*
%TD*%
M02*
