%TF.GenerationSoftware,KiCad,Pcbnew,9.0.2*%
%TF.CreationDate,2025-11-22T23:55:58+01:00*%
%TF.ProjectId,playduino_sheep_tester,706c6179-6475-4696-9e6f-5f7368656570,rev?*%
%TF.SameCoordinates,Original*%
%TF.FileFunction,Legend,Bot*%
%TF.FilePolarity,Positive*%
%FSLAX46Y46*%
G04 Gerber Fmt 4.6, Leading zero omitted, Abs format (unit mm)*
G04 Created by KiCad (PCBNEW 9.0.2) date 2025-11-22 23:55:58*
%MOMM*%
%LPD*%
G01*
G04 APERTURE LIST*
G04 Aperture macros list*
%AMRoundRect*
0 Rectangle with rounded corners*
0 $1 Rounding radius*
0 $2 $3 $4 $5 $6 $7 $8 $9 X,Y pos of 4 corners*
0 Add a 4 corners polygon primitive as box body*
4,1,4,$2,$3,$4,$5,$6,$7,$8,$9,$2,$3,0*
0 Add four circle primitives for the rounded corners*
1,1,$1+$1,$2,$3*
1,1,$1+$1,$4,$5*
1,1,$1+$1,$6,$7*
1,1,$1+$1,$8,$9*
0 Add four rect primitives between the rounded corners*
20,1,$1+$1,$2,$3,$4,$5,0*
20,1,$1+$1,$4,$5,$6,$7,0*
20,1,$1+$1,$6,$7,$8,$9,0*
20,1,$1+$1,$8,$9,$2,$3,0*%
G04 Aperture macros list end*
%ADD10C,0.000000*%
%ADD11C,0.500000*%
%ADD12C,0.200000*%
%ADD13C,1.498600*%
%ADD14RoundRect,0.249999X0.790001X1.550001X-0.790001X1.550001X-0.790001X-1.550001X0.790001X-1.550001X0*%
%ADD15O,2.080000X3.600000*%
%ADD16R,1.700000X1.700000*%
%ADD17C,1.700000*%
%ADD18R,1.800000X1.800000*%
%ADD19C,1.800000*%
%ADD20C,3.250000*%
%ADD21RoundRect,0.102000X-0.699000X-0.699000X0.699000X-0.699000X0.699000X0.699000X-0.699000X0.699000X0*%
%ADD22C,1.602000*%
%ADD23R,1.600000X1.600000*%
%ADD24C,1.600000*%
%ADD25RoundRect,0.102000X-0.762000X-0.762000X0.762000X-0.762000X0.762000X0.762000X-0.762000X0.762000X0*%
%ADD26C,1.728000*%
%ADD27C,6.404000*%
G04 APERTURE END LIST*
D10*
G36*
X170633896Y-83539750D02*
G01*
X170631793Y-83657309D01*
X170625504Y-83771798D01*
X170615060Y-83883125D01*
X170600493Y-83991196D01*
X170581833Y-84095918D01*
X170559111Y-84197199D01*
X170532358Y-84294944D01*
X170517480Y-84342463D01*
X170501606Y-84389063D01*
X170484365Y-84435261D01*
X170466377Y-84480587D01*
X170447637Y-84525037D01*
X170428142Y-84568607D01*
X170407886Y-84611294D01*
X170386868Y-84653093D01*
X170365081Y-84694001D01*
X170342524Y-84734013D01*
X170319192Y-84773126D01*
X170295080Y-84811336D01*
X170270185Y-84848640D01*
X170244504Y-84885032D01*
X170218032Y-84920510D01*
X170190766Y-84955069D01*
X170162701Y-84988706D01*
X170133834Y-85021417D01*
X170104194Y-85053226D01*
X170073827Y-85084152D01*
X170042746Y-85114178D01*
X170010967Y-85143290D01*
X169978507Y-85171472D01*
X169945379Y-85198708D01*
X169911601Y-85224983D01*
X169877187Y-85250281D01*
X169842153Y-85274587D01*
X169806514Y-85297886D01*
X169770287Y-85320161D01*
X169733485Y-85341397D01*
X169696126Y-85361579D01*
X169658224Y-85380692D01*
X169619794Y-85398719D01*
X169580854Y-85415646D01*
X169541538Y-85431520D01*
X169501975Y-85446398D01*
X169462163Y-85460277D01*
X169422103Y-85473151D01*
X169381796Y-85485018D01*
X169341240Y-85495873D01*
X169300436Y-85505713D01*
X169259384Y-85514534D01*
X169218085Y-85522331D01*
X169176537Y-85529101D01*
X169134741Y-85534841D01*
X169092697Y-85539545D01*
X169050405Y-85543211D01*
X169007864Y-85545834D01*
X168965076Y-85547411D01*
X168922040Y-85547937D01*
X168869487Y-85547349D01*
X168818000Y-85545586D01*
X168767590Y-85542653D01*
X168718270Y-85538553D01*
X168670050Y-85533290D01*
X168622942Y-85526869D01*
X168576958Y-85519293D01*
X168532110Y-85510565D01*
X168488409Y-85500690D01*
X168445867Y-85489672D01*
X168404496Y-85477515D01*
X168364306Y-85464222D01*
X168325311Y-85449797D01*
X168287520Y-85434244D01*
X168250947Y-85417567D01*
X168215602Y-85399770D01*
X168172334Y-85376335D01*
X168129902Y-85351691D01*
X168088401Y-85325868D01*
X168047923Y-85298898D01*
X168008561Y-85270812D01*
X167970409Y-85241641D01*
X167933559Y-85211415D01*
X167898104Y-85180166D01*
X167786977Y-85547937D01*
X166921790Y-85373312D01*
X166921790Y-82708959D01*
X168080666Y-82708959D01*
X168080666Y-84285875D01*
X168093285Y-84303549D01*
X168106333Y-84320850D01*
X168119809Y-84337779D01*
X168133706Y-84354336D01*
X168148023Y-84370522D01*
X168162754Y-84386335D01*
X168177896Y-84401775D01*
X168193445Y-84416844D01*
X168209397Y-84431541D01*
X168225748Y-84445866D01*
X168242494Y-84459818D01*
X168259632Y-84473399D01*
X168277158Y-84486607D01*
X168295067Y-84499444D01*
X168313356Y-84511908D01*
X168332021Y-84524000D01*
X168351150Y-84535098D01*
X168370830Y-84545565D01*
X168391052Y-84555388D01*
X168411809Y-84564556D01*
X168433093Y-84573057D01*
X168454897Y-84580881D01*
X168477212Y-84588014D01*
X168500031Y-84594446D01*
X168523346Y-84600164D01*
X168547149Y-84605158D01*
X168571433Y-84609416D01*
X168596190Y-84612925D01*
X168621412Y-84615675D01*
X168647091Y-84617654D01*
X168673220Y-84618849D01*
X168699791Y-84619251D01*
X168719077Y-84619003D01*
X168738239Y-84618264D01*
X168757277Y-84617036D01*
X168776190Y-84615323D01*
X168794980Y-84613130D01*
X168813645Y-84610460D01*
X168832187Y-84607318D01*
X168850604Y-84603706D01*
X168868898Y-84599630D01*
X168887067Y-84595092D01*
X168905112Y-84590097D01*
X168923034Y-84584648D01*
X168940831Y-84578750D01*
X168958504Y-84572406D01*
X168976053Y-84565620D01*
X168993479Y-84558396D01*
X169010222Y-84550706D01*
X169026717Y-84542516D01*
X169042964Y-84533822D01*
X169058963Y-84524621D01*
X169074714Y-84514907D01*
X169090217Y-84504679D01*
X169105472Y-84493931D01*
X169120479Y-84482659D01*
X169135238Y-84470861D01*
X169149748Y-84458532D01*
X169164011Y-84445667D01*
X169178026Y-84432265D01*
X169191792Y-84418319D01*
X169205310Y-84403827D01*
X169218581Y-84388785D01*
X169231603Y-84373188D01*
X169244812Y-84356973D01*
X169257653Y-84340079D01*
X169270130Y-84322511D01*
X169282246Y-84304272D01*
X169294006Y-84285367D01*
X169305413Y-84265799D01*
X169316471Y-84245572D01*
X169327184Y-84224691D01*
X169337556Y-84203158D01*
X169347591Y-84180978D01*
X169357293Y-84158154D01*
X169366665Y-84134691D01*
X169375712Y-84110592D01*
X169384437Y-84085862D01*
X169392844Y-84060504D01*
X169400937Y-84034521D01*
X169409092Y-84007362D01*
X169416694Y-83979470D01*
X169423744Y-83950858D01*
X169430249Y-83921536D01*
X169436210Y-83891516D01*
X169441633Y-83860811D01*
X169450878Y-83797388D01*
X169458015Y-83731361D01*
X169463074Y-83662823D01*
X169466087Y-83591866D01*
X169467084Y-83518584D01*
X169465968Y-83445539D01*
X169462619Y-83375254D01*
X169457038Y-83307759D01*
X169449224Y-83243086D01*
X169439178Y-83181266D01*
X169426899Y-83122329D01*
X169412388Y-83066307D01*
X169404296Y-83039398D01*
X169395645Y-83013230D01*
X169386531Y-82988238D01*
X169377052Y-82963863D01*
X169367217Y-82940101D01*
X169357033Y-82916946D01*
X169346508Y-82894397D01*
X169335649Y-82872448D01*
X169324465Y-82851096D01*
X169312963Y-82830336D01*
X169301151Y-82810167D01*
X169289037Y-82790582D01*
X169276628Y-82771578D01*
X169263933Y-82753153D01*
X169250958Y-82735300D01*
X169237712Y-82718018D01*
X169224203Y-82701301D01*
X169210437Y-82685146D01*
X169196423Y-82670483D01*
X169182160Y-82656264D01*
X169167649Y-82642504D01*
X169152891Y-82629212D01*
X169137884Y-82616401D01*
X169122629Y-82604082D01*
X169107126Y-82592266D01*
X169091375Y-82580967D01*
X169075376Y-82570194D01*
X169059129Y-82559960D01*
X169042634Y-82550277D01*
X169025891Y-82541155D01*
X169008900Y-82532607D01*
X168991661Y-82524645D01*
X168974173Y-82517279D01*
X168956438Y-82510521D01*
X168937990Y-82503793D01*
X168919360Y-82497499D01*
X168900552Y-82491639D01*
X168881569Y-82486213D01*
X168862416Y-82481221D01*
X168843096Y-82476663D01*
X168823613Y-82472539D01*
X168803972Y-82468850D01*
X168784175Y-82465594D01*
X168764227Y-82462772D01*
X168744132Y-82460385D01*
X168723894Y-82458432D01*
X168703516Y-82456912D01*
X168683002Y-82455827D01*
X168662357Y-82455176D01*
X168641584Y-82454959D01*
X168619354Y-82455268D01*
X168597317Y-82456194D01*
X168575483Y-82457732D01*
X168553857Y-82459879D01*
X168532449Y-82462630D01*
X168511266Y-82465982D01*
X168490315Y-82469930D01*
X168469604Y-82474472D01*
X168449141Y-82479603D01*
X168428935Y-82485319D01*
X168408991Y-82491616D01*
X168389319Y-82498491D01*
X168369927Y-82505940D01*
X168350820Y-82513958D01*
X168332009Y-82522542D01*
X168313500Y-82531688D01*
X168297223Y-82540307D01*
X168281140Y-82549289D01*
X168265258Y-82558628D01*
X168249586Y-82568316D01*
X168234131Y-82578346D01*
X168218901Y-82588708D01*
X168203903Y-82599396D01*
X168189145Y-82610402D01*
X168174636Y-82621718D01*
X168160382Y-82633336D01*
X168146392Y-82645248D01*
X168132673Y-82657448D01*
X168119233Y-82669926D01*
X168106080Y-82682676D01*
X168093222Y-82695690D01*
X168080666Y-82708959D01*
X166921790Y-82708959D01*
X166921790Y-79787959D01*
X168078022Y-79965230D01*
X168078022Y-81716771D01*
X168104945Y-81702255D01*
X168132178Y-81688453D01*
X168159784Y-81675332D01*
X168187823Y-81662863D01*
X168216359Y-81651013D01*
X168245452Y-81639753D01*
X168275166Y-81629051D01*
X168305562Y-81618876D01*
X168337961Y-81608303D01*
X168370659Y-81598412D01*
X168403643Y-81589203D01*
X168436903Y-81580677D01*
X168470426Y-81572832D01*
X168504201Y-81565670D01*
X168572460Y-81553391D01*
X168641588Y-81543841D01*
X168711491Y-81537020D01*
X168782076Y-81532927D01*
X168853250Y-81531563D01*
X168904563Y-81532121D01*
X168955306Y-81533796D01*
X169005468Y-81536586D01*
X169055036Y-81540493D01*
X169104001Y-81545516D01*
X169152348Y-81551655D01*
X169200068Y-81558910D01*
X169247149Y-81567282D01*
X169293578Y-81576770D01*
X169339345Y-81587374D01*
X169384437Y-81599094D01*
X169428843Y-81611930D01*
X169472552Y-81625883D01*
X169515551Y-81640952D01*
X169557829Y-81657137D01*
X169599375Y-81674438D01*
X169640674Y-81693259D01*
X169681225Y-81713015D01*
X169721024Y-81733708D01*
X169760068Y-81755343D01*
X169798352Y-81777923D01*
X169835872Y-81801454D01*
X169872625Y-81825937D01*
X169908607Y-81851378D01*
X169943813Y-81877780D01*
X169978241Y-81905147D01*
X170011885Y-81933484D01*
X170044743Y-81962793D01*
X170076810Y-81993078D01*
X170108082Y-82024344D01*
X170138557Y-82056595D01*
X170168228Y-82089834D01*
X170196568Y-82123505D01*
X170224039Y-82158036D01*
X170250642Y-82193421D01*
X170276377Y-82229650D01*
X170301244Y-82266716D01*
X170325243Y-82304611D01*
X170348373Y-82343329D01*
X170370636Y-82382860D01*
X170392030Y-82423197D01*
X170412556Y-82464333D01*
X170432213Y-82506259D01*
X170451003Y-82548969D01*
X170468924Y-82592453D01*
X170485977Y-82636705D01*
X170502162Y-82681716D01*
X170517479Y-82727480D01*
X170544512Y-82820115D01*
X170568040Y-82915417D01*
X170588034Y-83013323D01*
X170604462Y-83113771D01*
X170617293Y-83216701D01*
X170626496Y-83322048D01*
X170632041Y-83429752D01*
X170633539Y-83518584D01*
X170633896Y-83539750D01*
G37*
G36*
X179632374Y-79965230D02*
G01*
X179632374Y-85547938D01*
X178489374Y-85370667D01*
X178489374Y-79787959D01*
X179632374Y-79965230D01*
G37*
G36*
X161371385Y-79804657D02*
G01*
X161403275Y-79807098D01*
X161434711Y-79811118D01*
X161465655Y-79816676D01*
X161496066Y-79823731D01*
X161525904Y-79832245D01*
X161555128Y-79842176D01*
X161583699Y-79853485D01*
X161611576Y-79866130D01*
X161638720Y-79880073D01*
X161665089Y-79895272D01*
X161690643Y-79911688D01*
X161715344Y-79929280D01*
X161739149Y-79948008D01*
X161762019Y-79967832D01*
X161783914Y-79988712D01*
X161804794Y-80010607D01*
X161824618Y-80033477D01*
X161843346Y-80057282D01*
X161860938Y-80081982D01*
X161877353Y-80107537D01*
X161892553Y-80133906D01*
X161906495Y-80161050D01*
X161919141Y-80188927D01*
X161930449Y-80217498D01*
X161940380Y-80246722D01*
X161948894Y-80276560D01*
X161955950Y-80306971D01*
X161961508Y-80337915D01*
X161965527Y-80369352D01*
X161967969Y-80401241D01*
X161968791Y-80433542D01*
X161967969Y-80465844D01*
X161965527Y-80497733D01*
X161961508Y-80529169D01*
X161955950Y-80560113D01*
X161948894Y-80590524D01*
X161940380Y-80620362D01*
X161930449Y-80649587D01*
X161919141Y-80678158D01*
X161906495Y-80706035D01*
X161892553Y-80733178D01*
X161877353Y-80759547D01*
X161860938Y-80785102D01*
X161843346Y-80809802D01*
X161824618Y-80833608D01*
X161804794Y-80856478D01*
X161783914Y-80878373D01*
X161762019Y-80899253D01*
X161739149Y-80919077D01*
X161715344Y-80937805D01*
X161690643Y-80955397D01*
X161665089Y-80971812D01*
X161638720Y-80987012D01*
X161611576Y-81000954D01*
X161583699Y-81013600D01*
X161555128Y-81024908D01*
X161525904Y-81034839D01*
X161496066Y-81043353D01*
X161465655Y-81050409D01*
X161434711Y-81055967D01*
X161403275Y-81059987D01*
X161371385Y-81062428D01*
X161339084Y-81063251D01*
X161306783Y-81062435D01*
X161274893Y-81060016D01*
X161243457Y-81056030D01*
X161212513Y-81050517D01*
X161182102Y-81043517D01*
X161152264Y-81035066D01*
X161123039Y-81025205D01*
X161094468Y-81013972D01*
X161066591Y-81001405D01*
X161039448Y-80987545D01*
X161013078Y-80972428D01*
X160987524Y-80956094D01*
X160962824Y-80938582D01*
X160939018Y-80919931D01*
X160916148Y-80900179D01*
X160894253Y-80879365D01*
X160873373Y-80857528D01*
X160853549Y-80834706D01*
X160834821Y-80810939D01*
X160817229Y-80786265D01*
X160800813Y-80760723D01*
X160785614Y-80734351D01*
X160771672Y-80707188D01*
X160759026Y-80679274D01*
X160747717Y-80650647D01*
X160737786Y-80621345D01*
X160729273Y-80591407D01*
X160722217Y-80560873D01*
X160716659Y-80529781D01*
X160712639Y-80498169D01*
X160710198Y-80466076D01*
X160709375Y-80433542D01*
X160710431Y-80401241D01*
X160713075Y-80369352D01*
X160717270Y-80337915D01*
X160722977Y-80306971D01*
X160730156Y-80276560D01*
X160738769Y-80246722D01*
X160748777Y-80217498D01*
X160760142Y-80188927D01*
X160772825Y-80161049D01*
X160786787Y-80133906D01*
X160801988Y-80107537D01*
X160818392Y-80081982D01*
X160835958Y-80057282D01*
X160854648Y-80033477D01*
X160874423Y-80010607D01*
X160895245Y-79988712D01*
X160917074Y-79967832D01*
X160939873Y-79948008D01*
X160963601Y-79929280D01*
X160988221Y-79911688D01*
X161013694Y-79895272D01*
X161039981Y-79880073D01*
X161067042Y-79866130D01*
X161094840Y-79853485D01*
X161123336Y-79842176D01*
X161152491Y-79832245D01*
X161182265Y-79823731D01*
X161212621Y-79816676D01*
X161243520Y-79811118D01*
X161274923Y-79807098D01*
X161306790Y-79804657D01*
X161339084Y-79803834D01*
X161371385Y-79804657D01*
G37*
G36*
X157868990Y-81532183D02*
G01*
X157917355Y-81534044D01*
X157965216Y-81537144D01*
X158012569Y-81541485D01*
X158059410Y-81547066D01*
X158105737Y-81553887D01*
X158151543Y-81561949D01*
X158196827Y-81571251D01*
X158241583Y-81581793D01*
X158285809Y-81593575D01*
X158329499Y-81606597D01*
X158372651Y-81620860D01*
X158415260Y-81636363D01*
X158457323Y-81653106D01*
X158498836Y-81671089D01*
X158539794Y-81690313D01*
X158594229Y-81718089D01*
X158648355Y-81747819D01*
X158702108Y-81779470D01*
X158755428Y-81813014D01*
X158808251Y-81848417D01*
X158860516Y-81885650D01*
X158912161Y-81924681D01*
X158963124Y-81965480D01*
X159053084Y-81592417D01*
X159984418Y-81772334D01*
X159984418Y-85550584D01*
X158825542Y-85373314D01*
X158825542Y-82851834D01*
X158805575Y-82832704D01*
X158785364Y-82814007D01*
X158764912Y-82795745D01*
X158744225Y-82777916D01*
X158723304Y-82760522D01*
X158702155Y-82743562D01*
X158680781Y-82727036D01*
X158659186Y-82710944D01*
X158637374Y-82695286D01*
X158615348Y-82680062D01*
X158593114Y-82665272D01*
X158570674Y-82650916D01*
X158548033Y-82636995D01*
X158525194Y-82623507D01*
X158502161Y-82610454D01*
X158478939Y-82597834D01*
X158454136Y-82585339D01*
X158429345Y-82573650D01*
X158404577Y-82562767D01*
X158379845Y-82552690D01*
X158355158Y-82543419D01*
X158330530Y-82534954D01*
X158305972Y-82527296D01*
X158281494Y-82520444D01*
X158257110Y-82514398D01*
X158232831Y-82509158D01*
X158208667Y-82504724D01*
X158184632Y-82501096D01*
X158160736Y-82498275D01*
X158136991Y-82496259D01*
X158113409Y-82495050D01*
X158090001Y-82494647D01*
X158060791Y-82495144D01*
X158032682Y-82496642D01*
X158005658Y-82499147D01*
X157979704Y-82502667D01*
X157954803Y-82507211D01*
X157930942Y-82512785D01*
X157908104Y-82519399D01*
X157886273Y-82527058D01*
X157865435Y-82535772D01*
X157845573Y-82545548D01*
X157826672Y-82556394D01*
X157808717Y-82568317D01*
X157791692Y-82581325D01*
X157775582Y-82595426D01*
X157760371Y-82610628D01*
X157746044Y-82626939D01*
X157731626Y-82645200D01*
X157718138Y-82664259D01*
X157705580Y-82684109D01*
X157693953Y-82704743D01*
X157683256Y-82726151D01*
X157673489Y-82748326D01*
X157664652Y-82771262D01*
X157656745Y-82794949D01*
X157649769Y-82819380D01*
X157643723Y-82844548D01*
X157638607Y-82870444D01*
X157634421Y-82897062D01*
X157631165Y-82924392D01*
X157628840Y-82952428D01*
X157627444Y-82981161D01*
X157626979Y-83010584D01*
X157626979Y-85550584D01*
X156468105Y-85373314D01*
X156468105Y-82904751D01*
X156469500Y-82825440D01*
X156473686Y-82748249D01*
X156480662Y-82673190D01*
X156490429Y-82600273D01*
X156502986Y-82529512D01*
X156518334Y-82460918D01*
X156536472Y-82394501D01*
X156557401Y-82330274D01*
X156581121Y-82268249D01*
X156607631Y-82208437D01*
X156636931Y-82150849D01*
X156669022Y-82095498D01*
X156703904Y-82042395D01*
X156741576Y-81991551D01*
X156782038Y-81942978D01*
X156825292Y-81896689D01*
X156870154Y-81852474D01*
X156917415Y-81811112D01*
X156967056Y-81772603D01*
X157019058Y-81736946D01*
X157073400Y-81704142D01*
X157130064Y-81674190D01*
X157189030Y-81647091D01*
X157250279Y-81622844D01*
X157313791Y-81601450D01*
X157379547Y-81582909D01*
X157447528Y-81567220D01*
X157517714Y-81554383D01*
X157590087Y-81544400D01*
X157664625Y-81537268D01*
X157741311Y-81532989D01*
X157820125Y-81531563D01*
X157868990Y-81532183D01*
G37*
G36*
X166215354Y-81767042D02*
G01*
X166215354Y-84140355D01*
X166213836Y-84225432D01*
X166209287Y-84308014D01*
X166201715Y-84388084D01*
X166191128Y-84465627D01*
X166177533Y-84540627D01*
X166160938Y-84613070D01*
X166141352Y-84682939D01*
X166118781Y-84750219D01*
X166093233Y-84814895D01*
X166064717Y-84876950D01*
X166033239Y-84936371D01*
X165998809Y-84993140D01*
X165961432Y-85047242D01*
X165921118Y-85098663D01*
X165877874Y-85147386D01*
X165831708Y-85193396D01*
X165783589Y-85236184D01*
X165733497Y-85276239D01*
X165681444Y-85313558D01*
X165627441Y-85348136D01*
X165571501Y-85379971D01*
X165513634Y-85409058D01*
X165453853Y-85435392D01*
X165392169Y-85458972D01*
X165328593Y-85479792D01*
X165263138Y-85497848D01*
X165195815Y-85513137D01*
X165126635Y-85525655D01*
X165055610Y-85535398D01*
X164982752Y-85542362D01*
X164908072Y-85546543D01*
X164831583Y-85547938D01*
X164774070Y-85547256D01*
X164717626Y-85545215D01*
X164662268Y-85541816D01*
X164608010Y-85537065D01*
X164554869Y-85530965D01*
X164502859Y-85523521D01*
X164451996Y-85514735D01*
X164402297Y-85504612D01*
X164353775Y-85493156D01*
X164306448Y-85480371D01*
X164260329Y-85466260D01*
X164215435Y-85450827D01*
X164171782Y-85434077D01*
X164129384Y-85416013D01*
X164088258Y-85396639D01*
X164048418Y-85375959D01*
X163998566Y-85348808D01*
X163950233Y-85320975D01*
X163903450Y-85292522D01*
X163858249Y-85263511D01*
X163814660Y-85234004D01*
X163772714Y-85204062D01*
X163732442Y-85173749D01*
X163693875Y-85143125D01*
X163572167Y-85540000D01*
X162704334Y-85375959D01*
X162704334Y-81589771D01*
X163863208Y-81767042D01*
X163857917Y-84272646D01*
X163873947Y-84289359D01*
X163890292Y-84305761D01*
X163906955Y-84321853D01*
X163923939Y-84337635D01*
X163941249Y-84353107D01*
X163958888Y-84368268D01*
X163976860Y-84383120D01*
X163995170Y-84397662D01*
X164013821Y-84411894D01*
X164032816Y-84425815D01*
X164052161Y-84439427D01*
X164071858Y-84452728D01*
X164091911Y-84465720D01*
X164112325Y-84478401D01*
X164133103Y-84490772D01*
X164154250Y-84502834D01*
X164176853Y-84514863D01*
X164200009Y-84526145D01*
X164223717Y-84536675D01*
X164247971Y-84546449D01*
X164272767Y-84555463D01*
X164298102Y-84563714D01*
X164323972Y-84571197D01*
X164350373Y-84577909D01*
X164377301Y-84583846D01*
X164404752Y-84589004D01*
X164432723Y-84593379D01*
X164461209Y-84596967D01*
X164490206Y-84599765D01*
X164519711Y-84601768D01*
X164549720Y-84602973D01*
X164580229Y-84603375D01*
X164607144Y-84602910D01*
X164633327Y-84601510D01*
X164658788Y-84599172D01*
X164683541Y-84595893D01*
X164707595Y-84591667D01*
X164730964Y-84586493D01*
X164753658Y-84580365D01*
X164775690Y-84573279D01*
X164797070Y-84565232D01*
X164817811Y-84556221D01*
X164837924Y-84546240D01*
X164857421Y-84535287D01*
X164876313Y-84523356D01*
X164894613Y-84510446D01*
X164912331Y-84496551D01*
X164929479Y-84481667D01*
X164937292Y-84474272D01*
X164944858Y-84466475D01*
X164952175Y-84458277D01*
X164959245Y-84449679D01*
X164972639Y-84431286D01*
X164985042Y-84411304D01*
X164996452Y-84389741D01*
X165006870Y-84366604D01*
X165016296Y-84341902D01*
X165024729Y-84315641D01*
X165032171Y-84287830D01*
X165038620Y-84258476D01*
X165044077Y-84227588D01*
X165048542Y-84195173D01*
X165052014Y-84161238D01*
X165054495Y-84125792D01*
X165055983Y-84088842D01*
X165056479Y-84050396D01*
X165056479Y-81589771D01*
X166215354Y-81767042D01*
G37*
G36*
X161918521Y-81767042D02*
G01*
X161918521Y-85547938D01*
X160759647Y-85370667D01*
X160759647Y-81595063D01*
X161918521Y-81767042D01*
G37*
G36*
X171853626Y-81767042D02*
G01*
X172435708Y-83526521D01*
X172568000Y-84000125D01*
X172705583Y-83526521D01*
X173269146Y-81595063D01*
X174454479Y-81772334D01*
X173118333Y-85341563D01*
X173142146Y-85426229D01*
X173157587Y-85474784D01*
X173174144Y-85522223D01*
X173191817Y-85568546D01*
X173210607Y-85613753D01*
X173230512Y-85657843D01*
X173251534Y-85700817D01*
X173273672Y-85742675D01*
X173296927Y-85783417D01*
X173321297Y-85823042D01*
X173346784Y-85861551D01*
X173373387Y-85898945D01*
X173401106Y-85935221D01*
X173429942Y-85970382D01*
X173459894Y-86004426D01*
X173490961Y-86037355D01*
X173523146Y-86069167D01*
X173556818Y-86100512D01*
X173591358Y-86131039D01*
X173626767Y-86160737D01*
X173663044Y-86189593D01*
X173700189Y-86217598D01*
X173738202Y-86244737D01*
X173777083Y-86271001D01*
X173816833Y-86296378D01*
X173857450Y-86320855D01*
X173898936Y-86344421D01*
X173941290Y-86367065D01*
X173984512Y-86388775D01*
X174028602Y-86409540D01*
X174073561Y-86429347D01*
X174119387Y-86448185D01*
X174166082Y-86466042D01*
X174308957Y-86518959D01*
X173946478Y-87495271D01*
X173697769Y-87418541D01*
X173613994Y-87388717D01*
X173532343Y-87356804D01*
X173452831Y-87322821D01*
X173375474Y-87286787D01*
X173300287Y-87248723D01*
X173227287Y-87208648D01*
X173156487Y-87166580D01*
X173087905Y-87122539D01*
X173021555Y-87076545D01*
X172957453Y-87028617D01*
X172895615Y-86978775D01*
X172836055Y-86927037D01*
X172778790Y-86873423D01*
X172723834Y-86817953D01*
X172671204Y-86760646D01*
X172620916Y-86701521D01*
X172573385Y-86641744D01*
X172527040Y-86580490D01*
X172481889Y-86517771D01*
X172437939Y-86453598D01*
X172395199Y-86387984D01*
X172353676Y-86320939D01*
X172313377Y-86252477D01*
X172274311Y-86182607D01*
X172236485Y-86111342D01*
X172199907Y-86038693D01*
X172164585Y-85964672D01*
X172130526Y-85889291D01*
X172097739Y-85812562D01*
X172066231Y-85734495D01*
X172036009Y-85655102D01*
X172007082Y-85574396D01*
X170594208Y-81587125D01*
X171853626Y-81767042D01*
G37*
G36*
X155975978Y-83582084D02*
G01*
X155975391Y-83639783D01*
X155973632Y-83696785D01*
X155970711Y-83753073D01*
X155966635Y-83808633D01*
X155961412Y-83863449D01*
X155955049Y-83917505D01*
X155947555Y-83970786D01*
X155938937Y-84023276D01*
X155929202Y-84074960D01*
X155918359Y-84125823D01*
X155906415Y-84175848D01*
X155893379Y-84225021D01*
X155879257Y-84273325D01*
X155864058Y-84320746D01*
X155847789Y-84367268D01*
X155830458Y-84412875D01*
X155811639Y-84458547D01*
X155791893Y-84503288D01*
X155771224Y-84547099D01*
X155749637Y-84589981D01*
X155727135Y-84631931D01*
X155703722Y-84672952D01*
X155679403Y-84713043D01*
X155654180Y-84752203D01*
X155628058Y-84790433D01*
X155601041Y-84827734D01*
X155573132Y-84864103D01*
X155544336Y-84899543D01*
X155514656Y-84934053D01*
X155484097Y-84967632D01*
X155452661Y-85000281D01*
X155420354Y-85032000D01*
X155387211Y-85062789D01*
X155353273Y-85092647D01*
X155318552Y-85121576D01*
X155283060Y-85149574D01*
X155246809Y-85176642D01*
X155209809Y-85202780D01*
X155172073Y-85227988D01*
X155133612Y-85252266D01*
X155094438Y-85275613D01*
X155054562Y-85298030D01*
X155013997Y-85319517D01*
X154972753Y-85340074D01*
X154930843Y-85359701D01*
X154888278Y-85378397D01*
X154845069Y-85396164D01*
X154801229Y-85413000D01*
X154757265Y-85428408D01*
X154712702Y-85442879D01*
X154667556Y-85456404D01*
X154621849Y-85468976D01*
X154575600Y-85480586D01*
X154528827Y-85491227D01*
X154481550Y-85500892D01*
X154433789Y-85509573D01*
X154385563Y-85517261D01*
X154336891Y-85523949D01*
X154287792Y-85529629D01*
X154238287Y-85534294D01*
X154188394Y-85537936D01*
X154138133Y-85540547D01*
X154087523Y-85542120D01*
X154036583Y-85542645D01*
X153985642Y-85542089D01*
X153935023Y-85540423D01*
X153884738Y-85537657D01*
X153834797Y-85533798D01*
X153785213Y-85528854D01*
X153735997Y-85522833D01*
X153687161Y-85515741D01*
X153638716Y-85507588D01*
X153590675Y-85498381D01*
X153543048Y-85488127D01*
X153495847Y-85476834D01*
X153449085Y-85464511D01*
X153402772Y-85451164D01*
X153356920Y-85436802D01*
X153311541Y-85421432D01*
X153266646Y-85405062D01*
X153222309Y-85387204D01*
X153178600Y-85368362D01*
X153135526Y-85348542D01*
X153093096Y-85327754D01*
X153051316Y-85306005D01*
X153010196Y-85283302D01*
X152969742Y-85259654D01*
X152929963Y-85235067D01*
X152890866Y-85209551D01*
X152852459Y-85183112D01*
X152814749Y-85155758D01*
X152777745Y-85127498D01*
X152741454Y-85098338D01*
X152705884Y-85068287D01*
X152671042Y-85037352D01*
X152636937Y-85005541D01*
X152603638Y-84972304D01*
X152571220Y-84938083D01*
X152539692Y-84902885D01*
X152509068Y-84866718D01*
X152479359Y-84829589D01*
X152450575Y-84791508D01*
X152422730Y-84752480D01*
X152395835Y-84712515D01*
X152369900Y-84671620D01*
X152344938Y-84629802D01*
X152320961Y-84587069D01*
X152297980Y-84543430D01*
X152276006Y-84498891D01*
X152255051Y-84453461D01*
X152235128Y-84407148D01*
X152216246Y-84359958D01*
X152197984Y-84312398D01*
X152180900Y-84263984D01*
X152164995Y-84214734D01*
X152150267Y-84164662D01*
X152136718Y-84113784D01*
X152124347Y-84062116D01*
X152113154Y-84009672D01*
X152103139Y-83956468D01*
X152094303Y-83902521D01*
X152086645Y-83847845D01*
X152080165Y-83792455D01*
X152074863Y-83736368D01*
X152070739Y-83679599D01*
X152067794Y-83622163D01*
X152066027Y-83564077D01*
X152065863Y-83547688D01*
X153250771Y-83547688D01*
X153251882Y-83626433D01*
X153255194Y-83701891D01*
X153260677Y-83774000D01*
X153268299Y-83842698D01*
X153278030Y-83907924D01*
X153289838Y-83969616D01*
X153303691Y-84027710D01*
X153319561Y-84082146D01*
X153328149Y-84107601D01*
X153337043Y-84132371D01*
X153346240Y-84156450D01*
X153355735Y-84179835D01*
X153365524Y-84202523D01*
X153375604Y-84224510D01*
X153385972Y-84245791D01*
X153396622Y-84266363D01*
X153407551Y-84286221D01*
X153418755Y-84305363D01*
X153430231Y-84323783D01*
X153441974Y-84341479D01*
X153453980Y-84358447D01*
X153466246Y-84374681D01*
X153478768Y-84390180D01*
X153491542Y-84404938D01*
X153504098Y-84418581D01*
X153516956Y-84431732D01*
X153530109Y-84444395D01*
X153543549Y-84456573D01*
X153557267Y-84468271D01*
X153571257Y-84479491D01*
X153585511Y-84490240D01*
X153600021Y-84500519D01*
X153614778Y-84510333D01*
X153629776Y-84519685D01*
X153645007Y-84528581D01*
X153660462Y-84537023D01*
X153676134Y-84545015D01*
X153692016Y-84552562D01*
X153708099Y-84559667D01*
X153724376Y-84566334D01*
X153760240Y-84578861D01*
X153796361Y-84589655D01*
X153832682Y-84598721D01*
X153869152Y-84606063D01*
X153905714Y-84611683D01*
X153942315Y-84615587D01*
X153978901Y-84617777D01*
X154015417Y-84618258D01*
X154051809Y-84617034D01*
X154088022Y-84614109D01*
X154124004Y-84609486D01*
X154159698Y-84603169D01*
X154195051Y-84595162D01*
X154230009Y-84585470D01*
X154264517Y-84574095D01*
X154298522Y-84561042D01*
X154315265Y-84553819D01*
X154331765Y-84546041D01*
X154348024Y-84537712D01*
X154364047Y-84528838D01*
X154379837Y-84519420D01*
X154395399Y-84509464D01*
X154410735Y-84498973D01*
X154425851Y-84487951D01*
X154440750Y-84476402D01*
X154455436Y-84464330D01*
X154469912Y-84451738D01*
X154484183Y-84438631D01*
X154498253Y-84425013D01*
X154512124Y-84410886D01*
X154525802Y-84396256D01*
X154539290Y-84381126D01*
X154552996Y-84364912D01*
X154566333Y-84348032D01*
X154579305Y-84330501D01*
X154591918Y-84312334D01*
X154604173Y-84293547D01*
X154616076Y-84274155D01*
X154627630Y-84254175D01*
X154638840Y-84233620D01*
X154649708Y-84212508D01*
X154660239Y-84190853D01*
X154670436Y-84168671D01*
X154680304Y-84145977D01*
X154689847Y-84122787D01*
X154699068Y-84099117D01*
X154707971Y-84074982D01*
X154716561Y-84050396D01*
X154724745Y-84024694D01*
X154732430Y-83998193D01*
X154739611Y-83970901D01*
X154746284Y-83942827D01*
X154752445Y-83913977D01*
X154758091Y-83884360D01*
X154763218Y-83853983D01*
X154767822Y-83822855D01*
X154771898Y-83790982D01*
X154775444Y-83758373D01*
X154780927Y-83690976D01*
X154784239Y-83620727D01*
X154785350Y-83547688D01*
X154784239Y-83467838D01*
X154780927Y-83391088D01*
X154775444Y-83317563D01*
X154767822Y-83247386D01*
X154758091Y-83180682D01*
X154746284Y-83117575D01*
X154732430Y-83058188D01*
X154716561Y-83002646D01*
X154707973Y-82976695D01*
X154699078Y-82951430D01*
X154689882Y-82926855D01*
X154680387Y-82902973D01*
X154670597Y-82879789D01*
X154660517Y-82857306D01*
X154650150Y-82835529D01*
X154639500Y-82814462D01*
X154628571Y-82794107D01*
X154617367Y-82774469D01*
X154605892Y-82755552D01*
X154594149Y-82737360D01*
X154582143Y-82719897D01*
X154569877Y-82703166D01*
X154557355Y-82687172D01*
X154544582Y-82671917D01*
X154532056Y-82657810D01*
X154519286Y-82644260D01*
X154506276Y-82631269D01*
X154493029Y-82618835D01*
X154479549Y-82606960D01*
X154465841Y-82595643D01*
X154451909Y-82584884D01*
X154437755Y-82574683D01*
X154423384Y-82565040D01*
X154408801Y-82555955D01*
X154394008Y-82547429D01*
X154379009Y-82539460D01*
X154363809Y-82532050D01*
X154348412Y-82525198D01*
X154332821Y-82518904D01*
X154317040Y-82513167D01*
X154282070Y-82501892D01*
X154246635Y-82491918D01*
X154210767Y-82483309D01*
X154174495Y-82476126D01*
X154156218Y-82473088D01*
X154137851Y-82470431D01*
X154119399Y-82468161D01*
X154100866Y-82466286D01*
X154082255Y-82464815D01*
X154063571Y-82463754D01*
X154044817Y-82463112D01*
X154025997Y-82462896D01*
X154007643Y-82463114D01*
X153989297Y-82463770D01*
X153970966Y-82464867D01*
X153952658Y-82466410D01*
X153934382Y-82468403D01*
X153916144Y-82470849D01*
X153897952Y-82473753D01*
X153879815Y-82477118D01*
X153861740Y-82480948D01*
X153843735Y-82485247D01*
X153825807Y-82490018D01*
X153807964Y-82495267D01*
X153790215Y-82500996D01*
X153772566Y-82507209D01*
X153755026Y-82513911D01*
X153737603Y-82521105D01*
X153720858Y-82528328D01*
X153704359Y-82536101D01*
X153688099Y-82544417D01*
X153672076Y-82553268D01*
X153656285Y-82562646D01*
X153640723Y-82572544D01*
X153625386Y-82582952D01*
X153610270Y-82593865D01*
X153595371Y-82605274D01*
X153580685Y-82617171D01*
X153566209Y-82629549D01*
X153551938Y-82642400D01*
X153537868Y-82655715D01*
X153523997Y-82669488D01*
X153510319Y-82683711D01*
X153496831Y-82698376D01*
X153483591Y-82714095D01*
X153470658Y-82730492D01*
X153458026Y-82747564D01*
X153445693Y-82765307D01*
X153433654Y-82783716D01*
X153421907Y-82802788D01*
X153410445Y-82822518D01*
X153399267Y-82842904D01*
X153388368Y-82863941D01*
X153377744Y-82885625D01*
X153367391Y-82907953D01*
X153357306Y-82930919D01*
X153347484Y-82954522D01*
X153337921Y-82978756D01*
X153328615Y-83003619D01*
X153319561Y-83029105D01*
X153311376Y-83055799D01*
X153303691Y-83083293D01*
X153296511Y-83111576D01*
X153289838Y-83140643D01*
X153283676Y-83170485D01*
X153278030Y-83201094D01*
X153272903Y-83232463D01*
X153268299Y-83264584D01*
X153260677Y-83331050D01*
X153255194Y-83400431D01*
X153251882Y-83472664D01*
X153250771Y-83547688D01*
X152065863Y-83547688D01*
X152065438Y-83505354D01*
X152066802Y-83388674D01*
X152069251Y-83331406D01*
X152072879Y-83274878D01*
X152077685Y-83219109D01*
X152083669Y-83164120D01*
X152090832Y-83109929D01*
X152099172Y-83056555D01*
X152108691Y-83004019D01*
X152119388Y-82952339D01*
X152131263Y-82901536D01*
X152144316Y-82851627D01*
X152158548Y-82802633D01*
X152173958Y-82754574D01*
X152190546Y-82707467D01*
X152208312Y-82661334D01*
X152227131Y-82616097D01*
X152246877Y-82571670D01*
X152267546Y-82528057D01*
X152289133Y-82485262D01*
X152311635Y-82443288D01*
X152335048Y-82402140D01*
X152359367Y-82361822D01*
X152384590Y-82322336D01*
X152410712Y-82283688D01*
X152437729Y-82245881D01*
X152465638Y-82208919D01*
X152494434Y-82172806D01*
X152524114Y-82137545D01*
X152554673Y-82103141D01*
X152586109Y-82069597D01*
X152618416Y-82036917D01*
X152651560Y-82005634D01*
X152685502Y-81975288D01*
X152720235Y-81945888D01*
X152755751Y-81917441D01*
X152792042Y-81889956D01*
X152829101Y-81863439D01*
X152866919Y-81837900D01*
X152905489Y-81813344D01*
X152944803Y-81789781D01*
X152984854Y-81767218D01*
X153025633Y-81745662D01*
X153067133Y-81725122D01*
X153109346Y-81705605D01*
X153152265Y-81687119D01*
X153195881Y-81669672D01*
X153240187Y-81653271D01*
X153284121Y-81638358D01*
X153328601Y-81624379D01*
X153373615Y-81611338D01*
X153419153Y-81599239D01*
X153465203Y-81588085D01*
X153511752Y-81577881D01*
X153558790Y-81568630D01*
X153606304Y-81560337D01*
X153654284Y-81553004D01*
X153702717Y-81546637D01*
X153751591Y-81541239D01*
X153800896Y-81536814D01*
X153850620Y-81533365D01*
X153900751Y-81530897D01*
X153951277Y-81529413D01*
X154002187Y-81528917D01*
X154053128Y-81529474D01*
X154103748Y-81531139D01*
X154154034Y-81533905D01*
X154203975Y-81537764D01*
X154253559Y-81542709D01*
X154302776Y-81548730D01*
X154351612Y-81555821D01*
X154400056Y-81563975D01*
X154448098Y-81573182D01*
X154495725Y-81583436D01*
X154542925Y-81594729D01*
X154589687Y-81607052D01*
X154636000Y-81620399D01*
X154681851Y-81634761D01*
X154727230Y-81650131D01*
X154772124Y-81666501D01*
X154816461Y-81684359D01*
X154860171Y-81703201D01*
X154903244Y-81723020D01*
X154945675Y-81743809D01*
X154987454Y-81765558D01*
X155028574Y-81788261D01*
X155069028Y-81811909D01*
X155108807Y-81836495D01*
X155147905Y-81862012D01*
X155186312Y-81888451D01*
X155224022Y-81915804D01*
X155261026Y-81944065D01*
X155297318Y-81973225D01*
X155332888Y-82003276D01*
X155367730Y-82034211D01*
X155401836Y-82066021D01*
X155435135Y-82099289D01*
X155467558Y-82133599D01*
X155499097Y-82168939D01*
X155529745Y-82205300D01*
X155559494Y-82242667D01*
X155588336Y-82281031D01*
X155616263Y-82320380D01*
X155643267Y-82360701D01*
X155669342Y-82401983D01*
X155694478Y-82444215D01*
X155718669Y-82487385D01*
X155741907Y-82531481D01*
X155764183Y-82576492D01*
X155785490Y-82622406D01*
X155805821Y-82669211D01*
X155825167Y-82716896D01*
X155843429Y-82764953D01*
X155860514Y-82813867D01*
X155876420Y-82863626D01*
X155891148Y-82914218D01*
X155904697Y-82965631D01*
X155917068Y-83017855D01*
X155928261Y-83070877D01*
X155938276Y-83124685D01*
X155947113Y-83179269D01*
X155954771Y-83234617D01*
X155961251Y-83290716D01*
X155966553Y-83347555D01*
X155970677Y-83405124D01*
X155973622Y-83463409D01*
X155975389Y-83522399D01*
X155975639Y-83547688D01*
X155975978Y-83582084D01*
G37*
G36*
X184384291Y-81396626D02*
G01*
X182132687Y-81396626D01*
X182090038Y-81397251D01*
X182047483Y-81399147D01*
X182005113Y-81402346D01*
X181963023Y-81406878D01*
X181921305Y-81412775D01*
X181880051Y-81420066D01*
X181839356Y-81428784D01*
X181799312Y-81438959D01*
X181780615Y-81444075D01*
X181762224Y-81449501D01*
X181744135Y-81455237D01*
X181726345Y-81461283D01*
X181708849Y-81467639D01*
X181691644Y-81474306D01*
X181674726Y-81481282D01*
X181658091Y-81488568D01*
X181641734Y-81496165D01*
X181625653Y-81504071D01*
X181609844Y-81512288D01*
X181594301Y-81520814D01*
X181579022Y-81529651D01*
X181564003Y-81538798D01*
X181549240Y-81548255D01*
X181534729Y-81558021D01*
X181521519Y-81567633D01*
X181508678Y-81577612D01*
X181496202Y-81587956D01*
X181484086Y-81598660D01*
X181472326Y-81609721D01*
X181460919Y-81621134D01*
X181449861Y-81632896D01*
X181439148Y-81645003D01*
X181428776Y-81657451D01*
X181418741Y-81670237D01*
X181409039Y-81683356D01*
X181399667Y-81696804D01*
X181390620Y-81710577D01*
X181381896Y-81724673D01*
X181373488Y-81739086D01*
X181365395Y-81753813D01*
X181357736Y-81768942D01*
X181350626Y-81784555D01*
X181344059Y-81800642D01*
X181338027Y-81817189D01*
X181332523Y-81834186D01*
X181327537Y-81851621D01*
X181323063Y-81869482D01*
X181319093Y-81887758D01*
X181315619Y-81906438D01*
X181312634Y-81925508D01*
X181310129Y-81944958D01*
X181308097Y-81964777D01*
X181306530Y-81984952D01*
X181305420Y-82005472D01*
X181304760Y-82026325D01*
X181304541Y-82047501D01*
X181304819Y-82071530D01*
X181305647Y-82095002D01*
X181307018Y-82117915D01*
X181308923Y-82140270D01*
X181311356Y-82162067D01*
X181314308Y-82183306D01*
X181317772Y-82203987D01*
X181321739Y-82224110D01*
X181326203Y-82243675D01*
X181331154Y-82262681D01*
X181336587Y-82281130D01*
X181342492Y-82299020D01*
X181348863Y-82316352D01*
X181355690Y-82333127D01*
X181362968Y-82349343D01*
X181370687Y-82365001D01*
X181379307Y-82380164D01*
X181388303Y-82394901D01*
X181397680Y-82409219D01*
X181407439Y-82423126D01*
X181417587Y-82436631D01*
X181428125Y-82449740D01*
X181439059Y-82462461D01*
X181450393Y-82474803D01*
X181462129Y-82486772D01*
X181474272Y-82498377D01*
X181486827Y-82509626D01*
X181499795Y-82520526D01*
X181513183Y-82531085D01*
X181526993Y-82541310D01*
X181541229Y-82551210D01*
X181555895Y-82560792D01*
X181571985Y-82570528D01*
X181588498Y-82579892D01*
X181605421Y-82588884D01*
X181622744Y-82597503D01*
X181640454Y-82605751D01*
X181658540Y-82613626D01*
X181676991Y-82621130D01*
X181695794Y-82628261D01*
X181714938Y-82635020D01*
X181734412Y-82641408D01*
X181754203Y-82647423D01*
X181774301Y-82653066D01*
X181794693Y-82658337D01*
X181815368Y-82663236D01*
X181836314Y-82667762D01*
X181857520Y-82671917D01*
X181903884Y-82680346D01*
X181951613Y-82687751D01*
X182000581Y-82694102D01*
X182050666Y-82699368D01*
X182101743Y-82703517D01*
X182153688Y-82706520D01*
X182206378Y-82708344D01*
X182259687Y-82708959D01*
X183746645Y-82708959D01*
X183746645Y-85547938D01*
X182558666Y-85370667D01*
X182558666Y-83693209D01*
X182087708Y-83693209D01*
X181985280Y-83691721D01*
X181884433Y-83687256D01*
X181785261Y-83679814D01*
X181687856Y-83669396D01*
X181592312Y-83656002D01*
X181498720Y-83639631D01*
X181407175Y-83620283D01*
X181317770Y-83597959D01*
X181272442Y-83585123D01*
X181227750Y-83571423D01*
X181183708Y-83556863D01*
X181140334Y-83541446D01*
X181097641Y-83525176D01*
X181055646Y-83508057D01*
X181014365Y-83490094D01*
X180973812Y-83471290D01*
X180934003Y-83451648D01*
X180894953Y-83431173D01*
X180856679Y-83409869D01*
X180819196Y-83387739D01*
X180782518Y-83364788D01*
X180746663Y-83341018D01*
X180711644Y-83316435D01*
X180677478Y-83291042D01*
X180643683Y-83264316D01*
X180610764Y-83236730D01*
X180578729Y-83208291D01*
X180547585Y-83179007D01*
X180517340Y-83148886D01*
X180488002Y-83117936D01*
X180459578Y-83086164D01*
X180432078Y-83053578D01*
X180405507Y-83020186D01*
X180379874Y-82985996D01*
X180355187Y-82951015D01*
X180331453Y-82915251D01*
X180308681Y-82878712D01*
X180286877Y-82841405D01*
X180266050Y-82803339D01*
X180246208Y-82764521D01*
X180226984Y-82724805D01*
X180209001Y-82684051D01*
X180192257Y-82642273D01*
X180176755Y-82599487D01*
X180162492Y-82555710D01*
X180149469Y-82510955D01*
X180137687Y-82465240D01*
X180127145Y-82418578D01*
X180117843Y-82370987D01*
X180109782Y-82322481D01*
X180102961Y-82273076D01*
X180097379Y-82222787D01*
X180093039Y-82171630D01*
X180089938Y-82119620D01*
X180088078Y-82066773D01*
X180087458Y-82013105D01*
X180088014Y-81966257D01*
X180089680Y-81919978D01*
X180092446Y-81874282D01*
X180096305Y-81829178D01*
X180101249Y-81784679D01*
X180107270Y-81740796D01*
X180114362Y-81697540D01*
X180122515Y-81654925D01*
X180131722Y-81612960D01*
X180141976Y-81571659D01*
X180153269Y-81531031D01*
X180165592Y-81491090D01*
X180178939Y-81451846D01*
X180193301Y-81413312D01*
X180208671Y-81375498D01*
X180225041Y-81338417D01*
X180242433Y-81301552D01*
X180260868Y-81265372D01*
X180280334Y-81229883D01*
X180300819Y-81195087D01*
X180322312Y-81160989D01*
X180344801Y-81127593D01*
X180368274Y-81094902D01*
X180392721Y-81062920D01*
X180418128Y-81031651D01*
X180444485Y-81001099D01*
X180471780Y-80971268D01*
X180500001Y-80942162D01*
X180529137Y-80913785D01*
X180559176Y-80886140D01*
X180590106Y-80859231D01*
X180621916Y-80833063D01*
X180654068Y-80808135D01*
X180687018Y-80783955D01*
X180720759Y-80760527D01*
X180755283Y-80737854D01*
X180790582Y-80715942D01*
X180826648Y-80694792D01*
X180863474Y-80674411D01*
X180901052Y-80654800D01*
X180939374Y-80635965D01*
X180978432Y-80617908D01*
X181018219Y-80600635D01*
X181058727Y-80584148D01*
X181099948Y-80568452D01*
X181141874Y-80553550D01*
X181184498Y-80539447D01*
X181227812Y-80526146D01*
X181315367Y-80501848D01*
X181405372Y-80480589D01*
X181497795Y-80462429D01*
X181592606Y-80447433D01*
X181689773Y-80435661D01*
X181789266Y-80427176D01*
X181891053Y-80422039D01*
X181995104Y-80420313D01*
X184746770Y-80420313D01*
X184384291Y-81396626D01*
G37*
G36*
X177991370Y-84296936D02*
G01*
X177991959Y-84338792D01*
X177990534Y-84404554D01*
X177986264Y-84468877D01*
X177979157Y-84531751D01*
X177969221Y-84593164D01*
X177956464Y-84653104D01*
X177940892Y-84711560D01*
X177922515Y-84768520D01*
X177901339Y-84823972D01*
X177877373Y-84877905D01*
X177850624Y-84930306D01*
X177821100Y-84981166D01*
X177788808Y-85030471D01*
X177753757Y-85078210D01*
X177715955Y-85124372D01*
X177675408Y-85168945D01*
X177632125Y-85211917D01*
X177586424Y-85252316D01*
X177538622Y-85290166D01*
X177488727Y-85325457D01*
X177436747Y-85358182D01*
X177382690Y-85388334D01*
X177326563Y-85415905D01*
X177268374Y-85440886D01*
X177208131Y-85463271D01*
X177145841Y-85483052D01*
X177081513Y-85500220D01*
X177015154Y-85514768D01*
X176946772Y-85526688D01*
X176876375Y-85535973D01*
X176803969Y-85542615D01*
X176729564Y-85546606D01*
X176653167Y-85547938D01*
X176574137Y-85546574D01*
X176496805Y-85542486D01*
X176421193Y-85535677D01*
X176347325Y-85526151D01*
X176275225Y-85513912D01*
X176204915Y-85498964D01*
X176136420Y-85481311D01*
X176069761Y-85460956D01*
X176004963Y-85437904D01*
X175942048Y-85412158D01*
X175881040Y-85383722D01*
X175821962Y-85352601D01*
X175764838Y-85318797D01*
X175709690Y-85282316D01*
X175656542Y-85243160D01*
X175605417Y-85201333D01*
X175504875Y-85547938D01*
X174600000Y-85375959D01*
X174600000Y-83865188D01*
X175753582Y-83865188D01*
X175753582Y-84312334D01*
X175767163Y-84330471D01*
X175781116Y-84348166D01*
X175795440Y-84365412D01*
X175810137Y-84382200D01*
X175825206Y-84398524D01*
X175840647Y-84414374D01*
X175856460Y-84429744D01*
X175872645Y-84444625D01*
X175889202Y-84459011D01*
X175906131Y-84472893D01*
X175923433Y-84486262D01*
X175941106Y-84499113D01*
X175959151Y-84511437D01*
X175977569Y-84523225D01*
X175996358Y-84534472D01*
X176015520Y-84545167D01*
X176057312Y-84566623D01*
X176100197Y-84585351D01*
X176143966Y-84601350D01*
X176188409Y-84614620D01*
X176233317Y-84625162D01*
X176278481Y-84632976D01*
X176323691Y-84638061D01*
X176368739Y-84640417D01*
X176413415Y-84640045D01*
X176457509Y-84636944D01*
X176500812Y-84631115D01*
X176543116Y-84622558D01*
X176584210Y-84611271D01*
X176623886Y-84597257D01*
X176661934Y-84580514D01*
X176698145Y-84561042D01*
X176704493Y-84557174D01*
X176710640Y-84553012D01*
X176716586Y-84548556D01*
X176722329Y-84543808D01*
X176727872Y-84538766D01*
X176733213Y-84533433D01*
X176738352Y-84527808D01*
X176743289Y-84521892D01*
X176748026Y-84515685D01*
X176752560Y-84509188D01*
X176756893Y-84502401D01*
X176761025Y-84495325D01*
X176764955Y-84487960D01*
X176768683Y-84480307D01*
X176772210Y-84472366D01*
X176775536Y-84464138D01*
X176778659Y-84455623D01*
X176781582Y-84446822D01*
X176784302Y-84437735D01*
X176786822Y-84428363D01*
X176789139Y-84418705D01*
X176791256Y-84408764D01*
X176794883Y-84388029D01*
X176797705Y-84366163D01*
X176799720Y-84343169D01*
X176800929Y-84319051D01*
X176801332Y-84293813D01*
X176800773Y-84273718D01*
X176799090Y-84254099D01*
X176796275Y-84234938D01*
X176792320Y-84216215D01*
X176787218Y-84197911D01*
X176780962Y-84180006D01*
X176773542Y-84162480D01*
X176764952Y-84145315D01*
X176755184Y-84128491D01*
X176744230Y-84111989D01*
X176732082Y-84095789D01*
X176718733Y-84079872D01*
X176704174Y-84064219D01*
X176688399Y-84048810D01*
X176671398Y-84033625D01*
X176653166Y-84018646D01*
X176632026Y-84003176D01*
X176608321Y-83988524D01*
X176582089Y-83974701D01*
X176553368Y-83961719D01*
X176522198Y-83949590D01*
X176488617Y-83938325D01*
X176452665Y-83927936D01*
X176414379Y-83918435D01*
X176373799Y-83909833D01*
X176330963Y-83902142D01*
X176285910Y-83895373D01*
X176238679Y-83889538D01*
X176189309Y-83884649D01*
X176137838Y-83880717D01*
X176084305Y-83877754D01*
X176028749Y-83875771D01*
X175753582Y-83865188D01*
X174600000Y-83865188D01*
X174600000Y-83000000D01*
X174601737Y-82904389D01*
X174606946Y-82812064D01*
X174615627Y-82723087D01*
X174621270Y-82679874D01*
X174627781Y-82637521D01*
X174635161Y-82596037D01*
X174643408Y-82555428D01*
X174652524Y-82515703D01*
X174662508Y-82476869D01*
X174673360Y-82438935D01*
X174685080Y-82401908D01*
X174697669Y-82365795D01*
X174711125Y-82330604D01*
X174725449Y-82295755D01*
X174740632Y-82261653D01*
X174756669Y-82228303D01*
X174773550Y-82195708D01*
X174791269Y-82163874D01*
X174809817Y-82132803D01*
X174829186Y-82102499D01*
X174849370Y-82072967D01*
X174870359Y-82044209D01*
X174892148Y-82016231D01*
X174914726Y-81989036D01*
X174938088Y-81962627D01*
X174962225Y-81937009D01*
X174987129Y-81912186D01*
X175012793Y-81888161D01*
X175039209Y-81864938D01*
X175065811Y-81843016D01*
X175093029Y-81821897D01*
X175120860Y-81801576D01*
X175149300Y-81782049D01*
X175178344Y-81763313D01*
X175207989Y-81745364D01*
X175238230Y-81728198D01*
X175269065Y-81711811D01*
X175300489Y-81696198D01*
X175332498Y-81681358D01*
X175365088Y-81667284D01*
X175398256Y-81653974D01*
X175431997Y-81641424D01*
X175466309Y-81629630D01*
X175501186Y-81618587D01*
X175536624Y-81608292D01*
X175606191Y-81590562D01*
X175677928Y-81575095D01*
X175751774Y-81561923D01*
X175827666Y-81551076D01*
X175905543Y-81542586D01*
X175985342Y-81536483D01*
X176067001Y-81532798D01*
X176150458Y-81531563D01*
X176256617Y-81533294D01*
X176360760Y-81538467D01*
X176462858Y-81547051D01*
X176562877Y-81559014D01*
X176660789Y-81574325D01*
X176756561Y-81592955D01*
X176850162Y-81614871D01*
X176941562Y-81640042D01*
X177029856Y-81668077D01*
X177118089Y-81698623D01*
X177206197Y-81731711D01*
X177294119Y-81767373D01*
X177381794Y-81805639D01*
X177469158Y-81846541D01*
X177556150Y-81890110D01*
X177642708Y-81936376D01*
X177753833Y-81997230D01*
X177415167Y-82907396D01*
X177195563Y-82780396D01*
X177127846Y-82742197D01*
X177061618Y-82706974D01*
X176996878Y-82674728D01*
X176933626Y-82645459D01*
X176871862Y-82619166D01*
X176811586Y-82595849D01*
X176752799Y-82575509D01*
X176695500Y-82558146D01*
X176632835Y-82541557D01*
X176570960Y-82527507D01*
X176510047Y-82515992D01*
X176450265Y-82507007D01*
X176391785Y-82500550D01*
X176334779Y-82496615D01*
X176279415Y-82495200D01*
X176225865Y-82496300D01*
X176174300Y-82499911D01*
X176124890Y-82506031D01*
X176077805Y-82514653D01*
X176033216Y-82525776D01*
X175991293Y-82539395D01*
X175952207Y-82555506D01*
X175916129Y-82574105D01*
X175883229Y-82595188D01*
X175875664Y-82600777D01*
X175868346Y-82606630D01*
X175861275Y-82612749D01*
X175854451Y-82619135D01*
X175847873Y-82625788D01*
X175841540Y-82632709D01*
X175835453Y-82639900D01*
X175829610Y-82647361D01*
X175824012Y-82655093D01*
X175818657Y-82663097D01*
X175813545Y-82671375D01*
X175808676Y-82679927D01*
X175804049Y-82688754D01*
X175799664Y-82697857D01*
X175795521Y-82707238D01*
X175791618Y-82716896D01*
X175784532Y-82737051D01*
X175778404Y-82758330D01*
X175773229Y-82780741D01*
X175769004Y-82804291D01*
X175765725Y-82828989D01*
X175763387Y-82854841D01*
X175761987Y-82881856D01*
X175761521Y-82910042D01*
X175761521Y-83029105D01*
X176163688Y-83029105D01*
X176257310Y-83030340D01*
X176349599Y-83034024D01*
X176440462Y-83040127D01*
X176529805Y-83048618D01*
X176617536Y-83059465D01*
X176703562Y-83072637D01*
X176787790Y-83088104D01*
X176870126Y-83105834D01*
X176952100Y-83126039D01*
X177031315Y-83148911D01*
X177069878Y-83161328D01*
X177107739Y-83174388D01*
X177144895Y-83188083D01*
X177181342Y-83202407D01*
X177217076Y-83217350D01*
X177252092Y-83232906D01*
X177286388Y-83249067D01*
X177319959Y-83265824D01*
X177352801Y-83283171D01*
X177384911Y-83301098D01*
X177416284Y-83319600D01*
X177446917Y-83338667D01*
X177477768Y-83358882D01*
X177507813Y-83379838D01*
X177537051Y-83401529D01*
X177565483Y-83423954D01*
X177593110Y-83447107D01*
X177619930Y-83470985D01*
X177645943Y-83495583D01*
X177671151Y-83520899D01*
X177695553Y-83546928D01*
X177719148Y-83573666D01*
X177741938Y-83601109D01*
X177763921Y-83629254D01*
X177785098Y-83658097D01*
X177805469Y-83687633D01*
X177825034Y-83717859D01*
X177843792Y-83748771D01*
X177861589Y-83780396D01*
X177878266Y-83812757D01*
X177893818Y-83845847D01*
X177908243Y-83879657D01*
X177921536Y-83914181D01*
X177933694Y-83949410D01*
X177944712Y-83985337D01*
X177954587Y-84021954D01*
X177963314Y-84059252D01*
X177970890Y-84097225D01*
X177977312Y-84135865D01*
X177982574Y-84175164D01*
X177986674Y-84215114D01*
X177989608Y-84255707D01*
X177991237Y-84293813D01*
X177991370Y-84296936D01*
G37*
D11*
X170173370Y-89191632D02*
X169816227Y-89310679D01*
X169816227Y-89310679D02*
X169220989Y-89310679D01*
X169220989Y-89310679D02*
X168982894Y-89191632D01*
X168982894Y-89191632D02*
X168863846Y-89072584D01*
X168863846Y-89072584D02*
X168744799Y-88834489D01*
X168744799Y-88834489D02*
X168744799Y-88596393D01*
X168744799Y-88596393D02*
X168863846Y-88358298D01*
X168863846Y-88358298D02*
X168982894Y-88239251D01*
X168982894Y-88239251D02*
X169220989Y-88120203D01*
X169220989Y-88120203D02*
X169697180Y-88001155D01*
X169697180Y-88001155D02*
X169935275Y-87882108D01*
X169935275Y-87882108D02*
X170054322Y-87763060D01*
X170054322Y-87763060D02*
X170173370Y-87524965D01*
X170173370Y-87524965D02*
X170173370Y-87286870D01*
X170173370Y-87286870D02*
X170054322Y-87048774D01*
X170054322Y-87048774D02*
X169935275Y-86929727D01*
X169935275Y-86929727D02*
X169697180Y-86810679D01*
X169697180Y-86810679D02*
X169101941Y-86810679D01*
X169101941Y-86810679D02*
X168744799Y-86929727D01*
X167673370Y-89310679D02*
X167673370Y-86810679D01*
X167673370Y-88001155D02*
X166244799Y-88001155D01*
X166244799Y-89310679D02*
X166244799Y-86810679D01*
X165054322Y-88001155D02*
X164220989Y-88001155D01*
X163863846Y-89310679D02*
X165054322Y-89310679D01*
X165054322Y-89310679D02*
X165054322Y-86810679D01*
X165054322Y-86810679D02*
X163863846Y-86810679D01*
X162792417Y-88001155D02*
X161959084Y-88001155D01*
X161601941Y-89310679D02*
X162792417Y-89310679D01*
X162792417Y-89310679D02*
X162792417Y-86810679D01*
X162792417Y-86810679D02*
X161601941Y-86810679D01*
X160530512Y-89310679D02*
X160530512Y-86810679D01*
X160530512Y-86810679D02*
X159578131Y-86810679D01*
X159578131Y-86810679D02*
X159340036Y-86929727D01*
X159340036Y-86929727D02*
X159220989Y-87048774D01*
X159220989Y-87048774D02*
X159101941Y-87286870D01*
X159101941Y-87286870D02*
X159101941Y-87644012D01*
X159101941Y-87644012D02*
X159220989Y-87882108D01*
X159220989Y-87882108D02*
X159340036Y-88001155D01*
X159340036Y-88001155D02*
X159578131Y-88120203D01*
X159578131Y-88120203D02*
X160530512Y-88120203D01*
X156482893Y-86810679D02*
X155054322Y-86810679D01*
X155768608Y-89310679D02*
X155768608Y-86810679D01*
X154220988Y-88001155D02*
X153387655Y-88001155D01*
X153030512Y-89310679D02*
X154220988Y-89310679D01*
X154220988Y-89310679D02*
X154220988Y-86810679D01*
X154220988Y-86810679D02*
X153030512Y-86810679D01*
X152078131Y-89191632D02*
X151720988Y-89310679D01*
X151720988Y-89310679D02*
X151125750Y-89310679D01*
X151125750Y-89310679D02*
X150887655Y-89191632D01*
X150887655Y-89191632D02*
X150768607Y-89072584D01*
X150768607Y-89072584D02*
X150649560Y-88834489D01*
X150649560Y-88834489D02*
X150649560Y-88596393D01*
X150649560Y-88596393D02*
X150768607Y-88358298D01*
X150768607Y-88358298D02*
X150887655Y-88239251D01*
X150887655Y-88239251D02*
X151125750Y-88120203D01*
X151125750Y-88120203D02*
X151601941Y-88001155D01*
X151601941Y-88001155D02*
X151840036Y-87882108D01*
X151840036Y-87882108D02*
X151959083Y-87763060D01*
X151959083Y-87763060D02*
X152078131Y-87524965D01*
X152078131Y-87524965D02*
X152078131Y-87286870D01*
X152078131Y-87286870D02*
X151959083Y-87048774D01*
X151959083Y-87048774D02*
X151840036Y-86929727D01*
X151840036Y-86929727D02*
X151601941Y-86810679D01*
X151601941Y-86810679D02*
X151006702Y-86810679D01*
X151006702Y-86810679D02*
X150649560Y-86929727D01*
X149935274Y-86810679D02*
X148506703Y-86810679D01*
X149220989Y-89310679D02*
X149220989Y-86810679D01*
X147673369Y-88001155D02*
X146840036Y-88001155D01*
X146482893Y-89310679D02*
X147673369Y-89310679D01*
X147673369Y-89310679D02*
X147673369Y-86810679D01*
X147673369Y-86810679D02*
X146482893Y-86810679D01*
X143982893Y-89310679D02*
X144816226Y-88120203D01*
X145411464Y-89310679D02*
X145411464Y-86810679D01*
X145411464Y-86810679D02*
X144459083Y-86810679D01*
X144459083Y-86810679D02*
X144220988Y-86929727D01*
X144220988Y-86929727D02*
X144101941Y-87048774D01*
X144101941Y-87048774D02*
X143982893Y-87286870D01*
X143982893Y-87286870D02*
X143982893Y-87644012D01*
X143982893Y-87644012D02*
X144101941Y-87882108D01*
X144101941Y-87882108D02*
X144220988Y-88001155D01*
X144220988Y-88001155D02*
X144459083Y-88120203D01*
X144459083Y-88120203D02*
X145411464Y-88120203D01*
D12*
X183615875Y-91405046D02*
X183282542Y-92405046D01*
X183282542Y-92405046D02*
X182949209Y-91405046D01*
X182092066Y-92405046D02*
X182663494Y-92405046D01*
X182377780Y-92405046D02*
X182377780Y-91405046D01*
X182377780Y-91405046D02*
X182473018Y-91547903D01*
X182473018Y-91547903D02*
X182568256Y-91643141D01*
X182568256Y-91643141D02*
X182663494Y-91690760D01*
X181663494Y-92309807D02*
X181615875Y-92357427D01*
X181615875Y-92357427D02*
X181663494Y-92405046D01*
X181663494Y-92405046D02*
X181711113Y-92357427D01*
X181711113Y-92357427D02*
X181663494Y-92309807D01*
X181663494Y-92309807D02*
X181663494Y-92405046D01*
X180996828Y-91405046D02*
X180901590Y-91405046D01*
X180901590Y-91405046D02*
X180806352Y-91452665D01*
X180806352Y-91452665D02*
X180758733Y-91500284D01*
X180758733Y-91500284D02*
X180711114Y-91595522D01*
X180711114Y-91595522D02*
X180663495Y-91785998D01*
X180663495Y-91785998D02*
X180663495Y-92024093D01*
X180663495Y-92024093D02*
X180711114Y-92214569D01*
X180711114Y-92214569D02*
X180758733Y-92309807D01*
X180758733Y-92309807D02*
X180806352Y-92357427D01*
X180806352Y-92357427D02*
X180901590Y-92405046D01*
X180901590Y-92405046D02*
X180996828Y-92405046D01*
X180996828Y-92405046D02*
X181092066Y-92357427D01*
X181092066Y-92357427D02*
X181139685Y-92309807D01*
X181139685Y-92309807D02*
X181187304Y-92214569D01*
X181187304Y-92214569D02*
X181234923Y-92024093D01*
X181234923Y-92024093D02*
X181234923Y-91785998D01*
X181234923Y-91785998D02*
X181187304Y-91595522D01*
X181187304Y-91595522D02*
X181139685Y-91500284D01*
X181139685Y-91500284D02*
X181092066Y-91452665D01*
X181092066Y-91452665D02*
X180996828Y-91405046D01*
X183139685Y-93491180D02*
X182996828Y-93538799D01*
X182996828Y-93538799D02*
X182949209Y-93586418D01*
X182949209Y-93586418D02*
X182901590Y-93681656D01*
X182901590Y-93681656D02*
X182901590Y-93824513D01*
X182901590Y-93824513D02*
X182949209Y-93919751D01*
X182949209Y-93919751D02*
X182996828Y-93967371D01*
X182996828Y-93967371D02*
X183092066Y-94014990D01*
X183092066Y-94014990D02*
X183473018Y-94014990D01*
X183473018Y-94014990D02*
X183473018Y-93014990D01*
X183473018Y-93014990D02*
X183139685Y-93014990D01*
X183139685Y-93014990D02*
X183044447Y-93062609D01*
X183044447Y-93062609D02*
X182996828Y-93110228D01*
X182996828Y-93110228D02*
X182949209Y-93205466D01*
X182949209Y-93205466D02*
X182949209Y-93300704D01*
X182949209Y-93300704D02*
X182996828Y-93395942D01*
X182996828Y-93395942D02*
X183044447Y-93443561D01*
X183044447Y-93443561D02*
X183139685Y-93491180D01*
X183139685Y-93491180D02*
X183473018Y-93491180D01*
X182568256Y-93348323D02*
X182330161Y-94014990D01*
X182092066Y-93348323D02*
X182330161Y-94014990D01*
X182330161Y-94014990D02*
X182425399Y-94253085D01*
X182425399Y-94253085D02*
X182473018Y-94300704D01*
X182473018Y-94300704D02*
X182568256Y-94348323D01*
X180758732Y-93014990D02*
X180568256Y-93014990D01*
X180568256Y-93014990D02*
X180473018Y-93062609D01*
X180473018Y-93062609D02*
X180377780Y-93157847D01*
X180377780Y-93157847D02*
X180330161Y-93348323D01*
X180330161Y-93348323D02*
X180330161Y-93681656D01*
X180330161Y-93681656D02*
X180377780Y-93872132D01*
X180377780Y-93872132D02*
X180473018Y-93967371D01*
X180473018Y-93967371D02*
X180568256Y-94014990D01*
X180568256Y-94014990D02*
X180758732Y-94014990D01*
X180758732Y-94014990D02*
X180853970Y-93967371D01*
X180853970Y-93967371D02*
X180949208Y-93872132D01*
X180949208Y-93872132D02*
X180996827Y-93681656D01*
X180996827Y-93681656D02*
X180996827Y-93348323D01*
X180996827Y-93348323D02*
X180949208Y-93157847D01*
X180949208Y-93157847D02*
X180853970Y-93062609D01*
X180853970Y-93062609D02*
X180758732Y-93014990D01*
X179758732Y-94014990D02*
X179853970Y-93967371D01*
X179853970Y-93967371D02*
X179901589Y-93872132D01*
X179901589Y-93872132D02*
X179901589Y-93014990D01*
X179377779Y-94014990D02*
X179377779Y-93348323D01*
X179377779Y-93014990D02*
X179425398Y-93062609D01*
X179425398Y-93062609D02*
X179377779Y-93110228D01*
X179377779Y-93110228D02*
X179330160Y-93062609D01*
X179330160Y-93062609D02*
X179377779Y-93014990D01*
X179377779Y-93014990D02*
X179377779Y-93110228D01*
X178996827Y-93348323D02*
X178758732Y-94014990D01*
X178758732Y-94014990D02*
X178520637Y-93348323D01*
X177758732Y-93967371D02*
X177853970Y-94014990D01*
X177853970Y-94014990D02*
X178044446Y-94014990D01*
X178044446Y-94014990D02*
X178139684Y-93967371D01*
X178139684Y-93967371D02*
X178187303Y-93872132D01*
X178187303Y-93872132D02*
X178187303Y-93491180D01*
X178187303Y-93491180D02*
X178139684Y-93395942D01*
X178139684Y-93395942D02*
X178044446Y-93348323D01*
X178044446Y-93348323D02*
X177853970Y-93348323D01*
X177853970Y-93348323D02*
X177758732Y-93395942D01*
X177758732Y-93395942D02*
X177711113Y-93491180D01*
X177711113Y-93491180D02*
X177711113Y-93586418D01*
X177711113Y-93586418D02*
X178187303Y-93681656D01*
X177282541Y-94014990D02*
X177282541Y-93348323D01*
X177282541Y-93538799D02*
X177234922Y-93443561D01*
X177234922Y-93443561D02*
X177187303Y-93395942D01*
X177187303Y-93395942D02*
X177092065Y-93348323D01*
X177092065Y-93348323D02*
X176996827Y-93348323D01*
X175901588Y-93491180D02*
X175568255Y-93491180D01*
X175425398Y-94014990D02*
X175901588Y-94014990D01*
X175901588Y-94014990D02*
X175901588Y-93014990D01*
X175901588Y-93014990D02*
X175425398Y-93014990D01*
X175092064Y-93348323D02*
X174853969Y-94014990D01*
X174615874Y-93348323D02*
X174853969Y-94014990D01*
X174853969Y-94014990D02*
X174949207Y-94253085D01*
X174949207Y-94253085D02*
X174996826Y-94300704D01*
X174996826Y-94300704D02*
X175092064Y-94348323D01*
X174234921Y-94014990D02*
X174234921Y-93014990D01*
X174234921Y-93395942D02*
X174139683Y-93348323D01*
X174139683Y-93348323D02*
X173949207Y-93348323D01*
X173949207Y-93348323D02*
X173853969Y-93395942D01*
X173853969Y-93395942D02*
X173806350Y-93443561D01*
X173806350Y-93443561D02*
X173758731Y-93538799D01*
X173758731Y-93538799D02*
X173758731Y-93824513D01*
X173758731Y-93824513D02*
X173806350Y-93919751D01*
X173806350Y-93919751D02*
X173853969Y-93967371D01*
X173853969Y-93967371D02*
X173949207Y-94014990D01*
X173949207Y-94014990D02*
X174139683Y-94014990D01*
X174139683Y-94014990D02*
X174234921Y-93967371D01*
X172949207Y-93967371D02*
X173044445Y-94014990D01*
X173044445Y-94014990D02*
X173234921Y-94014990D01*
X173234921Y-94014990D02*
X173330159Y-93967371D01*
X173330159Y-93967371D02*
X173377778Y-93872132D01*
X173377778Y-93872132D02*
X173377778Y-93491180D01*
X173377778Y-93491180D02*
X173330159Y-93395942D01*
X173330159Y-93395942D02*
X173234921Y-93348323D01*
X173234921Y-93348323D02*
X173044445Y-93348323D01*
X173044445Y-93348323D02*
X172949207Y-93395942D01*
X172949207Y-93395942D02*
X172901588Y-93491180D01*
X172901588Y-93491180D02*
X172901588Y-93586418D01*
X172901588Y-93586418D02*
X173377778Y-93681656D01*
X172330159Y-94014990D02*
X172425397Y-93967371D01*
X172425397Y-93967371D02*
X172473016Y-93872132D01*
X172473016Y-93872132D02*
X172473016Y-93014990D01*
%LPC*%
D13*
%TO.C,U10*%
X81530000Y-128250000D03*
X84070000Y-128250000D03*
X89150000Y-128250000D03*
X94230000Y-128250000D03*
%TD*%
%TO.C,U9*%
X81532081Y-119900787D03*
X84072081Y-119900787D03*
X89152081Y-119900787D03*
X94232081Y-119900787D03*
%TD*%
%TO.C,U8*%
X81690000Y-111501687D03*
X84230000Y-111501687D03*
X89310000Y-111501687D03*
X94390000Y-111501687D03*
%TD*%
D14*
%TO.C,J1*%
X139680000Y-52675000D03*
D15*
X134600000Y-52675000D03*
%TD*%
D16*
%TO.C,J2*%
X78860000Y-68210000D03*
D17*
X81400000Y-68210000D03*
X78860000Y-70750000D03*
X81400000Y-70750000D03*
X78860000Y-73290000D03*
X81400000Y-73290000D03*
X78860000Y-75830000D03*
X81400000Y-75830000D03*
X78860000Y-78370000D03*
X81400000Y-78370000D03*
X78860000Y-80910000D03*
X81400000Y-80910000D03*
X78860000Y-83450000D03*
X81400000Y-83450000D03*
X78860000Y-85990000D03*
X81400000Y-85990000D03*
X78860000Y-88530000D03*
X81400000Y-88530000D03*
X78860000Y-91070000D03*
X81400000Y-91070000D03*
X78860000Y-93610000D03*
X81400000Y-93610000D03*
X78860000Y-96150000D03*
X81400000Y-96150000D03*
X78860000Y-98690000D03*
X81400000Y-98690000D03*
X78860000Y-101230000D03*
X81400000Y-101230000D03*
%TD*%
D18*
%TO.C,D3*%
X124800000Y-77450000D03*
D19*
X127340000Y-77450000D03*
%TD*%
D20*
%TO.C,J4*%
X171300000Y-131850000D03*
X182730000Y-131850000D03*
D21*
X172570000Y-125500000D03*
D22*
X173840000Y-122960000D03*
X175110000Y-125500000D03*
X176380000Y-122960000D03*
X177650000Y-125500000D03*
X178920000Y-122960000D03*
X180190000Y-125500000D03*
X181460000Y-122960000D03*
%TD*%
D18*
%TO.C,D4*%
X124800000Y-85950000D03*
D19*
X127340000Y-85950000D03*
%TD*%
D20*
%TO.C,J5*%
X149900000Y-131895000D03*
X161330000Y-131895000D03*
D21*
X151170000Y-125545000D03*
D22*
X152440000Y-123005000D03*
X153710000Y-125545000D03*
X154980000Y-123005000D03*
X156250000Y-125545000D03*
X157520000Y-123005000D03*
X158790000Y-125545000D03*
X160060000Y-123005000D03*
%TD*%
D16*
%TO.C,J3*%
X158322382Y-74312587D03*
D17*
X155782382Y-74312587D03*
X153242382Y-74312587D03*
X150702382Y-74312587D03*
%TD*%
D23*
%TO.C,U14*%
X180000000Y-49640000D03*
D24*
X180000000Y-52180000D03*
X180000000Y-54720000D03*
X180000000Y-57260000D03*
X180000000Y-59800000D03*
X185080000Y-59800000D03*
X185080000Y-57260000D03*
X185080000Y-54720000D03*
X185080000Y-52180000D03*
X185080000Y-49640000D03*
%TD*%
D23*
%TO.C,U15*%
X191330000Y-49640000D03*
D24*
X191330000Y-52180000D03*
X191330000Y-54720000D03*
X191330000Y-57260000D03*
X191330000Y-59800000D03*
X196410000Y-59800000D03*
X196410000Y-57260000D03*
X196410000Y-54720000D03*
X196410000Y-52180000D03*
X196410000Y-49640000D03*
%TD*%
D25*
%TO.C,U1*%
X141500000Y-69200000D03*
D26*
X141500000Y-66660000D03*
X144040000Y-69200000D03*
X144040000Y-66660000D03*
X146580000Y-69200000D03*
X146580000Y-66660000D03*
X149120000Y-69200000D03*
X149120000Y-66660000D03*
X151660000Y-69200000D03*
X151660000Y-66660000D03*
X154200000Y-69200000D03*
X154200000Y-66660000D03*
X156740000Y-69200000D03*
X156740000Y-66660000D03*
X159280000Y-69200000D03*
X159280000Y-66660000D03*
X161820000Y-69200000D03*
X161820000Y-66660000D03*
X164360000Y-69200000D03*
X164360000Y-66660000D03*
X166900000Y-69200000D03*
X166900000Y-66660000D03*
X169440000Y-69200000D03*
X169440000Y-66660000D03*
X171980000Y-69200000D03*
X171980000Y-66660000D03*
X174520000Y-69200000D03*
X174520000Y-66660000D03*
X177060000Y-69200000D03*
X177060000Y-66660000D03*
X179600000Y-69200000D03*
X179600000Y-66660000D03*
X182140000Y-69200000D03*
X182140000Y-66660000D03*
X184680000Y-69200000D03*
X184680000Y-66660000D03*
X187220000Y-69200000D03*
X187220000Y-66660000D03*
X189760000Y-69200000D03*
X189760000Y-66660000D03*
X195860000Y-75323000D03*
X195860000Y-72783000D03*
X193320000Y-75323000D03*
X193320000Y-72783000D03*
D27*
X136630000Y-67930000D03*
X194630000Y-67930000D03*
X194630000Y-116930000D03*
X136630000Y-116930000D03*
%TD*%
%LPD*%
M02*
